<svg width="989" height="377" viewBox="0 0 989 377" fill="none" xmlns="http://www.w3.org/2000/svg">
<path fill-rule="evenodd" clip-rule="evenodd" d="M401.88 141.675C392.068 141.675 383.983 138.682 377.627 132.696C371.271 126.71 368.093 119.068 368.093 109.773C368.093 100.477 371.271 92.8361 377.627 86.8496C383.983 80.863 392.068 77.8698 401.88 77.8698C413.254 77.8698 422.026 81.7 428.196 89.3594L420.279 96.6102C419.462 97.3538 418.495 97.7069 417.38 97.6697C416.265 97.6324 415.261 97.242 414.37 96.4984C411.024 93.6725 407.159 92.2598 402.773 92.2598C399.427 92.2598 396.453 92.9846 393.852 94.435C391.25 95.8849 389.224 97.9299 387.774 100.57C386.325 103.21 385.6 106.277 385.6 109.773C385.6 114.978 387.18 119.199 390.339 122.433C393.499 125.668 397.643 127.286 402.773 127.286C408.422 127.286 413.217 124.906 417.157 120.147L424.851 126.951C425.817 127.844 426.301 128.959 426.301 130.297C426.301 131.636 425.817 132.752 424.851 133.644C418.904 138.998 411.247 141.675 401.88 141.675ZM488.969 92.929L468.451 142.345C465.998 148.22 463.062 152.328 459.642 154.671C456.222 157.013 452.022 158.184 447.041 158.184C444.514 158.184 441.968 157.794 439.403 157.013C436.838 156.232 434.775 155.21 433.214 153.946L436.783 146.695C437.377 145.654 438.232 144.91 439.347 144.464C440.462 144.018 441.578 144.018 442.693 144.464C443.956 144.836 445.183 145.022 446.372 145.022C449.346 145.022 451.502 143.683 452.84 141.006L432.545 92.929H445.48C446.744 92.929 447.897 93.2821 448.937 93.9884C449.978 94.6952 450.721 95.6063 451.167 96.7215L459.307 116.8L457.635 131.078L471.351 97.0563C471.722 96.238 472.224 95.5133 472.856 94.8811C473.488 94.2488 474.213 93.7655 475.03 93.4311C475.848 93.0963 476.703 92.929 477.595 92.929H488.969ZM525.543 92.0363C528.74 92.0363 531.77 92.613 534.632 93.7655C537.493 94.9182 539.965 96.5357 542.047 98.6178C544.128 100.7 545.782 103.284 547.009 106.37C548.236 109.457 548.849 112.859 548.849 116.577C548.849 123.939 546.619 129.889 542.158 134.425C537.698 138.961 532.16 141.229 525.543 141.229C517.812 141.229 511.419 137.883 506.364 131.19L511.494 140.448H498.447C497.703 140.448 497.053 140.17 496.495 139.612C495.938 139.054 495.659 138.403 495.659 137.66V75.3042H506.253C507.368 75.3042 508.39 75.5834 509.319 76.1412C510.248 76.6986 510.973 77.4425 511.494 78.3719C512.014 79.3013 512.274 80.2869 512.274 81.328V96.9445C515.47 93.6725 519.894 92.0363 525.543 92.0363ZM532.011 116.577C532.011 113.082 531.082 110.331 529.223 108.322C527.365 106.315 524.986 105.311 522.087 105.311C519.188 105.311 516.79 106.315 514.895 108.322C512.999 110.331 512.051 113.082 512.051 116.577C512.051 120.072 512.999 122.842 514.895 124.887C516.79 126.933 519.188 127.955 522.087 127.955C524.986 127.955 527.365 126.933 529.223 124.887C531.082 122.842 532.011 120.072 532.011 116.577ZM607.168 116.689C607.168 116.912 607.094 118.288 606.945 120.816H572.378C572.6 121.485 572.861 122.117 573.158 122.712C575.091 126.579 578.734 128.513 584.086 128.513C588.175 128.513 591.817 127.137 595.014 124.385L601.258 130.855C602.002 131.599 602.336 132.51 602.262 133.588C602.188 134.667 601.705 135.54 600.812 136.209C596.501 139.556 590.739 141.229 583.528 141.229C575.202 141.229 568.475 138.924 563.345 134.313C558.216 129.703 555.651 123.791 555.651 116.577C555.651 109.438 558.123 103.563 563.067 98.9527C568.01 94.3421 574.236 92.0363 581.744 92.0363C589.03 92.0363 595.088 94.2488 599.92 98.6736C604.752 103.098 607.168 109.103 607.168 116.689ZM572.712 109.884C572.638 110.107 571.281 110.461 568.642 110.944C566.003 111.427 564.683 111.818 564.683 112.115H591.557C591.111 109.587 590.033 107.598 588.323 106.147C586.614 104.697 584.458 103.972 581.856 103.972C577.396 103.972 574.348 105.943 572.712 109.884ZM620.884 101.63C624.824 97.6885 628.485 95.1042 631.868 93.8771C635.25 92.6502 639.06 92.0363 643.298 92.0363V107.096C641.811 106.947 640.584 106.872 639.618 106.872C636.049 106.872 633.243 107.821 631.199 109.717C629.154 111.613 628.133 114.569 628.133 118.585V136.209C628.133 137.4 627.742 138.403 626.962 139.221C626.181 140.04 625.196 140.448 624.007 140.448H611.517V96.8332C611.517 95.7176 611.908 94.7882 612.688 94.0446C613.469 93.3009 614.38 92.929 615.42 92.929H627.352L620.884 101.63ZM671.175 141.229C667.161 141.229 663.239 140.764 659.411 139.835C655.582 138.905 652.479 137.734 650.1 136.321L652.887 129.851C653.482 128.587 654.393 127.676 655.619 127.118C656.846 126.56 658.091 126.505 659.355 126.951C663.37 128.513 667.458 129.294 671.621 129.294C676.602 129.294 679.092 128.215 679.092 126.059C679.092 125.166 678.59 124.478 677.587 123.995C676.583 123.512 675.245 123.158 673.573 122.936C671.9 122.712 670.06 122.471 668.053 122.21C666.045 121.95 664.057 121.541 662.087 120.983C660.117 120.426 658.296 119.663 656.623 118.696C654.95 117.73 653.612 116.336 652.609 114.514C651.605 112.691 651.103 110.479 651.103 107.876C651.103 103.266 653.148 99.4732 657.236 96.4984C661.325 93.524 666.975 92.0363 674.186 92.0363C681.843 92.0363 688.087 93.4123 692.919 96.1641L690.132 102.522C689.537 103.786 688.589 104.697 687.288 105.255C685.987 105.813 684.63 105.831 683.218 105.311C680.393 104.419 677.419 103.972 674.297 103.972C669.242 103.972 666.715 105.05 666.715 107.207C666.715 108.248 667.402 109.048 668.778 109.605C670.153 110.163 671.863 110.535 673.907 110.721C675.951 110.907 678.2 111.278 680.653 111.836C683.106 112.394 685.355 113.082 687.4 113.9C689.444 114.718 691.154 116.131 692.529 118.139C693.904 120.147 694.592 122.638 694.592 125.612C694.592 130.149 692.548 133.886 688.459 136.823C684.37 139.76 678.609 141.229 671.175 141.229ZM731.278 92.0363C737.895 92.0363 743.433 94.2861 747.893 98.7853C752.354 103.284 754.584 109.233 754.584 116.633C754.584 124.032 752.354 129.981 747.893 134.481C743.433 138.98 737.895 141.229 731.278 141.229C725.703 141.229 721.28 139.556 718.009 136.209V152.83C718.009 154.094 717.562 155.173 716.671 156.065C715.778 156.957 714.7 157.404 713.437 157.404H701.394V98.3948C701.394 96.9077 701.933 95.6246 703.01 94.5463C704.089 93.468 705.408 92.929 706.969 92.929H717.228L709.088 104.419C716.448 96.164 723.844 92.0363 731.278 92.0363ZM720.573 124.943C722.506 126.951 724.922 127.955 727.822 127.955C730.721 127.955 733.099 126.951 734.958 124.943C736.817 122.936 737.746 120.184 737.746 116.689C737.746 113.194 736.817 110.423 734.958 108.378C733.099 106.333 730.721 105.311 727.822 105.311C724.922 105.311 722.525 106.333 720.629 108.378C718.733 110.423 717.786 113.194 717.786 116.689C717.786 120.184 718.715 122.936 720.573 124.943ZM784.357 92.0363C800.563 92.0363 808.666 99.3615 808.666 114.011V140.448H797.069C795.954 140.448 795.025 140.058 794.281 139.277C793.538 138.496 793.166 137.548 793.166 136.433V134.313C790.713 138.924 786.03 141.229 779.116 141.229C773.54 141.229 769.192 139.853 766.069 137.102C762.947 134.351 761.386 130.818 761.386 126.505C761.386 121.969 763.114 118.473 766.571 116.02C770.028 113.565 775.324 112.338 782.461 112.338H801.195C801.195 112.041 799.596 111.613 796.4 111.055C793.203 110.498 791.568 110.107 791.493 109.884C790.378 106.464 787.182 104.753 781.904 104.753C779.153 104.753 776.402 105.274 773.652 106.315C772.239 106.91 770.846 106.947 769.47 106.426C768.095 105.906 767.073 104.976 766.404 103.638L763.393 97.614C766.069 95.8292 769.284 94.4534 773.038 93.4867C776.793 92.5202 780.566 92.0363 784.357 92.0363ZM783.799 130.632C787.962 130.632 790.676 128.81 791.94 125.166V121.039H784.803C779.971 121.039 777.554 122.638 777.554 125.836C777.554 127.249 778.094 128.401 779.172 129.294C780.249 130.186 781.792 130.632 783.799 130.632ZM842.676 141.229C834.647 141.229 828.087 138.924 822.995 134.313C817.903 129.703 815.356 123.791 815.356 116.577C815.356 109.438 817.903 103.563 822.995 98.9527C828.087 94.3421 834.647 92.0363 842.676 92.0363C848.028 92.0363 852.656 93.1892 856.559 95.4945C860.462 97.7998 863.231 101.035 864.866 105.199L856.169 109.55C855.128 110.144 854.013 110.349 852.823 110.163C851.634 109.977 850.63 109.438 849.813 108.546C847.88 106.389 845.464 105.311 842.565 105.311C839.516 105.311 837.026 106.315 835.094 108.322C833.161 110.331 832.194 113.082 832.194 116.577C832.194 120.147 833.161 122.936 835.094 124.943C837.026 126.951 839.516 127.955 842.565 127.955C846.653 127.955 849.813 125.836 852.043 121.597L861.521 126.393C862.487 126.914 863.138 127.695 863.472 128.736C863.807 129.777 863.677 130.744 863.082 131.636C861.075 134.685 858.306 137.046 854.775 138.719C851.244 140.393 847.211 141.229 842.676 141.229ZM919.506 116.689C919.506 116.912 919.431 118.288 919.283 120.816H884.715C884.938 121.485 885.198 122.117 885.495 122.712C887.428 126.579 891.071 128.513 896.423 128.513C900.512 128.513 904.155 127.137 907.351 124.385L913.596 130.855C914.339 131.599 914.674 132.51 914.599 133.588C914.525 134.667 914.042 135.54 913.15 136.209C908.838 139.556 903.077 141.229 895.866 141.229C887.54 141.229 880.812 138.924 875.683 134.313C870.553 129.703 867.988 123.791 867.988 116.577C867.988 109.438 870.46 103.563 875.404 98.9527C880.348 94.3421 886.573 92.0363 894.082 92.0363C901.367 92.0363 907.425 94.2488 912.258 98.6736C917.09 103.098 919.506 109.103 919.506 116.689ZM885.049 109.884C884.975 110.107 883.618 110.461 880.979 110.944C878.34 111.427 877.021 111.818 877.021 112.115H903.895C903.449 109.587 902.371 107.598 900.66 106.147C898.951 104.697 896.795 103.972 894.193 103.972C889.733 103.972 886.685 105.943 885.049 109.884ZM368.093 214.51V159.405H397.086C407.344 159.405 415.633 162.175 421.952 167.716C428.271 173.255 431.43 180.711 431.43 190.081C431.43 199.451 428.271 206.906 421.952 212.446C415.633 217.986 407.344 220.757 397.086 220.757H374.338C372.628 220.757 371.16 220.143 369.933 218.916C368.706 217.689 368.093 216.22 368.093 214.51ZM385.489 206.925H396.416C401.695 206.925 405.913 205.419 409.073 202.407C412.232 199.395 413.812 195.268 413.812 190.025C413.812 184.782 412.232 180.674 409.073 177.699C405.913 174.724 401.695 173.237 396.416 173.237H373.111L385.489 179.93V206.925ZM489.638 196.997C489.638 197.22 489.564 198.596 489.415 201.124H454.847C455.07 201.793 455.33 202.425 455.628 203.021C457.561 206.888 461.203 208.821 466.556 208.821C470.644 208.821 474.287 207.445 477.484 204.694L483.728 211.163C484.471 211.907 484.806 212.818 484.731 213.896C484.658 214.975 484.174 215.848 483.282 216.518C478.97 219.864 473.209 221.537 465.998 221.537C457.672 221.537 450.944 219.232 445.815 214.621C440.686 210.011 438.121 204.099 438.121 196.885C438.121 189.746 440.593 183.871 445.536 179.261C450.48 174.65 456.706 172.345 464.214 172.345C471.499 172.345 477.558 174.557 482.39 178.982C487.222 183.406 489.638 189.411 489.638 196.997ZM455.182 190.192C455.107 190.416 453.751 190.769 451.112 191.252C448.472 191.736 447.153 192.126 447.153 192.423H474.027C473.581 189.895 472.503 187.906 470.793 186.455C469.083 185.005 466.927 184.28 464.326 184.28C459.865 184.28 456.817 186.251 455.182 190.192ZM535.134 173.237H546.731L526.994 220.757H509.821L490.307 173.237H504.134C506.29 173.237 507.777 174.241 508.595 176.249L516.958 197.555L514.393 213.171L529.224 177.141C529.67 175.952 530.432 175.003 531.51 174.297C532.588 173.59 533.796 173.237 535.134 173.237ZM596.352 196.997C596.352 197.22 596.278 198.596 596.129 201.124H561.562C561.785 201.793 562.045 202.425 562.342 203.021C564.275 206.888 567.918 208.821 573.27 208.821C577.359 208.821 581.002 207.445 584.198 204.694L590.442 211.163C591.186 211.907 591.52 212.818 591.446 213.896C591.372 214.975 590.889 215.848 589.996 216.518C585.685 219.864 579.923 221.537 572.712 221.537C564.386 221.537 557.659 219.232 552.529 214.621C547.4 210.011 544.835 204.099 544.835 196.885C544.835 189.746 547.307 183.871 552.251 179.261C557.194 174.65 563.42 172.345 570.928 172.345C578.214 172.345 584.272 174.557 589.105 178.982C593.937 183.406 596.352 189.411 596.352 196.997ZM561.896 190.192C561.822 190.416 560.465 190.769 557.826 191.252C555.187 191.736 553.868 192.126 553.868 192.423H580.741C580.295 189.895 579.217 187.906 577.507 186.455C575.798 185.005 573.642 184.28 571.04 184.28C566.58 184.28 563.532 186.251 561.896 190.192ZM603.155 155.612H615.309C616.573 155.612 617.632 156.059 618.487 156.951C619.342 157.844 619.77 158.885 619.77 160.074V220.757H607.169C606.054 220.757 605.106 220.366 604.325 219.585C603.545 218.804 603.155 217.856 603.155 216.741V155.612ZM653.445 221.537C645.639 221.537 639.209 219.213 634.154 214.565C629.099 209.918 626.571 204.024 626.571 196.885C626.571 189.746 629.099 183.871 634.154 179.261C639.209 174.65 645.639 172.345 653.445 172.345C661.251 172.345 667.662 174.65 672.68 179.261C677.698 183.871 680.207 189.746 680.207 196.885C680.207 204.099 677.698 210.011 672.68 214.621C667.662 219.232 661.251 221.537 653.445 221.537ZM653.445 208.263C656.344 208.263 658.723 207.259 660.582 205.251C662.44 203.244 663.369 200.455 663.369 196.885C663.369 193.39 662.44 190.639 660.582 188.63C658.723 186.623 656.344 185.619 653.445 185.619C650.546 185.619 648.148 186.623 646.253 188.63C644.357 190.639 643.409 193.39 643.409 196.885C643.409 200.38 644.357 203.151 646.253 205.196C648.148 207.241 650.546 208.263 653.445 208.263ZM716.894 172.345C723.51 172.345 729.048 174.594 733.509 179.093C737.969 183.592 740.199 189.542 740.199 196.941C740.199 204.34 737.969 210.29 733.509 214.789C729.048 219.288 723.51 221.537 716.894 221.537C711.318 221.537 706.895 219.864 703.624 216.518V233.138C703.624 234.403 703.178 235.481 702.286 236.373C701.394 237.266 700.316 237.712 699.052 237.712H687.009V178.703C687.009 177.216 687.548 175.933 688.626 174.854C689.704 173.776 691.023 173.237 692.585 173.237H702.844L694.703 184.727C702.063 176.472 709.46 172.345 716.894 172.345ZM706.189 205.251C708.122 207.259 710.538 208.263 713.437 208.263C716.336 208.263 718.715 207.259 720.573 205.251C722.432 203.244 723.361 200.492 723.361 196.997C723.361 193.502 722.432 190.732 720.573 188.687C718.715 186.642 716.336 185.619 713.437 185.619C710.538 185.619 708.14 186.642 706.245 188.687C704.349 190.732 703.401 193.502 703.401 196.997C703.401 200.492 704.33 203.244 706.189 205.251ZM808.889 172.345C812.68 172.345 815.988 173.07 818.813 174.52C821.638 175.97 823.887 178.313 825.559 181.547C827.232 184.782 828.068 188.78 828.068 193.539V220.757H811.453V196.216C811.453 189.746 809.038 186.511 804.205 186.511C802.57 186.511 801.139 186.883 799.913 187.627C798.686 188.37 797.719 189.542 797.013 191.14C796.307 192.739 795.954 194.729 795.954 197.109V215.848C795.954 217.187 795.471 218.339 794.504 219.307C793.538 220.273 792.385 220.757 791.047 220.757H779.227V196.216C779.227 189.746 776.848 186.511 772.091 186.511C769.489 186.511 767.426 187.404 765.902 189.188C764.378 190.973 763.616 193.613 763.616 197.109V216.964C763.616 218.005 763.245 218.897 762.501 219.641C761.758 220.384 760.865 220.757 759.825 220.757H747.001V177.476C747.001 176.286 747.429 175.282 748.284 174.464C749.138 173.646 750.161 173.237 751.35 173.237H762.836L757.483 182.384C763.43 175.691 769.972 172.345 777.109 172.345C781.941 172.345 785.918 173.609 789.04 176.137C787.553 179.038 786.55 181.603 786.03 183.834C790.713 176.175 798.333 172.345 808.889 172.345ZM886.388 196.997C886.388 197.22 886.314 198.596 886.165 201.124H851.597C851.82 201.793 852.08 202.425 852.377 203.021C854.311 206.888 857.953 208.821 863.306 208.821C867.394 208.821 871.037 207.445 874.233 204.694L880.478 211.163C881.221 211.907 881.556 212.818 881.481 213.896C881.407 214.975 880.924 215.848 880.032 216.518C875.72 219.864 869.959 221.537 862.748 221.537C854.422 221.537 847.694 219.232 842.565 214.621C837.435 210.011 834.871 204.099 834.871 196.885C834.871 189.746 837.342 183.871 842.286 179.261C847.23 174.65 853.456 172.345 860.964 172.345C868.249 172.345 874.308 174.557 879.14 178.982C883.972 183.406 886.388 189.411 886.388 196.997ZM851.932 190.192C851.857 190.416 850.501 190.769 847.861 191.252C845.222 191.736 843.903 192.126 843.903 192.423H870.777C870.331 189.895 869.253 187.906 867.543 186.455C865.833 185.005 863.677 184.28 861.076 184.28C856.615 184.28 853.567 186.251 851.932 190.192ZM924.189 172.345C927.981 172.345 931.307 173.07 934.17 174.52C937.032 175.97 939.354 178.313 941.139 181.547C942.923 184.782 943.815 188.78 943.815 193.539V220.757H927.089V196.216C927.089 189.746 924.487 186.511 919.283 186.511C916.458 186.511 914.172 187.441 912.425 189.3C910.678 191.159 909.805 193.985 909.805 197.778V214.175C909.805 215.96 909.173 217.503 907.909 218.804C906.645 220.106 905.084 220.757 903.226 220.757H893.19V179.038C893.19 177.402 893.766 176.026 894.918 174.911C896.07 173.795 897.427 173.237 898.988 173.237H909.024L902.668 183.946C905.79 179.93 909.284 176.992 913.15 175.134C917.016 173.274 920.695 172.345 924.189 172.345ZM985.631 211.386L988.307 218.749C985.482 220.608 981.617 221.537 976.71 221.537C970.54 221.537 965.782 220.013 962.437 216.964C959.092 213.915 957.419 209.379 957.419 203.355V187.404H950.506V174.911H968.682L957.419 170.225V162.529H969.685C970.503 162.529 971.246 162.733 971.915 163.142C972.585 163.551 973.105 164.09 973.476 164.76C973.848 165.429 974.034 166.172 974.034 166.99V174.911H984.962V187.404H974.034V203.132C974.034 204.917 974.499 206.274 975.428 207.203C976.357 208.133 977.565 208.598 979.052 208.598C979.572 208.598 980.056 208.56 980.501 208.486C981.691 208.337 982.75 208.523 983.68 209.044C984.609 209.564 985.259 210.345 985.631 211.386ZM401.88 302.292C392.068 302.292 383.983 299.298 377.627 293.312C371.271 287.326 368.093 279.685 368.093 270.389C368.093 261.093 371.271 253.452 377.627 247.466C383.983 241.479 392.068 238.486 401.88 238.486C413.254 238.486 422.026 242.316 428.196 249.976L420.279 257.226C419.462 257.97 418.495 258.323 417.38 258.286C416.265 258.249 415.261 257.858 414.37 257.115C411.024 254.289 407.159 252.876 402.773 252.876C399.427 252.876 396.453 253.601 393.852 255.051C391.25 256.501 389.224 258.546 387.774 261.186C386.325 263.826 385.6 266.894 385.6 270.389C385.6 275.595 387.18 279.815 390.339 283.05C393.499 286.285 397.643 287.902 402.773 287.902C408.422 287.902 413.217 285.522 417.157 280.763L424.851 287.567C425.817 288.46 426.301 289.575 426.301 290.914C426.301 292.252 425.817 293.368 424.851 294.26C418.904 299.615 411.247 302.292 401.88 302.292ZM482.836 277.305C482.836 277.528 482.762 278.904 482.613 281.432H448.045C448.268 282.101 448.528 282.734 448.826 283.329C450.759 287.196 454.401 289.129 459.754 289.129C463.842 289.129 467.485 287.754 470.682 285.002L476.926 291.471C477.669 292.215 478.004 293.126 477.929 294.204C477.855 295.283 477.372 296.157 476.48 296.826C472.168 300.172 466.407 301.845 459.196 301.845C450.87 301.845 444.142 299.54 439.013 294.93C433.883 290.319 431.319 284.407 431.319 277.193C431.319 270.054 433.79 264.179 438.734 259.569C443.678 254.958 449.904 252.653 457.412 252.653C464.697 252.653 470.756 254.865 475.588 259.29C480.42 263.715 482.836 269.719 482.836 277.305ZM448.38 270.5C448.305 270.724 446.949 271.077 444.309 271.56C441.67 272.044 440.351 272.434 440.351 272.732H467.225C466.779 270.203 465.701 268.214 463.991 266.764C462.281 265.314 460.125 264.588 457.524 264.588C453.063 264.588 450.015 266.559 448.38 270.5ZM520.638 252.653C524.429 252.653 527.755 253.378 530.618 254.828C533.48 256.278 535.803 258.621 537.587 261.855C539.371 265.09 540.263 269.088 540.263 273.847V301.065H523.537V276.524C523.537 270.054 520.935 266.82 515.731 266.82C512.906 266.82 510.62 267.749 508.873 269.608C507.126 271.467 506.253 274.293 506.253 278.086V294.483C506.253 296.268 505.621 297.811 504.357 299.113C503.093 300.414 501.532 301.065 499.674 301.065H489.638V259.346C489.638 257.71 490.214 256.334 491.366 255.219C492.519 254.103 493.875 253.545 495.437 253.545H505.472L499.116 264.254C502.238 260.238 505.733 257.3 509.598 255.442C513.464 253.582 517.143 252.653 520.638 252.653ZM582.079 291.694L584.755 299.057C581.931 300.916 578.065 301.845 573.158 301.845C566.988 301.845 562.23 300.321 558.885 297.272C555.54 294.223 553.867 289.687 553.867 283.663V267.712H546.954V255.219H565.13L553.867 250.534V242.837H566.133C566.951 242.837 567.694 243.041 568.363 243.45C569.033 243.859 569.553 244.398 569.925 245.068C570.296 245.737 570.482 246.48 570.482 247.298V255.219H581.41V267.712H570.482V283.44C570.482 285.225 570.947 286.582 571.876 287.512C572.805 288.441 574.013 288.906 575.5 288.906C576.02 288.906 576.504 288.869 576.95 288.795C578.139 288.646 579.198 288.831 580.128 289.352C581.057 289.873 581.707 290.653 582.079 291.694ZM640.509 277.305C640.509 277.528 640.435 278.904 640.286 281.432H605.719C605.942 282.101 606.202 282.734 606.499 283.329C608.432 287.196 612.075 289.129 617.427 289.129C621.516 289.129 625.159 287.754 628.355 285.002L634.6 291.471C635.343 292.215 635.678 293.126 635.603 294.204C635.529 295.283 635.046 296.157 634.154 296.826C629.842 300.172 624.081 301.845 616.87 301.845C608.544 301.845 601.816 299.54 596.687 294.93C591.557 290.319 588.992 284.407 588.992 277.193C588.992 270.054 591.464 264.179 596.408 259.569C601.351 254.958 607.577 252.653 615.086 252.653C622.371 252.653 628.429 254.865 633.262 259.29C638.094 263.715 640.509 269.719 640.509 277.305ZM606.053 270.5C605.979 270.724 604.622 271.077 601.983 271.56C599.344 272.044 598.025 272.434 598.025 272.732H624.898C624.452 270.203 623.375 268.214 621.665 266.764C619.955 265.314 617.799 264.588 615.197 264.588C610.737 264.588 607.689 266.559 606.053 270.5ZM654.225 262.246C658.165 258.305 661.827 255.72 665.209 254.493C668.592 253.266 672.401 252.653 676.639 252.653V267.712C675.152 267.563 673.925 267.489 672.959 267.489C669.391 267.489 666.584 268.437 664.54 270.333C662.496 272.229 661.474 275.185 661.474 279.201V296.826C661.474 298.016 661.083 299.02 660.303 299.838C659.522 300.656 658.537 301.065 657.348 301.065H644.859V257.45C644.859 256.334 645.249 255.404 646.03 254.661C646.81 253.917 647.721 253.545 648.762 253.545H660.693L654.225 262.246Z" fill="#1B1918"/>
<path fill-rule="evenodd" clip-rule="evenodd" d="M82.9932 155.267L34.5306 127.277L22.5582 120.365L22.5624 133.007V270.252L118.651 325.755L118.653 308.311L78.1554 238.146C77.5041 237.018 77.8921 235.567 79.0196 234.917L94.0166 226.255C95.1421 225.605 96.5917 225.992 97.2422 227.121L140.898 302.758C141.115 303.134 141.213 303.505 141.213 303.938V310.425L141.211 320.458L141.213 340.042C141.214 340.078 141.214 340.115 141.214 340.152L141.216 360.153C141.216 361.021 140.787 361.766 140.036 362.199C139.285 362.633 138.424 362.633 137.673 362.199L1.69762 283.664C0.945791 283.23 0.514771 282.485 0.514771 281.618L0.51689 95.9653C0.51689 95.098 0.948654 94.3509 1.69958 93.9169L10.6171 88.7712C11.368 88.3379 12.226 88.3379 12.9776 88.7712L98.0596 137.908C98.4363 138.125 98.708 138.397 98.9246 138.773L156.508 238.549C156.942 239.301 156.942 240.16 156.508 240.911L146.511 258.239C146.078 258.99 145.333 259.42 144.465 259.42C143.598 259.42 142.854 258.99 142.42 258.239L112.55 206.478L82.9932 155.267ZM174.881 275.392V331.372L174.883 345.202L185.826 338.875L304.641 270.252L304.65 159.258L289.546 167.979L249.051 238.144C248.4 239.272 246.951 239.662 245.823 239.009L230.826 230.35C229.701 229.699 229.309 228.249 229.961 227.123L273.615 151.483C273.834 151.107 274.103 150.837 274.478 150.618L280.095 147.376L288.783 142.36L305.737 132.567C305.765 132.549 305.796 132.53 305.831 132.51L323.145 122.509C323.895 122.074 324.753 122.074 325.504 122.508C326.256 122.941 326.687 123.686 326.685 124.556L326.687 281.624C326.685 282.489 326.258 283.239 325.504 283.67L164.78 376.495C164.03 376.929 163.166 376.929 162.415 376.495L153.503 371.34C152.751 370.907 152.322 370.164 152.322 369.297L152.321 271.021C152.319 270.586 152.419 270.216 152.637 269.839L210.224 170.065C210.658 169.314 211.402 168.882 212.267 168.884L232.267 168.879C233.137 168.879 233.879 169.308 234.313 170.062C234.746 170.812 234.748 171.673 234.315 172.421L204.437 224.183L174.881 275.392ZM232.933 135.731L281.396 107.74L293.366 100.824L282.419 94.5089L163.601 25.8864L67.5079 81.3774L82.6075 90.101L163.601 90.0994C164.902 90.101 165.964 91.1623 165.964 92.4652V109.787C165.964 111.089 164.904 112.151 163.603 112.149L76.2944 112.15C75.8583 112.15 75.4881 112.05 75.1137 111.833L69.4991 108.591L60.8139 103.572L43.8578 93.7817C43.8265 93.7661 43.7941 93.7464 43.7607 93.7287L26.4457 83.7284C25.694 83.295 25.2651 82.5523 25.2651 81.6848C25.2651 80.8175 25.694 80.0697 26.4457 79.6365L162.425 1.10356C163.176 0.669518 164.035 0.667406 164.786 1.10054L325.51 93.9303C326.26 94.3643 326.692 95.1114 326.692 95.9788L326.687 106.277C326.687 107.144 326.258 107.887 325.506 108.321L240.427 157.462C240.051 157.681 239.68 157.78 239.245 157.78L124.075 157.777C123.208 157.777 122.463 157.348 122.03 156.596L112.028 139.272C111.595 138.521 111.595 137.66 112.028 136.909C112.462 136.157 113.207 135.728 114.074 135.728L173.819 135.731H232.933Z" fill="#2678BE"/>
</svg>
