<svg width="298" height="168" viewBox="0 0 298 168" fill="none" xmlns="http://www.w3.org/2000/svg">
<path d="M18.315 44.45C22.68 44.45 27.9 42.92 31.275 37.52L26.775 34.415C24.705 37.385 21.735 38.6 18.54 38.6C12.87 38.6 8.145 34.55 8.145 28.025C8.145 21.545 12.825 17.45 18.495 17.45C21.6 17.45 24.705 18.665 26.775 21.635L31.275 18.53C27.9 13.13 22.68 11.6 18.315 11.6C9.36 11.6 1.845 18.08 1.845 28.025C1.845 37.97 9.315 44.45 18.315 44.45ZM51.968 20.6L45.533 36.845L39.053 20.6H32.888L42.608 43.775L38.783 52.55H44.678L48.323 44L58.178 20.6H51.968ZM74.8167 20.15C70.6317 20.15 67.9317 22.445 67.3467 23.75H67.2117V12.05H61.1817V44H67.2117V40.85H67.3467C67.9317 42.155 70.6317 44.45 74.8167 44.45C80.2617 44.45 86.0667 40.4 86.0667 32.3C86.0667 24.2 80.2617 20.15 74.8167 20.15ZM73.6017 39.05C70.1817 39.05 67.0767 36.71 67.0767 32.3C67.0767 27.89 70.1817 25.55 73.6017 25.55C76.9317 25.55 80.0817 27.935 80.0817 32.3C80.0817 36.665 76.9317 39.05 73.6017 39.05ZM100.236 20.15C94.2514 20.15 88.4014 24.425 88.4014 32.3C88.4014 40.085 94.1614 44.45 100.596 44.45C104.736 44.45 108.111 42.74 110.046 40.31L107.301 37.385C105.591 38.87 103.566 39.5 101.271 39.5C97.7614 39.5 94.9714 37.835 94.1164 34.64H111.621C112.926 24.335 106.176 20.15 100.236 20.15ZM100.281 25.235C103.116 25.235 105.906 26.9 106.266 30.23H94.0264C94.7914 26.855 97.4914 25.235 100.281 25.235ZM128.599 20.15C124.369 20.15 122.074 23.075 121.264 26.675V20.6H115.234V44H121.264V33.785C121.264 29.105 124.099 25.955 128.644 25.955C129.184 25.955 129.634 26 130.174 26.09V20.33C129.634 20.195 129.139 20.15 128.599 20.15ZM140.589 44.45C145.494 44.45 149.499 41.93 149.499 37.25C149.499 33.11 146.349 31.4 143.469 30.365L140.859 29.375C139.014 28.745 138.429 27.89 138.429 26.9C138.429 25.775 139.374 24.875 140.949 24.875C142.209 24.875 143.424 25.46 144.054 27.35L148.779 26.135C148.014 22.535 144.909 20.15 140.679 20.15C136.269 20.15 132.579 22.67 132.579 26.855C132.579 29.69 134.199 32.165 138.069 33.56L140.949 34.64C142.794 35.315 143.514 36.125 143.514 37.25C143.514 38.915 142.029 39.68 140.499 39.68C138.204 39.68 137.079 38.105 136.629 36.575L131.814 37.88C132.534 42.2 135.954 44.45 140.589 44.45ZM166.575 20.15C162.39 20.15 159.69 22.445 159.105 23.75H158.97V20.6H152.94V52.55H158.97V40.85H159.105C159.69 42.155 162.39 44.45 166.575 44.45C172.02 44.45 177.825 40.4 177.825 32.3C177.825 24.2 172.02 20.15 166.575 20.15ZM165.36 39.05C161.94 39.05 158.835 36.71 158.835 32.3C158.835 27.89 161.94 25.55 165.36 25.55C168.69 25.55 171.84 27.935 171.84 32.3C171.84 36.665 168.69 39.05 165.36 39.05ZM191.409 44.45C195.594 44.45 198.294 42.155 198.879 40.85H199.014V44H205.044V20.6H199.014V23.75H198.879C198.294 22.445 195.594 20.15 191.409 20.15C185.964 20.15 180.159 24.2 180.159 32.3C180.159 40.4 185.964 44.45 191.409 44.45ZM192.624 39.05C189.249 39.05 186.099 36.665 186.099 32.3C186.099 27.935 189.249 25.55 192.624 25.55C195.999 25.55 199.149 27.89 199.149 32.3C199.149 36.71 195.999 39.05 192.624 39.05ZM220.834 44.45C224.974 44.45 228.664 42.47 230.914 38.69L226.504 35.855C225.289 37.7 223.309 39.005 220.879 39.005C217.504 39.005 214.444 36.485 214.444 32.3C214.444 28.115 217.504 25.595 220.879 25.595C223.309 25.595 225.289 26.9 226.504 28.745L230.914 25.91C228.664 22.085 224.974 20.15 220.834 20.15C214.669 20.15 208.504 24.38 208.504 32.3C208.504 40.22 214.669 44.45 220.834 44.45ZM243.938 20.15C237.953 20.15 232.103 24.425 232.103 32.3C232.103 40.085 237.863 44.45 244.298 44.45C248.438 44.45 251.813 42.74 253.748 40.31L251.003 37.385C249.293 38.87 247.268 39.5 244.973 39.5C241.463 39.5 238.673 37.835 237.818 34.64H255.323C256.628 24.335 249.878 20.15 243.938 20.15ZM243.983 25.235C246.818 25.235 249.608 26.9 249.968 30.23H237.728C238.493 26.855 241.193 25.235 243.983 25.235ZM2.295 100H13.86C22.68 100 29.295 93.43 29.295 84.025C29.295 74.62 22.68 68.05 13.86 68.05H2.295V100ZM8.46 94.195V73.855H13.635C19.71 73.855 22.86 77.995 22.86 84.025C22.86 90.055 19.71 94.195 13.635 94.195H8.46ZM43.6349 76.15C37.6499 76.15 31.7999 80.425 31.7999 88.3C31.7999 96.085 37.5599 100.45 43.9949 100.45C48.1349 100.45 51.5099 98.74 53.4449 96.31L50.6999 93.385C48.9899 94.87 46.9649 95.5 44.6699 95.5C41.1599 95.5 38.3699 93.835 37.5149 90.64H55.0199C56.3249 80.335 49.5749 76.15 43.6349 76.15ZM43.6799 81.235C46.5149 81.235 49.3049 82.9 49.6649 86.23H37.4249C38.1899 82.855 40.8899 81.235 43.6799 81.235ZM65.5056 100H71.1306L80.9856 76.6H74.7756L68.3406 92.845L61.8606 76.6H55.6956L65.5056 100ZM93.337 76.15C87.352 76.15 81.502 80.425 81.502 88.3C81.502 96.085 87.262 100.45 93.697 100.45C97.837 100.45 101.212 98.74 103.147 96.31L100.402 93.385C98.692 94.87 96.667 95.5 94.372 95.5C90.862 95.5 88.072 93.835 87.217 90.64H104.722C106.027 80.335 99.277 76.15 93.337 76.15ZM93.382 81.235C96.217 81.235 99.007 82.9 99.367 86.23H87.127C87.892 82.855 90.592 81.235 93.382 81.235ZM108.335 100H114.365V68.05H108.335V100ZM130.175 100.45C136.25 100.45 142.505 96.22 142.505 88.3C142.505 80.38 136.25 76.15 130.175 76.15C124.055 76.15 117.845 80.38 117.845 88.3C117.845 96.22 124.055 100.45 130.175 100.45ZM130.175 95.005C126.8 95.005 123.785 92.485 123.785 88.3C123.785 84.115 126.8 81.595 130.175 81.595C133.55 81.595 136.52 84.115 136.52 88.3C136.52 92.485 133.55 95.005 130.175 95.005ZM159.148 76.15C154.963 76.15 152.263 78.445 151.678 79.75H151.543V76.6H145.513V108.55H151.543V96.85H151.678C152.263 98.155 154.963 100.45 159.148 100.45C164.593 100.45 170.398 96.4 170.398 88.3C170.398 80.2 164.593 76.15 159.148 76.15ZM157.933 95.05C154.513 95.05 151.408 92.71 151.408 88.3C151.408 83.89 154.513 81.55 157.933 81.55C161.263 81.55 164.413 83.935 164.413 88.3C164.413 92.665 161.263 95.05 157.933 95.05ZM201.173 76.15C197.348 76.15 194.783 77.905 193.433 80.065C191.993 77.365 189.473 76.15 186.593 76.15C183.308 76.15 181.148 77.635 179.888 79.615V76.6H173.858V100H179.888V86.68C179.888 83.35 181.778 81.55 184.433 81.55C186.998 81.55 188.753 83.35 188.753 86.68V100H194.783V86.68C194.783 83.35 196.673 81.55 199.328 81.55C201.938 81.55 203.648 83.35 203.648 86.68V100H209.723V86.41C209.723 79.255 206.123 76.15 201.173 76.15ZM224.997 76.15C219.012 76.15 213.162 80.425 213.162 88.3C213.162 96.085 218.922 100.45 225.357 100.45C229.497 100.45 232.872 98.74 234.807 96.31L232.062 93.385C230.352 94.87 228.327 95.5 226.032 95.5C222.522 95.5 219.732 93.835 218.877 90.64H236.382C237.687 80.335 230.937 76.15 224.997 76.15ZM225.042 81.235C227.877 81.235 230.667 82.9 231.027 86.23H218.787C219.552 82.855 222.252 81.235 225.042 81.235ZM253.18 76.15C249.67 76.15 247.33 77.725 246.025 79.795V76.6H239.995V100H246.025V87.22C246.025 83.8 247.915 81.55 251.02 81.55C254.17 81.55 256.015 83.8 256.015 87.22V100H262.045V86.23C262.045 79.12 257.995 76.15 253.18 76.15ZM276.902 94.915C274.922 94.915 274.247 93.745 274.247 92.53V81.415H279.062V76.6H274.247V70.615H268.172V76.6H264.842V81.415H268.172V93.52C268.172 98.335 271.052 100.27 275.012 100.27C276.497 100.27 278.207 100 279.107 99.19V94.555C278.252 94.825 277.442 94.915 276.902 94.915ZM18.315 156.45C22.68 156.45 27.9 154.92 31.275 149.52L26.775 146.415C24.705 149.385 21.735 150.6 18.54 150.6C12.87 150.6 8.145 146.55 8.145 140.025C8.145 133.545 12.825 129.45 18.495 129.45C21.6 129.45 24.705 130.665 26.775 133.635L31.275 130.53C27.9 125.13 22.68 123.6 18.315 123.6C9.36 123.6 1.845 130.08 1.845 140.025C1.845 149.97 9.315 156.45 18.315 156.45ZM44.7335 132.15C38.7485 132.15 32.8985 136.425 32.8985 144.3C32.8985 152.085 38.6585 156.45 45.0935 156.45C49.2335 156.45 52.6085 154.74 54.5435 152.31L51.7985 149.385C50.0885 150.87 48.0635 151.5 45.7685 151.5C42.2585 151.5 39.4685 149.835 38.6135 146.64H56.1185C57.4235 136.335 50.6735 132.15 44.7335 132.15ZM44.7785 137.235C47.6135 137.235 50.4035 138.9 50.7635 142.23H38.5235C39.2885 138.855 41.9885 137.235 44.7785 137.235ZM72.9165 132.15C69.4065 132.15 67.0665 133.725 65.7615 135.795V132.6H59.7315V156H65.7615V143.22C65.7615 139.8 67.6515 137.55 70.7565 137.55C73.9065 137.55 75.7515 139.8 75.7515 143.22V156H81.7815V142.23C81.7815 135.12 77.7315 132.15 72.9165 132.15ZM96.6382 150.915C94.6582 150.915 93.9832 149.745 93.9832 148.53V137.415H98.7982V132.6H93.9832V126.615H87.9082V132.6H84.5782V137.415H87.9082V149.52C87.9082 154.335 90.7882 156.27 94.7482 156.27C96.2332 156.27 97.9432 156 98.8432 155.19V150.555C97.9882 150.825 97.1782 150.915 96.6382 150.915ZM112.981 132.15C106.996 132.15 101.146 136.425 101.146 144.3C101.146 152.085 106.906 156.45 113.341 156.45C117.481 156.45 120.856 154.74 122.791 152.31L120.046 149.385C118.336 150.87 116.311 151.5 114.016 151.5C110.506 151.5 107.716 149.835 106.861 146.64H124.366C125.671 136.335 118.921 132.15 112.981 132.15ZM113.026 137.235C115.861 137.235 118.651 138.9 119.011 142.23H106.771C107.536 138.855 110.236 137.235 113.026 137.235ZM141.344 132.15C137.114 132.15 134.819 135.075 134.009 138.675V132.6H127.979V156H134.009V145.785C134.009 141.105 136.844 137.955 141.389 137.955C141.929 137.955 142.379 138 142.919 138.09V132.33C142.379 132.195 141.884 132.15 141.344 132.15Z" fill="white"/>
<rect x="158" y="125" width="140" height="36" rx="2" fill="#36BADC"/>
<path d="M195.48 150.2C197.86 150.2 200.22 148.8 200.22 146.04C200.22 143.96 198.88 142.86 196.46 141.9L195.5 141.52C193.9 140.88 193.38 140.22 193.38 139.36C193.38 138.26 194.3 137.64 195.46 137.64C196.68 137.64 197.54 138.3 198.12 139.5L199.82 138.58C199.22 137.06 197.8 135.6 195.38 135.6C193.04 135.6 191.14 137.04 191.14 139.34C191.14 141.36 192.58 142.46 194.6 143.26L195.52 143.62C197.06 144.24 197.88 144.78 197.88 146.02C197.88 147.44 196.76 148.12 195.46 148.12C193.9 148.12 192.84 147.14 192.44 145.86L190.6 146.7C191.1 148.76 193.04 150.2 195.48 150.2ZM209.42 139.6V145.36C209.42 147.18 208.38 148.2 206.86 148.2C205.34 148.2 204.32 147.18 204.32 145.36V139.6H202.12V145.72C202.12 148.86 203.94 150.2 206.1 150.2C207.76 150.2 208.84 149.42 209.42 148.46V150H211.64V139.6H209.42ZM219.899 139.4C217.999 139.4 216.679 140.44 216.299 141.26H216.239V139.6H214.039V153.8H216.239V148.34H216.299C216.679 149.16 217.999 150.2 219.899 150.2C222.359 150.2 224.939 148.38 224.939 144.8C224.939 141.22 222.359 139.4 219.899 139.4ZM219.479 148.2C217.799 148.2 216.179 147.04 216.179 144.8C216.179 142.56 217.799 141.4 219.479 141.4C221.139 141.4 222.759 142.56 222.759 144.8C222.759 147.04 221.139 148.2 219.479 148.2ZM232.501 139.4C230.601 139.4 229.281 140.44 228.901 141.26H228.841V139.6H226.641V153.8H228.841V148.34H228.901C229.281 149.16 230.601 150.2 232.501 150.2C234.961 150.2 237.541 148.38 237.541 144.8C237.541 141.22 234.961 139.4 232.501 139.4ZM232.081 148.2C230.401 148.2 228.781 147.04 228.781 144.8C228.781 142.56 230.401 141.4 232.081 141.4C233.741 141.4 235.361 142.56 235.361 144.8C235.361 147.04 233.741 148.2 232.081 148.2ZM244.379 150.2C247.079 150.2 249.819 148.3 249.819 144.8C249.819 141.3 247.079 139.4 244.379 139.4C241.679 139.4 238.939 141.3 238.939 144.8C238.939 148.3 241.679 150.2 244.379 150.2ZM244.379 148.18C242.679 148.18 241.119 146.94 241.119 144.8C241.119 142.66 242.679 141.42 244.379 141.42C246.079 141.42 247.619 142.66 247.619 144.8C247.619 146.94 246.079 148.18 244.379 148.18ZM257.209 139.4C255.309 139.4 254.269 140.72 253.909 142.28V139.6H251.709V150H253.909V145.14C253.909 142.96 255.249 141.52 257.229 141.52C257.469 141.52 257.649 141.54 257.869 141.58V139.48C257.649 139.42 257.449 139.4 257.209 139.4ZM265.001 141.38V139.6H262.901V136.94H260.681V139.6H259.241V141.38H260.681V147.48C260.681 149.34 261.801 150.12 263.381 150.12C263.941 150.12 264.621 150.02 265.001 149.7V147.96C264.621 148.1 264.281 148.14 264.041 148.14C263.221 148.14 262.901 147.68 262.901 147.08V141.38H265.001Z" fill="white"/>
</svg>
