<svg width="32" height="32" viewBox="0 0 32 32" fill="none" xmlns="http://www.w3.org/2000/svg">
<g clip-path="url(#clip0)">
<path d="M31.96 20.992C31.9392 20.7929 31.8644 20.6032 31.7438 20.4434C31.6231 20.2836 31.4611 20.1598 31.2752 20.0853L30.416 19.744C30.2052 18.8913 29.8668 18.0753 29.4123 17.3237L29.7755 16.4731C29.8577 16.2881 29.8861 16.0836 29.8572 15.8831C29.8283 15.6827 29.7434 15.4945 29.6123 15.3403C29.2422 14.8998 28.8346 14.4922 28.3941 14.1221C28.2401 13.9906 28.052 13.9053 27.8515 13.8762C27.6511 13.847 27.4465 13.8751 27.2613 13.9573L26.408 14.3216C25.6569 13.867 24.8415 13.5285 23.9893 13.3173L23.6459 12.4565C23.6016 12.3511 23.5411 12.2532 23.4667 12.1664V1.6C23.4667 1.17565 23.2981 0.768687 22.998 0.468629C22.698 0.168571 22.291 0 21.8667 0L1.6 0C1.17565 0 0.768687 0.168571 0.468629 0.468629C0.168571 0.768687 0 1.17565 0 1.6L0 27.7333C0 28.1577 0.168571 28.5646 0.468629 28.8647C0.768687 29.1648 1.17565 29.3333 1.6 29.3333H15.0208C15.1275 29.4315 15.2341 29.5253 15.3408 29.6128C15.495 29.7438 15.683 29.8285 15.8832 29.8574C16.0834 29.8863 16.2877 29.8581 16.4725 29.776L17.3259 29.4117C18.0768 29.8663 18.892 30.2048 19.744 30.416L20.0875 31.2768C20.1622 31.4624 20.2861 31.6241 20.4458 31.7446C20.6056 31.8651 20.7951 31.9397 20.9941 31.9605C21.2336 31.9819 21.5451 32.0005 21.8933 32.0005C22.16 32.0005 22.4432 31.9893 22.7339 31.9605C22.9336 31.9401 23.124 31.8655 23.2843 31.7447C23.4447 31.6239 23.569 31.4615 23.6437 31.2752L23.9867 30.416C24.8394 30.205 25.6553 29.8664 26.4069 29.4117L27.2576 29.7755C27.4426 29.8578 27.6471 29.8862 27.8475 29.8573C28.048 29.8284 28.2362 29.7435 28.3904 29.6123C28.8312 29.2417 29.2393 28.8337 29.6101 28.3931C29.741 28.2389 29.8258 28.0509 29.8547 27.8507C29.8835 27.6505 29.8553 27.4462 29.7733 27.2613L29.4096 26.408C29.8649 25.657 30.2042 24.8416 30.416 23.9893L31.2768 23.6459C31.4624 23.5711 31.6241 23.4473 31.7446 23.2875C31.8651 23.1278 31.9397 22.9382 31.9605 22.7392C32.0134 22.158 32.0132 21.5732 31.96 20.992ZM1.06667 27.7333V1.6C1.06667 1.45855 1.12286 1.3229 1.22288 1.22288C1.3229 1.12286 1.45855 1.06667 1.6 1.06667H21.8667C22.0081 1.06667 22.1438 1.12286 22.2438 1.22288C22.3438 1.3229 22.4 1.45855 22.4 1.6V11.7493C21.9324 11.7215 21.4633 11.7293 20.9968 11.7728C20.7971 11.7932 20.6067 11.8678 20.4463 11.9886C20.286 12.1094 20.1617 12.2718 20.0869 12.4581L19.744 13.3173C18.8913 13.5283 18.0753 13.8669 17.3237 14.3216L16.4731 13.9579C16.2881 13.8754 16.0836 13.847 15.8831 13.8758C15.6826 13.9047 15.4944 13.9897 15.3403 14.1211C15.2304 14.2149 15.1269 14.3077 15.0256 14.4H11.2C11.0586 14.4 10.9229 14.4562 10.8229 14.5562C10.7229 14.6562 10.6667 14.7919 10.6667 14.9333C10.6667 15.0748 10.7229 15.2104 10.8229 15.3105C10.9229 15.4105 11.0586 15.4667 11.2 15.4667H14.0405C13.9452 15.6145 13.8878 15.7836 13.8733 15.9589C13.8588 16.1343 13.8876 16.3105 13.9573 16.472L14.2112 17.0667H11.2C11.0586 17.0667 10.9229 17.1229 10.8229 17.2229C10.7229 17.3229 10.6667 17.4586 10.6667 17.6C10.6667 17.7414 10.7229 17.8771 10.8229 17.9771C10.9229 18.0771 11.0586 18.1333 11.2 18.1333H13.8949C13.6516 18.6466 13.459 19.1825 13.32 19.7333H11.2C11.0586 19.7333 10.9229 19.7895 10.8229 19.8895C10.7229 19.9896 10.6667 20.1252 10.6667 20.2667C10.6667 20.4081 10.7229 20.5438 10.8229 20.6438C10.9229 20.7438 11.0586 20.8 11.2 20.8H11.8197C11.7977 20.8639 11.782 20.9298 11.7728 20.9968C11.7202 21.5755 11.7202 22.1578 11.7728 22.7365C11.782 22.8035 11.7977 22.8694 11.8197 22.9333H6.4C6.23314 22.9333 6.06865 22.9727 5.92 23.0485L3.78667 24.1152C3.61042 24.2041 3.46232 24.3403 3.35885 24.5084C3.25538 24.6765 3.20059 24.8701 3.20059 25.0675C3.20059 25.2649 3.25538 25.4584 3.35885 25.6266C3.46232 25.7947 3.61042 25.9308 3.78667 26.0197L5.92 27.0864C6.06878 27.1616 6.23327 27.2006 6.4 27.2H13.9835L13.9579 27.2603C13.8878 27.4219 13.8587 27.5983 13.8731 27.7738C13.8876 27.9494 13.9451 28.1187 14.0405 28.2667H1.6C1.45855 28.2667 1.3229 28.2105 1.22288 28.1105C1.12286 28.0104 1.06667 27.8748 1.06667 27.7333ZM5.86667 25.8667L4.26667 25.0693L5.86667 24.2693V25.8667ZM6.93333 24H13.32C13.5077 24.7453 13.7931 25.4627 14.1685 26.1333H6.93333V24ZM30.88 22.6555L29.76 23.1024C29.6786 23.1351 29.6065 23.1873 29.55 23.2543C29.4935 23.3213 29.4542 23.4012 29.4357 23.4869C29.2399 24.4071 28.8767 25.2835 28.3643 26.0725C28.3167 26.1458 28.2879 26.2297 28.2804 26.3167C28.2729 26.4038 28.2868 26.4914 28.3211 26.5717L28.7957 27.7067C28.462 28.1065 28.0881 28.4711 27.68 28.7947L26.5717 28.32C26.4914 28.2858 26.4038 28.2718 26.3167 28.2793C26.2297 28.2869 26.1458 28.3157 26.0725 28.3632C25.2836 28.8758 24.4072 29.2392 23.4869 29.4352C23.4012 29.4537 23.3213 29.493 23.2543 29.5495C23.1873 29.606 23.1351 29.6781 23.1024 29.7595L22.6363 30.8971C22.1176 30.9461 21.5951 30.9395 21.0779 30.8773L20.6309 29.7573C20.5982 29.676 20.5461 29.6039 20.479 29.5473C20.412 29.4908 20.3321 29.4516 20.2464 29.4331C19.3262 29.237 18.4498 28.8737 17.6608 28.3611C17.5876 28.3132 17.5038 28.2842 17.4166 28.2766C17.3295 28.2691 17.2419 28.2833 17.1616 28.3179L16.0267 28.7931C15.6272 28.4599 15.2627 28.0869 14.9387 27.68L15.4117 26.5717C15.446 26.4914 15.4599 26.4038 15.4524 26.3167C15.4449 26.2297 15.4161 26.1458 15.3685 26.0725C14.8559 25.2836 14.4926 24.4072 14.2965 23.4869C14.278 23.4012 14.2388 23.3213 14.1823 23.2543C14.1257 23.1873 14.0536 23.1351 13.9723 23.1024L12.8347 22.6368C12.7859 22.1179 12.7925 21.5953 12.8544 21.0779L13.9744 20.6309C14.0558 20.5982 14.1279 20.5461 14.1844 20.479C14.2409 20.412 14.2802 20.3321 14.2987 20.2464C14.4947 19.3262 14.8581 18.4498 15.3707 17.6608C15.4182 17.5875 15.447 17.5036 15.4545 17.4166C15.4621 17.3295 15.4481 17.242 15.4139 17.1616L14.9397 16.0267C15.2725 15.6266 15.6457 15.262 16.0533 14.9387L17.1616 15.4117C17.242 15.446 17.3295 15.4599 17.4166 15.4524C17.5036 15.4449 17.5875 15.4161 17.6608 15.3685C18.4498 14.8559 19.3262 14.4926 20.2464 14.2965C20.3321 14.278 20.412 14.2388 20.479 14.1823C20.5461 14.1257 20.5982 14.0536 20.6309 13.9723L21.0965 12.8347C21.6154 12.7856 22.138 12.7922 22.6555 12.8544L23.1024 13.9744C23.1351 14.0558 23.1873 14.1279 23.2543 14.1844C23.3213 14.2409 23.4012 14.2802 23.4869 14.2987C24.4072 14.4947 25.2836 14.8581 26.0725 15.3707C26.1458 15.4182 26.2297 15.447 26.3167 15.4545C26.4038 15.4621 26.4914 15.4481 26.5717 15.4139L27.7067 14.9397C28.1067 15.2725 28.4713 15.6457 28.7947 16.0533L28.32 17.1616C28.2858 17.242 28.2718 17.3295 28.2793 17.4166C28.2869 17.5036 28.3157 17.5875 28.3632 17.6608C28.8756 18.4498 29.2388 19.3262 29.4347 20.2464C29.4532 20.3321 29.4924 20.412 29.5489 20.479C29.6055 20.5461 29.6776 20.5982 29.7589 20.6309L30.8965 21.0949C30.9465 21.6142 30.941 22.1374 30.88 22.6555Z" fill="#7D7D7D"/>
<path d="M3.7333 7.46615H19.7333C20.1576 7.46615 20.5646 7.29758 20.8647 6.99752C21.1647 6.69746 21.3333 6.29049 21.3333 5.86615V3.73281C21.3333 3.30847 21.1647 2.9015 20.8647 2.60144C20.5646 2.30138 20.1576 2.13281 19.7333 2.13281H3.7333C3.30895 2.13281 2.90199 2.30138 2.60193 2.60144C2.30187 2.9015 2.1333 3.30847 2.1333 3.73281V5.86615C2.1333 6.29049 2.30187 6.69746 2.60193 6.99752C2.90199 7.29758 3.30895 7.46615 3.7333 7.46615ZM3.19997 3.73281C3.19997 3.59136 3.25616 3.45571 3.35618 3.35569C3.4562 3.25567 3.59185 3.19948 3.7333 3.19948H19.7333C19.8748 3.19948 20.0104 3.25567 20.1104 3.35569C20.2104 3.45571 20.2666 3.59136 20.2666 3.73281V5.86615C20.2666 6.00759 20.2104 6.14325 20.1104 6.24327C20.0104 6.34329 19.8748 6.39948 19.7333 6.39948H3.7333C3.59185 6.39948 3.4562 6.34329 3.35618 6.24327C3.25616 6.14325 3.19997 6.00759 3.19997 5.86615V3.73281Z" fill="#7D7D7D"/>
<path d="M7.46663 20.7994C7.89097 20.7994 8.29794 20.6308 8.598 20.3308C8.89806 20.0307 9.06663 19.6237 9.06663 19.1994V15.9994C9.06663 15.5751 8.89806 15.1681 8.598 14.868C8.29794 14.568 7.89097 14.3994 7.46663 14.3994H3.7333C3.30895 14.3994 2.90199 14.568 2.60193 14.868C2.30187 15.1681 2.1333 15.5751 2.1333 15.9994V19.1994C2.1333 19.6237 2.30187 20.0307 2.60193 20.3308C2.90199 20.6308 3.30895 20.7994 3.7333 20.7994H7.46663ZM3.19997 19.1994V15.9994C3.19997 15.858 3.25616 15.7223 3.35618 15.6223C3.4562 15.5223 3.59185 15.4661 3.7333 15.4661H7.46663C7.60808 15.4661 7.74373 15.5223 7.84375 15.6223C7.94377 15.7223 7.99996 15.858 7.99996 15.9994V19.1994C7.99996 19.3409 7.94377 19.4765 7.84375 19.5765C7.74373 19.6765 7.60808 19.7327 7.46663 19.7327H3.7333C3.59185 19.7327 3.4562 19.6765 3.35618 19.5765C3.25616 19.4765 3.19997 19.3409 3.19997 19.1994Z" fill="#7D7D7D"/>
<path d="M21.8668 15.4668C20.601 15.4668 19.3636 15.8422 18.3112 16.5454C17.2587 17.2486 16.4384 18.2482 15.954 19.4176C15.4696 20.5871 15.3428 21.8739 15.5898 23.1154C15.8367 24.3569 16.4463 25.4972 17.3413 26.3923C18.2364 27.2874 19.3767 27.8969 20.6182 28.1438C21.8597 28.3908 23.1465 28.264 24.316 27.7796C25.4854 27.2952 26.485 26.4749 27.1882 25.4225C27.8915 24.37 28.2668 23.1326 28.2668 21.8668C28.265 20.17 27.5901 18.5432 26.3903 17.3433C25.1904 16.1435 23.5636 15.4686 21.8668 15.4668ZM16.5335 21.8668C16.5329 21.1213 16.6887 20.3839 16.9909 19.7024C17.2931 19.0209 17.7349 18.4103 18.2879 17.9102C18.8408 17.4102 19.4925 17.0317 20.2008 16.7992C20.9092 16.5667 21.6584 16.4855 22.4001 16.5607V27.174C21.6583 27.2492 20.909 27.1679 20.2006 26.9354C19.4921 26.7029 18.8404 26.3243 18.2875 25.8241C17.7345 25.3239 17.2927 24.7132 16.9906 24.0315C16.6885 23.3499 16.5327 22.6124 16.5335 21.8668ZM23.4668 26.9543V16.7793C24.5493 17.1199 25.4949 17.7969 26.1662 18.7118C26.8375 19.6268 27.1995 20.732 27.1995 21.8668C27.1995 23.0016 26.8375 24.1068 26.1662 25.0218C25.4949 25.9367 24.5493 26.6137 23.4668 26.9543Z" fill="#7D7D7D"/>
<path d="M19.7335 9.06738H3.73353C3.59208 9.06738 3.45642 9.12357 3.35641 9.22359C3.25639 9.32361 3.2002 9.45927 3.2002 9.60072C3.2002 9.74217 3.25639 9.87782 3.35641 9.97784C3.45642 10.0779 3.59208 10.1341 3.73353 10.1341H19.7335C19.875 10.1341 20.0106 10.0779 20.1107 9.97784C20.2107 9.87782 20.2669 9.74217 20.2669 9.60072C20.2669 9.45927 20.2107 9.32361 20.1107 9.22359C20.0106 9.12357 19.875 9.06738 19.7335 9.06738Z" fill="#7D7D7D"/>
<path d="M18.1335 11.7334H3.73353C3.59208 11.7334 3.45642 11.7896 3.35641 11.8896C3.25639 11.9896 3.2002 12.1253 3.2002 12.2667C3.2002 12.4082 3.25639 12.5438 3.35641 12.6439C3.45642 12.7439 3.59208 12.8001 3.73353 12.8001H18.1335C18.275 12.8001 18.4106 12.7439 18.5107 12.6439C18.6107 12.5438 18.6669 12.4082 18.6669 12.2667C18.6669 12.1253 18.6107 11.9896 18.5107 11.8896C18.4106 11.7896 18.275 11.7334 18.1335 11.7334Z" fill="#7D7D7D"/>
</g>
<defs>
<clipPath id="clip0">
<rect width="32" height="32" fill="white"/>
</clipPath>
</defs>
</svg>
