<svg width="24" height="24" viewBox="0 0 24 24" fill="none" xmlns="http://www.w3.org/2000/svg">
<path d="M24 21.999V1.99902C23.9995 1.46875 23.7886 0.960347 23.4136 0.585388C23.0387 0.210429 22.5303 -0.000452701 22 -0.000976562H2C1.46973 -0.000452701 0.961324 0.210429 0.586365 0.585388C0.211406 0.960347 0.000523861 1.46875 0 1.99902V21.999C0.000523531 22.5293 0.211405 23.0377 0.586365 23.4127C0.961324 23.7876 1.46973 23.9985 2 23.999H22C22.5303 23.9985 23.0387 23.7876 23.4136 23.4127C23.7886 23.0377 23.9995 22.5293 24 21.999ZM10.5352 16.9502L6.29419 12.7073C6.10668 12.5193 6.00138 12.2646 6.00138 11.999C6.00138 11.7335 6.10668 11.4788 6.29419 11.2908L10.5352 7.04981C10.7227 6.86262 10.977 6.75756 11.242 6.7577C11.507 6.75784 11.7611 6.86318 11.9485 7.05056C12.1359 7.23795 12.2412 7.49206 12.2413 7.75706C12.2415 8.02207 12.1364 8.27629 11.9492 8.46387L9.41406 10.999H17C17.2652 10.999 17.5196 11.1044 17.7071 11.2919C17.8946 11.4795 18 11.7338 18 11.999C18 12.2642 17.8946 12.5186 17.7071 12.7061C17.5196 12.8937 17.2652 12.999 17 12.999H9.41345L11.9492 15.5361C12.1364 15.7237 12.2415 15.9779 12.2413 16.2429C12.2412 16.5079 12.1359 16.7621 11.9485 16.9494C11.7611 17.1368 11.507 17.2422 11.242 17.2423C10.977 17.2424 10.7227 17.1374 10.5352 16.9502V16.9502Z" fill="#36BADC"/>
</svg>
