<svg width="32" height="32" viewBox="0 0 32 32" fill="none" xmlns="http://www.w3.org/2000/svg">
<g clip-path="url(#clip0)">
<path d="M15.9999 27.7333C18.3206 27.7333 20.5891 27.0451 22.5186 25.7559C24.4482 24.4666 25.9521 22.6341 26.8401 20.4901C27.7282 18.3461 27.9605 15.9869 27.5078 13.7109C27.0551 11.4348 25.9376 9.34416 24.2967 7.70322C22.6557 6.06228 20.565 4.94479 18.289 4.49206C16.013 4.03933 13.6538 4.27169 11.5098 5.15975C9.3658 6.04782 7.5333 7.55171 6.24402 9.48125C4.95475 11.4108 4.2666 13.6793 4.2666 15.9999C4.27013 19.1107 5.50745 22.0931 7.70711 24.2928C9.90678 26.4924 12.8891 27.7297 15.9999 27.7333ZM15.9999 5.33327C18.1096 5.33327 20.1719 5.95886 21.926 7.13093C23.6801 8.303 25.0473 9.9689 25.8547 11.918C26.662 13.8671 26.8732 16.0118 26.4616 18.0809C26.0501 20.15 25.0342 22.0507 23.5424 23.5424C22.0506 25.0342 20.15 26.0501 18.0809 26.4617C16.0118 26.8732 13.8671 26.662 11.918 25.8547C9.9689 25.0473 8.30299 23.6801 7.13093 21.926C5.95886 20.1719 5.33327 18.1096 5.33327 15.9999C5.33651 13.172 6.46136 10.4607 8.46105 8.46105C10.4607 6.46137 13.172 5.33652 15.9999 5.33327Z" fill="#7D7D7D"/>
<path d="M0.960206 13.4358C0.716234 13.5335 0.503666 13.6962 0.345537 13.9061C0.187407 14.116 0.0897471 14.3653 0.06314 14.6267C-0.0203956 15.5398 -0.0203956 16.4587 0.06314 17.3718C0.0897501 17.6339 0.187759 17.8837 0.346495 18.094C0.505232 18.3042 0.718613 18.4669 0.963406 18.5643L2.50367 19.1798C2.84528 20.6339 3.42174 22.0227 4.21034 23.2913L3.55807 24.8177C3.4497 25.0598 3.41188 25.3276 3.44896 25.5903C3.48604 25.8529 3.59651 26.0998 3.76767 26.3025C4.35432 26.9998 4.9999 27.6454 5.69727 28.2321C5.89984 28.403 6.14648 28.5134 6.40891 28.5505C6.67134 28.5877 6.93893 28.5501 7.181 28.4422L8.70846 27.7899C9.97707 28.5785 11.3658 29.155 12.8199 29.4966L13.4365 31.0395C13.5343 31.2837 13.697 31.4964 13.907 31.6548C14.117 31.8132 14.3663 31.9112 14.6279 31.9382C15.0967 31.9798 15.5746 32.0001 16.0397 32.0001C16.5047 32.0001 16.9575 31.9798 17.373 31.9382C17.6349 31.911 17.8844 31.8127 18.0945 31.6539C18.3046 31.4951 18.4673 31.2819 18.565 31.0374L19.1805 29.4971C20.6346 29.1555 22.0233 28.5791 23.2919 27.7905L24.8183 28.4422C25.0604 28.5506 25.3282 28.5884 25.5909 28.5513C25.8536 28.5142 26.1004 28.4038 26.3031 28.2326C27.0004 27.6463 27.6459 27.0009 28.2322 26.3035C28.4034 26.101 28.514 25.8543 28.5513 25.5917C28.5886 25.3292 28.551 25.0614 28.4428 24.8193L27.7906 23.2918C28.5792 22.0232 29.1556 20.6345 29.4972 19.1803L31.0402 18.5633C31.2843 18.4654 31.4971 18.3027 31.6555 18.0927C31.8139 17.8827 31.9118 17.6334 31.9388 17.3718C32.0219 16.4578 32.0219 15.5381 31.9388 14.6241C31.9113 14.3626 31.8129 14.1137 31.6542 13.9041C31.4956 13.6945 31.2827 13.5322 31.0386 13.4347L29.4983 12.8193C29.1567 11.3651 28.5802 9.9764 27.7916 8.70779L28.4434 7.18139C28.5516 6.93922 28.5893 6.67146 28.5522 6.40883C28.5151 6.1462 28.4048 5.89935 28.2338 5.69659C27.6473 4.9994 27.0019 4.35399 26.3047 3.76752C26.1024 3.59597 25.8558 3.48495 25.5933 3.44721C25.3307 3.40948 25.0629 3.44655 24.8204 3.55419L23.2919 4.20912C22.0233 3.42052 20.6346 2.84407 19.1805 2.50246L18.5639 0.959523C18.4662 0.715551 18.3035 0.502983 18.0936 0.344853C17.8837 0.186724 17.6345 0.0890635 17.373 0.0624564C16.4599 -0.0208188 15.5411 -0.0208188 14.6279 0.0624564C14.3658 0.0890665 14.116 0.187075 13.9058 0.345812C13.6955 0.504549 13.5328 0.71793 13.4354 0.962723L12.8199 2.50299C11.3658 2.8446 9.97707 3.42106 8.70846 4.20966L7.18207 3.55739C6.93974 3.44936 6.67189 3.41177 6.40919 3.44894C6.1465 3.4861 5.89958 3.59651 5.69673 3.76752C4.99967 4.35413 4.35427 4.99952 3.76767 5.69659C3.59674 5.89916 3.48637 6.1458 3.4492 6.40823C3.41203 6.67066 3.44958 6.93826 3.55754 7.18032L4.2098 8.70779C3.4212 9.9764 2.84475 11.3651 2.50314 12.8193L0.960206 13.4358ZM3.4834 13.3217C3.80757 11.8001 4.40847 10.3509 5.2562 9.04646C5.30383 8.97309 5.33268 8.88913 5.34022 8.80198C5.34775 8.71484 5.33373 8.62718 5.2994 8.54672L4.53834 6.76059C4.50927 6.69981 4.49814 6.63199 4.50627 6.56511C4.51439 6.49823 4.54143 6.43505 4.5842 6.38299C5.1335 5.73057 5.73786 5.12657 6.3906 4.57766C6.44265 4.53628 6.50541 4.5106 6.57153 4.50361C6.63764 4.49662 6.70439 4.50862 6.76393 4.53819L8.549 5.29979C8.62939 5.3344 8.7171 5.34857 8.8043 5.34103C8.8915 5.33349 8.97547 5.30448 9.04873 5.25659C10.3532 4.40886 11.8023 3.80795 13.3239 3.48379C13.4096 3.46551 13.4894 3.42642 13.5564 3.36996C13.6234 3.31349 13.6754 3.2414 13.7079 3.16006L14.4269 1.36059C14.4512 1.29752 14.4921 1.24224 14.5454 1.20063C14.5986 1.15902 14.6622 1.13265 14.7293 1.12432C15.5778 1.04693 16.4316 1.04693 17.2802 1.12432C17.3457 1.13357 17.4076 1.16008 17.4595 1.20113C17.5115 1.24218 17.5515 1.29629 17.5757 1.35792L18.2935 3.16006C18.326 3.2414 18.3781 3.31349 18.445 3.36996C18.512 3.42642 18.5919 3.46551 18.6775 3.48379C20.1991 3.80795 21.6482 4.40886 22.9527 5.25659C23.0261 5.30422 23.11 5.33307 23.1972 5.34061C23.2843 5.34814 23.372 5.33412 23.4525 5.29979L25.2386 4.53766C25.2994 4.50865 25.3672 4.49757 25.4341 4.50569C25.5009 4.51381 25.5641 4.54081 25.6162 4.58352C26.2687 5.13269 26.8727 5.73705 27.4215 6.38992C27.4627 6.44209 27.4882 6.50483 27.4952 6.57089C27.5022 6.63695 27.4903 6.70365 27.461 6.76326L26.6994 8.54832C26.6651 8.62878 26.651 8.71644 26.6586 8.80359C26.6661 8.89073 26.695 8.97469 26.7426 9.04806C27.5903 10.3525 28.1912 11.8017 28.5154 13.3233C28.5337 13.4089 28.5728 13.4888 28.6292 13.5557C28.6857 13.6227 28.7578 13.6748 28.8391 13.7073L30.6386 14.4262C30.7009 14.4501 30.7557 14.4902 30.7973 14.5425C30.8388 14.5947 30.8656 14.6571 30.8748 14.7233V14.7286C30.9517 15.577 30.9517 16.4306 30.8748 17.279C30.8656 17.3447 30.8391 17.4067 30.7979 17.4588C30.7568 17.5108 30.7025 17.5509 30.6407 17.575L28.8396 18.2929C28.7583 18.3254 28.6862 18.3774 28.6297 18.4444C28.5733 18.5113 28.5342 18.5912 28.5159 18.6769C28.1917 20.1985 27.5908 21.6476 26.7431 22.9521C26.6955 23.0254 26.6666 23.1094 26.6591 23.1965C26.6516 23.2837 26.6656 23.3713 26.6999 23.4518L27.462 25.2379C27.4913 25.2987 27.5025 25.3666 27.4943 25.4335C27.486 25.5005 27.4587 25.5636 27.4156 25.6155C26.8667 26.2684 26.2623 26.8726 25.6092 27.4214C25.5573 27.463 25.4945 27.4888 25.4283 27.4957C25.3621 27.5026 25.2953 27.4903 25.2359 27.4603L23.4509 26.6987C23.3704 26.6644 23.2827 26.6504 23.1956 26.6579C23.1084 26.6654 23.0245 26.6943 22.9511 26.7419C21.6466 27.5897 20.1975 28.1906 18.6759 28.5147C18.5903 28.533 18.5104 28.5721 18.4434 28.6286C18.3765 28.685 18.3244 28.7571 18.2919 28.8385L17.573 30.6379C17.5488 30.7011 17.5078 30.7565 17.4546 30.7982C17.4013 30.8399 17.3377 30.8664 17.2706 30.8747C16.4222 30.9516 15.5686 30.9516 14.7202 30.8747C14.6545 30.8655 14.5925 30.839 14.5404 30.7978C14.4884 30.7567 14.4483 30.7024 14.4242 30.6406L13.7069 28.839C13.6744 28.7576 13.6223 28.6856 13.5554 28.6291C13.4884 28.5726 13.4085 28.5335 13.3229 28.5153C11.8013 28.1911 10.3522 27.5902 9.04766 26.7425C8.97441 26.6946 8.89043 26.6656 8.80323 26.658C8.71603 26.6505 8.62832 26.6646 8.54793 26.6993L6.7618 27.4614C6.70099 27.4903 6.6332 27.5014 6.56634 27.4933C6.49949 27.4851 6.43632 27.4582 6.3842 27.4155C5.73148 26.8662 5.12729 26.2616 4.57834 25.6086C4.53717 25.5564 4.51165 25.4937 4.50476 25.4276C4.49787 25.3615 4.50988 25.2948 4.5394 25.2353L5.301 23.4502C5.33533 23.3697 5.34935 23.2821 5.34182 23.1949C5.33428 23.1078 5.30543 23.0238 5.2578 22.9505C4.41007 21.646 3.80917 20.1969 3.485 18.6753C3.46673 18.5896 3.42763 18.5097 3.37117 18.4428C3.31471 18.3758 3.24262 18.3238 3.16127 18.2913L1.36127 17.5745C1.29821 17.5502 1.24292 17.5092 1.20131 17.4559C1.1597 17.4027 1.13333 17.3391 1.12501 17.2721C1.04735 16.4235 1.04735 15.5697 1.12501 14.7211C1.13426 14.6556 1.16077 14.5937 1.20181 14.5418C1.24286 14.4899 1.29697 14.4498 1.35861 14.4257L3.16074 13.7062C3.24215 13.6736 3.31428 13.6215 3.37075 13.5545C3.42721 13.4874 3.46627 13.4074 3.48447 13.3217H3.4834Z" fill="#7D7D7D"/>
<path d="M12.3789 15.9371L12.9741 16.5334L9.6978 19.8097C9.29835 20.2097 9.07399 20.7519 9.07399 21.3171C9.07399 21.8824 9.29835 22.4246 9.6978 22.8246C10.101 23.2181 10.6421 23.4383 11.2055 23.4383C11.7689 23.4383 12.31 23.2181 12.7133 22.8246L15.9895 19.5489L19.2647 22.8241C19.4654 23.0257 19.7042 23.1851 19.9674 23.293C20.2305 23.4009 20.5126 23.4552 20.7969 23.4525C21.0813 23.4498 21.3623 23.3903 21.6234 23.2775C21.8844 23.1646 22.1203 23.0007 22.3171 22.7954C22.5138 22.5901 22.6676 22.3475 22.7693 22.0819C22.8709 21.8163 22.9185 21.533 22.9091 21.2488C22.8997 20.9645 22.8335 20.685 22.7145 20.4267C22.5956 20.1684 22.4261 19.9365 22.2162 19.7446L18.6311 16.1601L20.7111 14.0769L21.7911 13.5393C22.1288 13.3676 22.3953 13.0828 22.5442 12.7345L23.3831 10.7841C23.4653 10.5889 23.4875 10.3738 23.4469 10.1659C23.4064 9.95813 23.3049 9.76709 23.1554 9.61715L22.9111 9.36808C22.7604 9.21766 22.5681 9.11578 22.359 9.07558C22.1499 9.03537 21.9336 9.05867 21.7378 9.14248L19.7794 9.97341C19.4345 10.1259 19.1533 10.3937 18.9842 10.7307L18.4466 11.8102L16.3666 13.8939L15.3927 12.9206C15.4972 12.3378 15.4615 11.7384 15.2884 11.1722C15.1154 10.6059 14.81 10.089 14.3975 9.66412C13.9851 9.23926 13.4774 8.91871 12.9165 8.72895C12.3556 8.5392 11.7576 8.4857 11.1719 8.57288C10.9805 8.60177 10.8008 8.68351 10.6533 8.80892C10.5057 8.93433 10.3961 9.09843 10.3367 9.28275C10.2732 9.47243 10.2639 9.67608 10.3099 9.87075C10.3559 10.0654 10.4553 10.2434 10.597 10.3846L12.0957 11.8865L11.3415 12.6401L9.84287 11.1414C9.70082 10.9981 9.52117 10.8978 9.32462 10.8522C9.12807 10.8065 8.92262 10.8173 8.73193 10.8833C8.54891 10.943 8.38629 11.0528 8.26251 11.2002C8.13874 11.3476 8.05876 11.5268 8.03166 11.7174C7.94472 12.303 7.99838 12.9008 8.18819 13.4615C8.378 14.0222 8.69852 14.5297 9.12327 14.9421C9.54801 15.3544 10.0648 15.6598 10.6309 15.8329C11.197 16.006 11.7961 16.0419 12.3789 15.9377V15.9371ZM11.9586 22.0705C11.7559 22.2648 11.486 22.3733 11.2053 22.3733C10.9245 22.3733 10.6546 22.2648 10.4519 22.0705C10.2525 21.8705 10.1404 21.5996 10.1404 21.3171C10.1404 21.0347 10.2525 20.7638 10.4519 20.5638L13.7282 17.2875L15.2354 18.7947L11.9586 22.0705ZM19.2653 12.5035C19.3059 12.463 19.3398 12.4162 19.3655 12.3649L19.941 11.2086C19.9984 11.0959 20.0925 11.006 20.2077 10.9537L22.1559 10.1163L22.4045 10.3643L21.5677 12.311C21.5191 12.428 21.4309 12.5243 21.3186 12.583L20.1613 13.159C20.1094 13.1848 20.062 13.2189 20.021 13.2598L17.8807 15.4043L17.1202 14.6491L19.2653 12.5035ZM9.08873 11.8934L10.5879 13.3926C10.7886 13.5925 11.0602 13.7047 11.3434 13.7047C11.6266 13.7047 11.8982 13.5925 12.0989 13.3926L12.8535 12.6401C13.0513 12.4382 13.162 12.1669 13.162 11.8843C13.162 11.6018 13.0513 11.3305 12.8535 11.1286L11.3335 9.62781C11.7704 9.56263 12.2166 9.60718 12.632 9.75746C13.0474 9.90774 13.4188 10.159 13.7128 10.4887C14.0069 10.8183 14.2142 11.2159 14.3163 11.6457C14.4183 12.0755 14.4118 12.5239 14.2973 12.9505C14.2728 13.0411 14.2728 13.1365 14.297 13.2272C14.3213 13.3178 14.369 13.4005 14.4354 13.4667L21.4647 20.4961C21.6718 20.6911 21.7977 20.9571 21.8175 21.2408C21.8373 21.5246 21.7494 21.8054 21.5714 22.0273C21.473 22.1323 21.3547 22.2167 21.2234 22.2757C21.092 22.3346 20.9503 22.3669 20.8064 22.3706C20.6626 22.3743 20.5194 22.3494 20.3852 22.2973C20.251 22.2453 20.1285 22.1671 20.0247 22.0673L12.9314 14.9739C12.8647 14.9083 12.7821 14.8611 12.6918 14.8369C12.6014 14.8127 12.5062 14.8123 12.4157 14.8358C11.9635 14.9562 11.4877 14.9555 11.0359 14.8338C10.5841 14.7121 10.1723 14.4737 9.8418 14.1425C9.54889 13.8528 9.32813 13.4983 9.19733 13.1077C9.06652 12.717 9.02932 12.3011 9.08873 11.8934Z" fill="#7D7D7D"/>
</g>
<defs>
<clipPath id="clip0">
<rect width="32" height="32" fill="white"/>
</clipPath>
</defs>
</svg>
