<svg width="32" height="32" viewBox="0 0 32 32" fill="none" xmlns="http://www.w3.org/2000/svg">
<path d="M15.9998 22.3999C17.793 22.3999 19.5459 21.8682 21.0369 20.8719C22.5279 19.8757 23.69 18.4597 24.3763 16.8029C25.0625 15.1462 25.2421 13.3232 24.8922 11.5645C24.5424 9.80569 23.6789 8.19017 22.4109 6.92217C21.1429 5.65417 19.5274 4.79066 17.7686 4.44082C16.0098 4.09098 14.1868 4.27053 12.5301 4.95676C10.8734 5.643 9.45737 6.8051 8.46111 8.2961C7.46486 9.78711 6.93311 11.5401 6.93311 13.3333C6.93579 15.7371 7.89188 18.0417 9.59163 19.7414C11.2914 21.4412 13.596 22.3973 15.9998 22.3999ZM15.9998 5.33327C17.582 5.33327 19.1287 5.80246 20.4443 6.68152C21.7599 7.56057 22.7853 8.81 23.3908 10.2718C23.9963 11.7336 24.1547 13.3421 23.8461 14.894C23.5374 16.4458 22.7754 17.8713 21.6566 18.9901C20.5378 20.1089 19.1123 20.8709 17.5605 21.1796C16.0086 21.4882 14.4001 21.3298 12.9383 20.7243C11.4765 20.1188 10.2271 19.0934 9.34802 17.7778C8.46896 16.4622 7.99977 14.9155 7.99977 13.3333C8.00217 11.2123 8.8458 9.17884 10.3456 7.67907C11.8453 6.1793 13.8788 5.33567 15.9998 5.33327Z" fill="#7D7D7D"/>
<path d="M3.5202 11.1257C3.30265 11.2131 3.11313 11.3584 2.97213 11.5457C2.83113 11.7331 2.74402 11.9554 2.7202 12.1886C2.65056 12.9499 2.65056 13.7159 2.7202 14.4772C2.74404 14.7105 2.83115 14.9328 2.97214 15.1203C3.11313 15.3077 3.30264 15.453 3.5202 15.5406L4.75007 16.0318C5.03242 17.2125 5.50047 18.3409 6.13673 19.3748L5.61673 20.594C5.52015 20.8102 5.48663 21.0494 5.52004 21.2838C5.55344 21.5183 5.65241 21.7386 5.80553 21.9193C6.29352 22.4997 6.83061 23.037 7.41087 23.5252C7.53206 23.6246 7.67132 23.6998 7.821 23.7465L5.92073 29.0334C5.85406 29.2202 5.84426 29.4225 5.89258 29.6149C5.9409 29.8072 6.04517 29.9809 6.1922 30.114C6.34324 30.2528 6.53179 30.3441 6.73436 30.3766C6.93693 30.409 7.14457 30.3811 7.3314 30.2964L9.54313 29.226L10.6247 31.426C10.7083 31.5981 10.8386 31.7432 11.0009 31.8446C11.1632 31.946 11.3507 31.9996 11.5421 31.9993H11.5901C11.7933 31.9896 11.9892 31.9203 12.1532 31.7999C12.3172 31.6795 12.4421 31.5135 12.5122 31.3225L14.2882 26.4052C14.457 26.5212 14.652 26.5932 14.8557 26.6148C15.2455 26.6494 15.6439 26.6681 16.0317 26.6681C16.4194 26.6681 16.797 26.6505 17.1447 26.6148C17.3484 26.5932 17.5434 26.5212 17.7122 26.4052L19.4903 31.3289C19.5612 31.5185 19.6861 31.6831 19.8497 31.8022C20.0132 31.9214 20.2082 31.9899 20.4103 31.9993H20.4583C20.6491 31.9999 20.8362 31.9468 20.9983 31.8461C21.1603 31.7453 21.2907 31.6011 21.3746 31.4297L22.4215 29.2564L24.6738 30.2996C24.8601 30.3823 25.0665 30.4089 25.2677 30.3759C25.4688 30.3429 25.656 30.2519 25.8061 30.114C25.9535 29.9804 26.0579 29.8059 26.1059 29.6129C26.154 29.4198 26.1435 29.2168 26.0759 29.0297L24.1773 23.746C24.327 23.6993 24.4664 23.6243 24.5879 23.5252C25.1678 23.0369 25.7047 22.4998 26.1927 21.9198C26.3455 21.7391 26.4444 21.519 26.478 21.2847C26.5115 21.0504 26.4785 20.8114 26.3826 20.595L25.8615 19.3748C26.4981 18.341 26.9661 17.2126 27.2482 16.0318L28.4813 15.5396C28.6986 15.452 28.888 15.3067 29.0289 15.1195C29.1699 14.9323 29.2571 14.7102 29.2813 14.4772C29.351 13.7143 29.351 12.9467 29.2813 12.1838C29.2567 11.9511 29.1693 11.7293 29.0284 11.5425C28.8875 11.3556 28.6983 11.2106 28.4813 11.123L27.2509 10.6318C26.9688 9.45105 26.5007 8.32264 25.8642 7.28889L26.3853 6.06862C26.4805 5.85229 26.5129 5.61354 26.4789 5.37965C26.4448 5.14575 26.3457 4.92616 26.1927 4.74595C25.7044 4.16548 25.1672 3.62804 24.5869 3.13955C24.406 2.98689 24.1859 2.88818 23.9516 2.8547C23.7174 2.82122 23.4784 2.85432 23.2621 2.95022L22.0418 3.47129C21.0082 2.83477 19.88 2.3667 18.6994 2.08462L18.2071 0.852621C18.1195 0.635198 17.9742 0.445804 17.7869 0.304835C17.5996 0.163866 17.3774 0.0766646 17.1442 0.0526209C16.3829 -0.0162382 15.617 -0.0162382 14.8557 0.0526209C14.6224 0.0766858 14.4002 0.163889 14.2128 0.304849C14.0254 0.445809 13.88 0.63519 13.7922 0.852621L13.301 2.08462C12.1202 2.3667 10.9918 2.83477 9.95807 3.47129L8.73834 2.95022C8.52201 2.8542 8.28302 2.82103 8.04873 2.85451C7.81443 2.888 7.5943 2.98678 7.41353 3.13955C6.83308 3.62788 6.2958 4.16534 5.80767 4.74595C5.65467 4.9266 5.55574 5.14674 5.52225 5.38109C5.48875 5.61544 5.52206 5.85449 5.61833 6.07075L6.13887 7.29102C5.5026 8.3249 5.03455 9.45327 4.7522 10.634L3.5202 11.1257ZM11.5405 30.8724L10.5005 28.7577C10.3789 28.5159 10.1674 28.3313 9.91137 28.2437C9.65531 28.156 9.3751 28.1723 9.13087 28.2889L6.957 29.3108L9.0098 23.5988L9.95807 23.194C10.9918 23.8305 12.1202 24.2985 13.301 24.5806L13.5677 25.2532L11.5405 30.8724ZM22.8722 28.29C22.6278 28.1734 22.3476 28.157 22.0913 28.244C21.835 28.3311 21.6228 28.5148 21.4999 28.7561L20.4599 30.8724L18.4333 25.2532L18.6999 24.5806C19.8805 24.2985 21.0088 23.8305 22.0423 23.194L22.9906 23.5988L25.0365 29.2921L22.8722 28.29ZM5.73247 11.1358C5.99812 9.88747 6.49112 8.69862 7.18687 7.62862C7.2345 7.55525 7.26335 7.4713 7.27088 7.38415C7.27842 7.297 7.2644 7.20934 7.23007 7.12889L6.59913 5.65262C6.58215 5.61776 6.57543 5.57879 6.57978 5.54026C6.58412 5.50172 6.59935 5.46522 6.62367 5.43502C7.07429 4.89788 7.57054 4.40074 8.10687 3.94915C8.13732 3.92677 8.17338 3.91328 8.21104 3.91017C8.24871 3.90706 8.28649 3.91447 8.3202 3.93155L9.79753 4.56249C9.87799 4.59682 9.96565 4.61084 10.0528 4.6033C10.1399 4.59577 10.2239 4.56692 10.2973 4.51929C11.367 3.82301 12.5559 3.32996 13.8045 3.06489C13.8902 3.04669 13.9702 3.00763 14.0373 2.95116C14.1043 2.8947 14.1565 2.82257 14.189 2.74115L14.7821 1.25262C14.796 1.21593 14.8196 1.18365 14.8502 1.15917C14.8809 1.13468 14.9176 1.11888 14.9565 1.11342C15.6528 1.04964 16.3535 1.04964 17.0498 1.11342C17.0872 1.11947 17.1223 1.13522 17.1517 1.15908C17.1811 1.18294 17.2037 1.21409 17.2173 1.24942L17.813 2.74275C17.8455 2.82417 17.8977 2.8963 17.9647 2.95276C18.0318 3.00923 18.1118 3.04829 18.1975 3.06649C19.4467 3.33087 20.6364 3.82337 21.7069 4.51929C21.7802 4.56692 21.8642 4.59577 21.9513 4.6033C22.0385 4.61084 22.1262 4.59682 22.2066 4.56249L23.6802 3.93155C23.7152 3.91447 23.7543 3.90765 23.793 3.9119C23.8317 3.91615 23.8684 3.93128 23.8989 3.95555C24.4354 4.40669 24.9321 4.9031 25.3837 5.43929C25.4059 5.46979 25.4194 5.50584 25.4225 5.54348C25.4256 5.58112 25.4182 5.61888 25.4013 5.65262L24.7703 7.12995C24.736 7.21041 24.722 7.29807 24.7295 7.38522C24.7371 7.47236 24.7659 7.55632 24.8135 7.62969C25.5098 8.69941 26.0029 9.88835 26.2679 11.1369C26.2861 11.2227 26.3252 11.3026 26.3817 11.3697C26.4381 11.4368 26.5103 11.4889 26.5917 11.5214L28.0802 12.1156C28.1161 12.129 28.1478 12.1516 28.1721 12.1812C28.1965 12.2108 28.2126 12.2463 28.2189 12.2841V12.29C28.2821 12.9863 28.2821 13.6869 28.2189 14.3833C28.2128 14.4207 28.1971 14.4558 28.1732 14.4852C28.1493 14.5145 28.1182 14.5372 28.0829 14.5508L26.5895 15.146C26.5081 15.1785 26.436 15.2306 26.3795 15.2977C26.3231 15.3648 26.284 15.4447 26.2658 15.5305C26.0016 16.7794 25.5092 17.9689 24.8135 19.0393C24.7659 19.1127 24.7371 19.1966 24.7295 19.2838C24.722 19.3709 24.736 19.4586 24.7703 19.539L25.4013 21.0164C25.4183 21.0515 25.425 21.0907 25.4206 21.1295C25.4163 21.1683 25.4011 21.2051 25.3767 21.2356C24.9258 21.7714 24.4295 22.2675 23.8935 22.7182C23.8631 22.7406 23.8271 22.7541 23.7894 22.7573C23.7518 22.7605 23.714 22.7532 23.6802 22.7364L22.2029 22.1054C22.1224 22.0711 22.0348 22.0571 21.9476 22.0646C21.8605 22.0721 21.7765 22.101 21.7031 22.1486C20.6336 22.8448 19.4448 23.3378 18.1965 23.603C18.1107 23.6212 18.0307 23.6603 17.9637 23.7167C17.8966 23.7732 17.8445 23.8453 17.8119 23.9268L17.2183 25.4126C17.2044 25.4492 17.181 25.4815 17.1504 25.506C17.1198 25.5304 17.0832 25.5463 17.0445 25.5518C16.3479 25.6151 15.6471 25.6151 14.9506 25.5518C14.9132 25.5458 14.8781 25.53 14.8487 25.5062C14.8193 25.4823 14.7967 25.4512 14.7831 25.4158L14.1879 23.9225C14.1554 23.8411 14.1033 23.7689 14.0362 23.7125C13.9691 23.656 13.8892 23.617 13.8034 23.5988C12.5549 23.3337 11.3659 22.8406 10.2962 22.1444C10.2098 22.0883 10.109 22.0585 10.0061 22.0585C9.93406 22.0586 9.8628 22.0731 9.79647 22.1012L8.3202 22.7337C8.28517 22.7506 8.24609 22.7573 8.20743 22.7531C8.16876 22.7488 8.13207 22.7338 8.10153 22.7097C7.56501 22.2586 7.06825 21.7622 6.61673 21.226C6.59444 21.1955 6.58104 21.1594 6.57803 21.1217C6.57501 21.084 6.5825 21.0463 6.59967 21.0126L7.23007 19.5353C7.2644 19.4548 7.27842 19.3672 7.27088 19.28C7.26335 19.1929 7.2345 19.1089 7.18687 19.0356C6.49112 17.9656 5.99812 16.7767 5.73247 15.5284C5.71427 15.4426 5.67521 15.3626 5.61874 15.2956C5.56228 15.2285 5.49015 15.1764 5.40873 15.1438L3.9202 14.5508C3.88351 14.5368 3.85123 14.5133 3.82675 14.4826C3.80226 14.4519 3.78646 14.4152 3.781 14.3764C3.71777 13.68 3.71777 12.9794 3.781 12.283C3.78705 12.2456 3.80286 12.2104 3.82682 12.181C3.85079 12.1516 3.88208 12.129 3.91753 12.1156L5.41087 11.5204C5.49188 11.4875 5.56358 11.4353 5.61966 11.3682C5.67574 11.3012 5.71448 11.2214 5.73247 11.1358Z" fill="#7D7D7D"/>
<path d="M12.5969 14.3521L12.1702 16.8534C12.1435 17.01 12.1512 17.1706 12.1928 17.324C12.2344 17.4774 12.3088 17.6198 12.411 17.7416C12.5131 17.8633 12.6405 17.9613 12.7843 18.0289C12.9281 18.0965 13.0849 18.132 13.2438 18.1329C13.4217 18.1325 13.5969 18.089 13.7542 18.0059L16.0001 16.8251L18.246 18.0059C18.4265 18.1009 18.63 18.1435 18.8335 18.1288C19.0369 18.1142 19.2322 18.0429 19.3973 17.923C19.5624 17.8032 19.6906 17.6395 19.7676 17.4506C19.8445 17.2617 19.867 17.055 19.8326 16.8539L19.406 14.3521L21.2236 12.5809C21.3704 12.4386 21.4744 12.258 21.5236 12.0596C21.5729 11.8612 21.5656 11.6529 21.5024 11.4584C21.4393 11.264 21.3228 11.0912 21.1663 10.9596C21.0098 10.8281 20.8196 10.743 20.6172 10.7142L18.1062 10.3489L16.983 8.07367C16.8929 7.89065 16.7532 7.73653 16.58 7.62876C16.4068 7.52099 16.2068 7.46387 16.0028 7.46387C15.7987 7.46387 15.5988 7.52099 15.4255 7.62876C15.2523 7.73653 15.1127 7.89065 15.0225 8.07367L13.8993 10.3489L11.3878 10.7142C11.1856 10.7433 10.9955 10.8285 10.8393 10.9601C10.683 11.0917 10.5667 11.2645 10.5036 11.4589C10.4405 11.6532 10.4332 11.8613 10.4824 12.0597C10.5316 12.258 10.6354 12.4385 10.782 12.5809L12.5969 14.3521ZM14.327 11.3654C14.4126 11.353 14.4939 11.3199 14.5638 11.2691C14.6338 11.2183 14.6904 11.1512 14.7286 11.0737L16.0001 8.53287C16.0052 8.53208 16.0103 8.53309 16.0147 8.53572C16.0191 8.53836 16.0224 8.54244 16.0241 8.54727L17.2716 11.0747C17.3098 11.1523 17.3664 11.2193 17.4364 11.2702C17.5063 11.321 17.5876 11.354 17.6732 11.3665L20.4764 11.8171L18.4577 13.7846C18.3959 13.8449 18.3497 13.9193 18.3231 14.0015C18.2964 14.0836 18.2901 14.171 18.3046 14.2561L18.743 17.0619L16.2486 15.7505C16.172 15.7101 16.0867 15.689 16.0001 15.689C15.9135 15.689 15.8282 15.7101 15.7516 15.7505L13.2188 17.0337L13.6956 14.2561C13.7101 14.171 13.7038 14.0836 13.6771 14.0015C13.6505 13.9193 13.6043 13.8449 13.5425 13.7846L11.5388 11.7713L14.327 11.3654Z" fill="#7D7D7D"/>
</svg>
