<svg width="32" height="32" viewBox="0 0 32 32" fill="none" xmlns="http://www.w3.org/2000/svg">
<g clip-path="url(#clip0)">
<path d="M30.9333 28.8H28.2667V9.06667C28.2667 8.64232 28.0981 8.23535 27.798 7.9353C27.498 7.63524 27.091 7.46667 26.6667 7.46667H23.4667V1.6C23.4667 1.17565 23.2981 0.768687 22.998 0.468629C22.698 0.168571 22.291 0 21.8667 0L10.1333 0C9.70899 0 9.30202 0.168571 9.00196 0.468629C8.7019 0.768687 8.53333 1.17565 8.53333 1.6V7.46667H5.33333C4.90899 7.46667 4.50202 7.63524 4.20196 7.9353C3.9019 8.23535 3.73333 8.64232 3.73333 9.06667V28.8H1.06667C0.783769 28.8 0.512458 28.9124 0.312419 29.1124C0.112381 29.3125 0 29.5838 0 29.8667L0 30.9333C0 31.2162 0.112381 31.4875 0.312419 31.6876C0.512458 31.8876 0.783769 32 1.06667 32H30.9333C31.2162 32 31.4875 31.8876 31.6876 31.6876C31.8876 31.4875 32 31.2162 32 30.9333V29.8667C32 29.5838 31.8876 29.3125 31.6876 29.1124C31.4875 28.9124 31.2162 28.8 30.9333 28.8ZM9.6 1.6C9.6 1.45855 9.65619 1.3229 9.75621 1.22288C9.85623 1.12286 9.99189 1.06667 10.1333 1.06667H21.8667C22.0081 1.06667 22.1438 1.12286 22.2438 1.22288C22.3438 1.3229 22.4 1.45855 22.4 1.6V7.46667H9.6V1.6ZM4.8 9.06667C4.8 8.92522 4.85619 8.78956 4.95621 8.68954C5.05623 8.58952 5.19188 8.53333 5.33333 8.53333H26.6667C26.8081 8.53333 26.9438 8.58952 27.0438 8.68954C27.1438 8.78956 27.2 8.92522 27.2 9.06667V28.8H25.6V23.4667C25.6 23.1838 25.4876 22.9125 25.2876 22.7124C25.0875 22.5124 24.8162 22.4 24.5333 22.4H21.3333C21.0504 22.4 20.7791 22.5124 20.5791 22.7124C20.379 22.9125 20.2667 23.1838 20.2667 23.4667V28.8H4.8V9.06667ZM24.5333 28.8H21.3333V23.4667H24.5333V28.8ZM30.9333 30.9333H1.06667V29.8667H30.9333V30.9333Z" fill="url(#paint0_linear)"/>
<path d="M13.8665 2.13281H11.7332C11.4503 2.13281 11.179 2.24519 10.9789 2.44523C10.7789 2.64527 10.6665 2.91658 10.6665 3.19948V5.33281C10.6665 5.61571 10.7789 5.88702 10.9789 6.08706C11.179 6.2871 11.4503 6.39948 11.7332 6.39948H13.8665C14.1494 6.39948 14.4207 6.2871 14.6208 6.08706C14.8208 5.88702 14.9332 5.61571 14.9332 5.33281V3.19948C14.9332 2.91658 14.8208 2.64527 14.6208 2.44523C14.4207 2.24519 14.1494 2.13281 13.8665 2.13281ZM11.7332 5.33281V3.19948H13.8665V5.33281H11.7332Z" fill="url(#paint1_linear)"/>
<path d="M20.2669 2.13281H18.1336C17.8507 2.13281 17.5794 2.24519 17.3793 2.44523C17.1793 2.64527 17.0669 2.91658 17.0669 3.19948V5.33281C17.0669 5.61571 17.1793 5.88702 17.3793 6.08706C17.5794 6.2871 17.8507 6.39948 18.1336 6.39948H20.2669C20.5498 6.39948 20.8211 6.2871 21.0211 6.08706C21.2212 5.88702 21.3336 5.61571 21.3336 5.33281V3.19948C21.3336 2.91658 21.2212 2.64527 21.0211 2.44523C20.8211 2.24519 20.5498 2.13281 20.2669 2.13281ZM18.1336 5.33281V3.19948H20.2669V5.33281H18.1336Z" fill="url(#paint2_linear)"/>
<path d="M10.6668 10.666H8.53346C8.25056 10.666 7.97925 10.7784 7.77922 10.9784C7.57918 11.1785 7.4668 11.4498 7.4668 11.7327V13.866C7.4668 14.1489 7.57918 14.4202 7.77922 14.6203C7.97925 14.8203 8.25056 14.9327 8.53346 14.9327H10.6668C10.9497 14.9327 11.221 14.8203 11.421 14.6203C11.6211 14.4202 11.7335 14.1489 11.7335 13.866V11.7327C11.7335 11.4498 11.6211 11.1785 11.421 10.9784C11.221 10.7784 10.9497 10.666 10.6668 10.666ZM8.53346 13.866V11.7327H10.6668V13.866H8.53346Z" fill="url(#paint3_linear)"/>
<path d="M17.0667 10.666H14.9334C14.6505 10.666 14.3792 10.7784 14.1791 10.9784C13.9791 11.1785 13.8667 11.4498 13.8667 11.7327V13.866C13.8667 14.1489 13.9791 14.4202 14.1791 14.6203C14.3792 14.8203 14.6505 14.9327 14.9334 14.9327H17.0667C17.3496 14.9327 17.6209 14.8203 17.821 14.6203C18.021 14.4202 18.1334 14.1489 18.1334 13.866V11.7327C18.1334 11.4498 18.021 11.1785 17.821 10.9784C17.6209 10.7784 17.3496 10.666 17.0667 10.666ZM14.9334 13.866V11.7327H17.0667V13.866H14.9334Z" fill="url(#paint4_linear)"/>
<path d="M21.8665 14.9327H23.9998C24.2827 14.9327 24.554 14.8203 24.7541 14.6203C24.9541 14.4202 25.0665 14.1489 25.0665 13.866V11.7327C25.0665 11.4498 24.9541 11.1785 24.7541 10.9784C24.554 10.7784 24.2827 10.666 23.9998 10.666H21.8665C21.5836 10.666 21.3123 10.7784 21.1122 10.9784C20.9122 11.1785 20.7998 11.4498 20.7998 11.7327V13.866C20.7998 14.1489 20.9122 14.4202 21.1122 14.6203C21.3123 14.8203 21.5836 14.9327 21.8665 14.9327ZM21.8665 11.7327H23.9998V13.866H21.8665V11.7327Z" fill="url(#paint5_linear)"/>
<path d="M10.6668 16.5332H8.53346C8.25056 16.5332 7.97925 16.6456 7.77922 16.8456C7.57918 17.0457 7.4668 17.317 7.4668 17.5999V19.7332C7.4668 20.0161 7.57918 20.2874 7.77922 20.4875C7.97925 20.6875 8.25056 20.7999 8.53346 20.7999H10.6668C10.9497 20.7999 11.221 20.6875 11.421 20.4875C11.6211 20.2874 11.7335 20.0161 11.7335 19.7332V17.5999C11.7335 17.317 11.6211 17.0457 11.421 16.8456C11.221 16.6456 10.9497 16.5332 10.6668 16.5332ZM8.53346 19.7332V17.5999H10.6668V19.7332H8.53346Z" fill="url(#paint6_linear)"/>
<path d="M17.0667 16.5332H14.9334C14.6505 16.5332 14.3792 16.6456 14.1791 16.8456C13.9791 17.0457 13.8667 17.317 13.8667 17.5999V19.7332C13.8667 20.0161 13.9791 20.2874 14.1791 20.4875C14.3792 20.6875 14.6505 20.7999 14.9334 20.7999H17.0667C17.3496 20.7999 17.6209 20.6875 17.821 20.4875C18.021 20.2874 18.1334 20.0161 18.1334 19.7332V17.5999C18.1334 17.317 18.021 17.0457 17.821 16.8456C17.6209 16.6456 17.3496 16.5332 17.0667 16.5332ZM14.9334 19.7332V17.5999H17.0667V19.7332H14.9334Z" fill="url(#paint7_linear)"/>
<path d="M21.8665 20.7999H23.9998C24.2827 20.7999 24.554 20.6875 24.7541 20.4875C24.9541 20.2874 25.0665 20.0161 25.0665 19.7332V17.5999C25.0665 17.317 24.9541 17.0457 24.7541 16.8456C24.554 16.6456 24.2827 16.5332 23.9998 16.5332H21.8665C21.5836 16.5332 21.3123 16.6456 21.1122 16.8456C20.9122 17.0457 20.7998 17.317 20.7998 17.5999V19.7332C20.7998 20.0161 20.9122 20.2874 21.1122 20.4875C21.3123 20.6875 21.5836 20.7999 21.8665 20.7999ZM21.8665 17.5999H23.9998V19.7332H21.8665V17.5999Z" fill="url(#paint8_linear)"/>
<path d="M10.6668 22.3994H8.53346C8.25056 22.3994 7.97925 22.5118 7.77922 22.7118C7.57918 22.9119 7.4668 23.1832 7.4668 23.4661V25.5994C7.4668 25.8823 7.57918 26.1536 7.77922 26.3537C7.97925 26.5537 8.25056 26.6661 8.53346 26.6661H10.6668C10.9497 26.6661 11.221 26.5537 11.421 26.3537C11.6211 26.1536 11.7335 25.8823 11.7335 25.5994V23.4661C11.7335 23.1832 11.6211 22.9119 11.421 22.7118C11.221 22.5118 10.9497 22.3994 10.6668 22.3994ZM8.53346 25.5994V23.4661H10.6668V25.5994H8.53346Z" fill="url(#paint9_linear)"/>
<path d="M17.0667 22.3994H14.9334C14.6505 22.3994 14.3792 22.5118 14.1791 22.7118C13.9791 22.9119 13.8667 23.1832 13.8667 23.4661V25.5994C13.8667 25.8823 13.9791 26.1536 14.1791 26.3537C14.3792 26.5537 14.6505 26.6661 14.9334 26.6661H17.0667C17.3496 26.6661 17.6209 26.5537 17.821 26.3537C18.021 26.1536 18.1334 25.8823 18.1334 25.5994V23.4661C18.1334 23.1832 18.021 22.9119 17.821 22.7118C17.6209 22.5118 17.3496 22.3994 17.0667 22.3994ZM14.9334 25.5994V23.4661H17.0667V25.5994H14.9334Z" fill="url(#paint10_linear)"/>
</g>
<defs>
<linearGradient id="paint0_linear" x1="16" y1="0" x2="16" y2="32" gradientUnits="userSpaceOnUse">
<stop stop-color="#1B93B3"/>
<stop offset="1" stop-color="#12B1DB"/>
</linearGradient>
<linearGradient id="paint1_linear" x1="12.7998" y1="2.13281" x2="12.7998" y2="6.39948" gradientUnits="userSpaceOnUse">
<stop stop-color="#1B93B3"/>
<stop offset="1" stop-color="#12B1DB"/>
</linearGradient>
<linearGradient id="paint2_linear" x1="19.2002" y1="2.13281" x2="19.2002" y2="6.39948" gradientUnits="userSpaceOnUse">
<stop stop-color="#1B93B3"/>
<stop offset="1" stop-color="#12B1DB"/>
</linearGradient>
<linearGradient id="paint3_linear" x1="9.60013" y1="10.666" x2="9.60013" y2="14.9327" gradientUnits="userSpaceOnUse">
<stop stop-color="#1B93B3"/>
<stop offset="1" stop-color="#12B1DB"/>
</linearGradient>
<linearGradient id="paint4_linear" x1="16" y1="10.666" x2="16" y2="14.9327" gradientUnits="userSpaceOnUse">
<stop stop-color="#1B93B3"/>
<stop offset="1" stop-color="#12B1DB"/>
</linearGradient>
<linearGradient id="paint5_linear" x1="22.9331" y1="10.666" x2="22.9331" y2="14.9327" gradientUnits="userSpaceOnUse">
<stop stop-color="#1B93B3"/>
<stop offset="1" stop-color="#12B1DB"/>
</linearGradient>
<linearGradient id="paint6_linear" x1="9.60013" y1="16.5332" x2="9.60013" y2="20.7999" gradientUnits="userSpaceOnUse">
<stop stop-color="#1B93B3"/>
<stop offset="1" stop-color="#12B1DB"/>
</linearGradient>
<linearGradient id="paint7_linear" x1="16" y1="16.5332" x2="16" y2="20.7999" gradientUnits="userSpaceOnUse">
<stop stop-color="#1B93B3"/>
<stop offset="1" stop-color="#12B1DB"/>
</linearGradient>
<linearGradient id="paint8_linear" x1="22.9331" y1="16.5332" x2="22.9331" y2="20.7999" gradientUnits="userSpaceOnUse">
<stop stop-color="#1B93B3"/>
<stop offset="1" stop-color="#12B1DB"/>
</linearGradient>
<linearGradient id="paint9_linear" x1="9.60013" y1="22.3994" x2="9.60013" y2="26.6661" gradientUnits="userSpaceOnUse">
<stop stop-color="#1B93B3"/>
<stop offset="1" stop-color="#12B1DB"/>
</linearGradient>
<linearGradient id="paint10_linear" x1="16" y1="22.3994" x2="16" y2="26.6661" gradientUnits="userSpaceOnUse">
<stop stop-color="#1B93B3"/>
<stop offset="1" stop-color="#12B1DB"/>
</linearGradient>
<clipPath id="clip0">
<rect width="32" height="32" fill="white"/>
</clipPath>
</defs>
</svg>
