<svg width="15" height="16" viewBox="0 0 15 16" fill="none" xmlns="http://www.w3.org/2000/svg">
<path fill-rule="evenodd" clip-rule="evenodd" d="M11.2287 0.614894C11.2292 0.953538 11.4913 1.22972 11.8233 1.29662C13.6909 1.67299 14.8891 3.10272 14.8913 5.1918L14.9 11.9324C14.9031 14.4432 13.3258 15.988 10.7974 15.992L4.62151 16C2.10895 16.0032 0.511853 14.4216 0.508694 11.9036L0.500005 5.24218C0.497139 3.13938 1.65255 1.71169 3.51222 1.31367C3.8443 1.24259 4.10459 0.964093 4.10415 0.624489C4.10336 0.272665 4.36401 0.00799781 4.71155 0.00799781C5.05909 0.00719821 5.31975 0.271066 5.32053 0.62289C5.32097 0.932019 5.57192 1.18227 5.88104 1.18185L9.45339 1.17698C9.76251 1.17655 10.0128 0.925613 10.0123 0.616493C10.0115 0.264669 10.2722 0.000801412 10.6197 1.81239e-06C10.9594 -0.000797787 11.2279 0.26307 11.2287 0.614894ZM1.71639 5.24053C1.71682 5.37794 1.82844 5.48906 1.96586 5.48887L13.3958 5.47359C13.5505 5.47338 13.6757 5.34798 13.6757 5.19335C13.6465 3.71384 13.0036 2.83959 11.8381 2.53898C11.5177 2.45633 11.2314 2.7227 11.2319 3.05363C11.2319 3.39745 10.9641 3.67012 10.6245 3.67012C10.2769 3.67092 10.0155 3.39905 10.0155 3.05523C10.015 2.69754 9.72469 2.40795 9.36701 2.40843L5.96978 2.41306C5.6125 2.41355 5.32325 2.70355 5.32369 3.06082C5.32369 3.40545 5.06382 3.67731 4.71629 3.67731C4.36875 3.67811 4.1073 3.40705 4.1073 3.06242C4.10688 2.73266 3.81907 2.4692 3.50088 2.55581C2.34453 2.87057 1.71435 3.74885 1.71639 5.24053ZM10.2919 9.1234V9.1322C10.2998 9.50002 10.6 9.77908 10.9641 9.77108C11.3195 9.76229 11.6031 9.45764 11.5952 9.08982C11.5786 8.738 11.2935 8.45094 10.9388 8.45174C10.5755 8.45974 10.2911 8.75559 10.2919 9.1234ZM10.9444 12.7137C10.581 12.7057 10.288 12.4027 10.2872 12.0349C10.2793 11.667 10.5708 11.3624 10.9341 11.3536H10.942C11.3132 11.3536 11.6142 11.6566 11.6142 12.0325C11.615 12.4083 11.3148 12.7129 10.9444 12.7137ZM7.03761 9.13613C7.05341 9.50394 7.35435 9.791 7.71768 9.77501C8.07312 9.75822 8.35668 9.45437 8.34089 9.08655C8.3322 8.72673 8.03995 8.44687 7.68451 8.44767C7.32117 8.46366 7.03682 8.76831 7.03761 9.13613ZM7.72082 12.6777C7.35748 12.6937 7.05733 12.4066 7.04074 12.0388C7.04074 11.671 7.32431 11.3671 7.68764 11.3503C8.04308 11.3495 8.33612 11.6294 8.34402 11.9884C8.3606 12.357 8.07625 12.6609 7.72082 12.6777ZM3.78334 9.16428C3.79914 9.5321 4.10008 9.81996 4.46341 9.80316C4.81885 9.78717 5.10241 9.48253 5.08582 9.11471C5.07792 8.75489 4.78568 8.47503 4.42945 8.47583C4.06611 8.49182 3.78255 8.79647 3.78334 9.16428ZM4.46677 12.6817C4.10343 12.6985 3.80328 12.4106 3.7867 12.0428C3.78591 11.675 4.07026 11.3703 4.43359 11.3543C4.78903 11.3535 5.08207 11.6334 5.08997 11.9932C5.10656 12.361 4.823 12.6657 4.46677 12.6817Z" fill="#919191"/>
</svg>
