<svg width="15" height="17" viewBox="0 0 15 17" fill="none" xmlns="http://www.w3.org/2000/svg">
<path fill-rule="evenodd" clip-rule="evenodd" d="M10.7287 1.11489L10.7295 1.71459C12.9332 1.88731 14.3889 3.38895 14.3913 5.6918L14.4 12.4324C14.4031 14.9432 12.8258 16.488 10.2974 16.492L4.12151 16.5C1.60895 16.5032 0.0118533 14.9216 0.00869381 12.4036L5.3198e-06 5.74218C-0.00315413 3.42414 1.40122 1.92649 3.60494 1.72419L3.60415 1.12449C3.60336 0.772665 3.86401 0.507998 4.21155 0.507998C4.55909 0.507198 4.81975 0.771066 4.82053 1.12289L4.82132 1.68261L9.51311 1.67621L9.51232 1.11649C9.51153 0.764669 9.77218 0.500801 10.1197 0.500002C10.4594 0.499202 10.7279 0.76307 10.7287 1.11489ZM1.21716 5.98937L13.1757 5.97338V5.69352C13.1417 3.97438 12.2792 3.07243 10.731 2.9381L10.7318 3.55379C10.7318 3.89762 10.4641 4.17028 10.1244 4.17028C9.77689 4.17108 9.51545 3.89922 9.51545 3.55539L9.51466 2.90771L4.82288 2.91411L4.82367 3.56099C4.82367 3.90561 4.5638 4.17748 4.21626 4.17748C3.86873 4.17828 3.60728 3.90721 3.60728 3.56258L3.60649 2.94689C2.06626 3.10122 1.214 4.00636 1.21637 5.74069L1.21716 5.98937ZM9.79193 9.62381V9.63261C9.79982 10.0004 10.1 10.2795 10.4641 10.2715C10.8195 10.2627 11.1031 9.95804 11.0952 9.59023C11.0786 9.23841 10.7935 8.95135 10.4388 8.95215C10.0755 8.96014 9.79114 9.256 9.79193 9.62381ZM10.4444 13.2136C10.081 13.2056 9.78799 12.9026 9.7872 12.5348C9.7793 12.167 10.0708 11.8623 10.4341 11.8535H10.442C10.8132 11.8535 11.1142 12.1566 11.1142 12.5324C11.115 12.9082 10.8148 13.2128 10.4444 13.2136ZM6.53759 9.63621C6.55339 10.004 6.85433 10.2911 7.21766 10.2751C7.5731 10.2583 7.85666 9.95445 7.84087 9.58663C7.83218 9.22681 7.53993 8.94695 7.18449 8.94775C6.82115 8.96375 6.5368 9.26839 6.53759 9.63621ZM7.22078 13.1779C6.85744 13.1939 6.55729 12.9069 6.5407 12.539C6.5407 12.1712 6.82426 11.8674 7.1876 11.8506C7.54304 11.8498 7.83608 12.1296 7.84398 12.4887C7.86056 12.8573 7.57621 13.1611 7.22078 13.1779ZM3.28332 9.66453C3.29912 10.0323 3.60005 10.3202 3.96339 10.3034C4.31883 10.2874 4.60239 9.98277 4.5858 9.61495C4.5779 9.25513 4.28566 8.97528 3.92943 8.97607C3.56609 8.99207 3.28253 9.29671 3.28332 9.66453ZM3.96675 13.1818C3.60341 13.1986 3.30326 12.9108 3.28668 12.5429C3.28589 12.1751 3.57024 11.8705 3.93357 11.8545C4.28901 11.8537 4.58205 12.1336 4.58995 12.4934C4.60654 12.8612 4.32298 13.1658 3.96675 13.1818Z" fill="#1B93B3"/>
</svg>
