<svg width="22" height="16" viewBox="0 0 22 16" fill="none" xmlns="http://www.w3.org/2000/svg">
<rect width="21.9259" height="16" rx="1" fill="#2678BE" fill-opacity="0.55"/>
<path fill-rule="evenodd" clip-rule="evenodd" d="M10.6487 9.79569C10.8222 9.96926 11.1036 9.96926 11.2772 9.79569L13.4994 7.5735C13.673 7.39994 13.673 7.11853 13.4994 6.94497C13.3258 6.7714 13.0445 6.7714 12.8709 6.94497L11.4074 8.40846V4.44444C11.4074 4.19899 11.2084 4 10.9629 4C10.7175 4 10.5185 4.19899 10.5185 4.44444V8.40846L9.055 6.94497C8.88144 6.7714 8.60003 6.7714 8.42647 6.94497C8.2529 7.11853 8.2529 7.39994 8.42647 7.5735L10.6487 9.79569ZM8.44444 11.1111C8.19899 11.1111 8 11.3101 8 11.5556C8 11.801 8.19899 12 8.44444 12H13.4814C13.7269 12 13.9259 11.801 13.9259 11.5556C13.9259 11.3101 13.7269 11.1111 13.4814 11.1111H8.44444Z" fill="white"/>
</svg>
