<svg width="24" height="24" viewBox="0 0 24 24" fill="none" xmlns="http://www.w3.org/2000/svg">
<path d="M16.9871 11.5127C16.7246 11.1752 16.2746 11.1377 15.9371 11.4002L12.7496 13.9806V4.9502C12.7496 4.5377 12.4121 4.2002 11.9996 4.2002C11.5871 4.2002 11.2496 4.5377 11.2496 4.9502V13.9806L8.06211 11.4002C7.76211 11.1377 7.27461 11.1752 7.01211 11.5127C6.74961 11.8127 6.78711 12.3002 7.12461 12.5627L11.5121 16.1627C11.6621 16.2752 11.8496 16.3127 11.9996 16.3127C12.2085 16.3127 12.398 16.2259 12.5343 16.0869L16.8746 12.5627C17.2121 12.3002 17.2496 11.8502 16.9871 11.5127Z" fill="#FF7E7E"/>
<path d="M22.7146 6.02654C22.3021 3.55154 20.3521 1.60154 17.8771 1.18904C17.8771 1.18904 15.7021 0.851538 14.6521 0.776538C14.2396 0.739038 13.8646 1.07654 13.8646 1.45154C13.8271 1.90154 14.1271 2.23904 14.5396 2.27654C15.5521 2.35154 17.6146 2.68904 17.6146 2.68904C19.4896 2.98904 20.9146 4.45154 21.2521 6.28904C21.2521 6.28904 22.0291 12.5124 21.2146 17.4265C20.897 19.3425 19.3771 20.8015 17.4646 21.064C13.795 21.7672 10.1199 21.7387 6.43956 21.064C4.52706 20.8015 2.95248 19.3507 2.68956 17.4265C1.86732 11.4094 2.72706 6.28904 2.72706 6.28904C3.06456 4.45154 4.48956 2.98904 6.36456 2.68904C6.36456 2.68904 8.46456 2.38904 9.47706 2.31404C9.88956 2.27654 10.1896 1.90154 10.1521 1.48904C10.1146 1.07654 9.73956 0.739038 9.32706 0.776538C8.23956 0.851538 6.10206 1.18904 6.10206 1.18904C3.62706 1.63904 1.67706 3.55154 1.26456 6.02654C1.26456 6.02654 0.165197 10.2035 1.22706 17.689C1.66881 20.5418 3.70206 22.189 6.25206 22.564C10.0624 23.3081 13.9003 23.2962 17.7271 22.564C20.2771 22.189 22.3128 20.2409 22.7521 17.689C23.8343 10.3397 22.7146 6.02654 22.7146 6.02654Z" fill="#0B4373"/>
</svg>
