<svg width="25" height="25" viewBox="0 0 25 25" fill="none" xmlns="http://www.w3.org/2000/svg">
<path d="M23 22.9998H10.4143L20.7065 12.7074L20.7072 12.7069L20.7077 12.7063L23.9999 9.41411C24.1856 9.22841 24.333 9.00794 24.4335 8.76528C24.534 8.52263 24.5858 8.26255 24.5858 7.99989C24.5858 7.73723 24.5341 7.47715 24.4336 7.23448C24.3331 6.99182 24.1857 6.77134 24 6.58562L18.4142 0.999678C18.0387 0.625263 17.5301 0.415016 16.9999 0.415039C16.4697 0.415062 15.9611 0.625355 15.5857 0.999803L0.585694 15.9999C0.391483 16.194 0.239473 16.4263 0.139194 16.6819C0.128909 16.7069 0.120241 16.7323 0.112062 16.7579C0.0382963 16.9688 0.000416996 17.1906 0 17.414V22.9998C0.000606423 23.5301 0.211515 24.0384 0.586456 24.4133C0.961398 24.7883 1.46975 24.9992 2 24.9998H23C23.2652 24.9998 23.5196 24.8944 23.7071 24.7069C23.8946 24.5194 24 24.265 24 23.9998C24 23.7346 23.8946 23.4802 23.7071 23.2927C23.5196 23.1052 23.2652 22.9998 23 22.9998ZM17 2.41399L22.5857 7.9998L20 10.5855L14.4142 4.9998L17 2.41399Z" fill="#1B93B3"/>
</svg>
