<svg width="56" height="56" viewBox="0 0 56 56" fill="none" xmlns="http://www.w3.org/2000/svg">
<path d="M28.0007 2.33325C42.176 2.33325 53.6673 13.8246 53.6673 27.9999C53.6673 42.1752 42.176 53.6666 28.0007 53.6666C13.8253 53.6666 2.33398 42.1752 2.33398 27.9999C2.33398 13.8246 13.8253 2.33325 28.0007 2.33325ZM28.0007 6.99992C16.4027 6.99992 7.00065 16.4019 7.00065 27.9999C7.00065 39.5979 16.4027 48.9999 28.0007 48.9999C39.5986 48.9999 49.0006 39.5979 49.0006 27.9999C49.0006 16.4019 39.5986 6.99992 28.0007 6.99992ZM37.2108 34.0796C38.3634 34.6559 38.8306 36.0575 38.2543 37.2101C37.84 38.0387 37.0538 39.1486 35.8217 40.2439C33.7735 42.0644 31.1559 43.1666 28.0007 43.1666C24.8454 43.1666 22.2278 42.0644 20.1796 40.2439C18.9475 39.1486 18.1613 38.0387 17.747 37.2101C17.1707 36.0575 17.6379 34.6559 18.7905 34.0796C19.8608 33.5444 21.1457 33.909 21.7852 34.8867L21.921 35.1231C22.09 35.4611 22.5434 36.1012 23.28 36.756C24.5131 37.8521 26.0518 38.4999 28.0007 38.4999C29.9495 38.4999 31.4882 37.8521 32.7213 36.756C33.3527 36.1947 33.776 35.6443 33.9905 35.2856L34.0803 35.1231C34.6566 33.9705 36.0582 33.5033 37.2108 34.0796ZM36.1673 18.6666C37.3639 18.6666 38.3502 19.5673 38.485 20.7278L38.5006 20.9999V22.1666C38.5006 23.4552 37.456 24.4999 36.1673 24.4999C34.9707 24.4999 33.9845 23.5992 33.8497 22.4387L33.834 22.1666V20.9999C33.834 19.7113 34.8787 18.6666 36.1673 18.6666ZM19.834 18.6666C21.0306 18.6666 22.0168 19.5673 22.1516 20.7278L22.1673 20.9999V22.1666C22.1673 23.4552 21.1226 24.4999 19.834 24.4999C18.6374 24.4999 17.6511 23.5992 17.5163 22.4387L17.5007 22.1666V20.9999C17.5007 19.7113 18.5453 18.6666 19.834 18.6666Z" fill="#1B93B3"/>
</svg>
