<svg width="32" height="32" viewBox="0 0 32 32" fill="none" xmlns="http://www.w3.org/2000/svg">
<g clip-path="url(#clip0)">
<path d="M7.31047 31.5312C7.45862 31.6803 7.6349 31.7985 7.82908 31.879C8.02326 31.9595 8.23148 32.0006 8.44167 32H26.6667C27.0911 32 27.4981 31.8314 27.7981 31.5314C28.0982 31.2313 28.2667 30.8243 28.2667 30.4V1.6C28.2667 1.17565 28.0982 0.768687 27.7981 0.468629C27.4981 0.168571 27.0911 0 26.6667 0L5.33341 0C4.90906 0 4.50209 0.168571 4.20203 0.468629C3.90198 0.768687 3.7334 1.17565 3.7334 1.6V27.2917C3.73281 27.5019 3.77394 27.7101 3.85441 27.9043C3.93488 28.0985 4.0531 28.2748 4.20221 28.4229L7.31047 31.5312ZM7.46674 30.1792L5.5542 28.2667H6.9334C7.07485 28.2667 7.21051 28.3229 7.31053 28.4229C7.41055 28.5229 7.46674 28.6586 7.46674 28.8V30.1792ZM5.33341 1.06667H26.6667C26.8082 1.06667 26.9438 1.12286 27.0439 1.22288C27.1439 1.3229 27.2001 1.45855 27.2001 1.6V30.4C27.2001 30.5415 27.1439 30.6771 27.0439 30.7771C26.9438 30.8771 26.8082 30.9333 26.6667 30.9333H8.53341V28.8C8.53341 28.3757 8.36483 27.9687 8.06478 27.6686C7.76472 27.3686 7.35775 27.2 6.9334 27.2H4.80007V1.6C4.80007 1.45855 4.85626 1.3229 4.95628 1.22288C5.0563 1.12286 5.19196 1.06667 5.33341 1.06667Z" fill="#7D7D7D"/>
<path d="M13.8668 8.46808V8.53368C13.8673 8.72008 13.9169 8.90306 14.0105 9.06426C14.1041 9.22546 14.2385 9.3592 14.4001 9.45208V10.1337C14.4001 10.558 14.5687 10.965 14.8687 11.265C15.1688 11.5651 15.5757 11.7337 16.0001 11.7337C16.4244 11.7337 16.8314 11.5651 17.1315 11.265C17.4315 10.965 17.6001 10.558 17.6001 10.1337V9.45208C17.7617 9.3592 17.8961 9.22546 17.9897 9.06426C18.0833 8.90306 18.1329 8.72008 18.1334 8.53368V8.46968C18.1474 8.01591 18.3052 7.57832 18.5841 7.22008C19.0423 6.59063 19.2553 5.8157 19.1833 5.04047C19.1112 4.26523 18.7589 3.54286 18.1925 3.00868C17.6261 2.4745 16.8843 2.16515 16.1062 2.13858C15.3281 2.11201 14.567 2.37005 13.9654 2.86434C13.3408 3.39 12.938 4.13242 12.8379 4.94265C12.7378 5.75288 12.9478 6.571 13.4257 7.23288C13.7012 7.58677 13.8558 8.01974 13.8668 8.46808ZM16.5334 10.1337C16.5334 10.2751 16.4772 10.4108 16.3772 10.5108C16.2772 10.6108 16.1415 10.667 16.0001 10.667C15.8586 10.667 15.723 10.6108 15.623 10.5108C15.5229 10.4108 15.4668 10.2751 15.4668 10.1337V9.60035H16.5334V10.1337ZM14.6438 3.68728C15.0232 3.3714 15.5016 3.19904 15.9953 3.20034C16.3894 3.19966 16.776 3.30818 17.1122 3.51385C17.4485 3.71953 17.7211 4.01432 17.9 4.36553C18.0788 4.71674 18.1569 5.11064 18.1255 5.50352C18.0942 5.8964 17.9546 6.27291 17.7222 6.59128C17.3097 7.13186 17.0801 7.78981 17.0668 8.46968V8.53368H14.9334V8.46808C14.9227 7.79228 14.695 7.13784 14.2838 6.60141C13.9679 6.15885 13.8297 5.61386 13.8963 5.07424C13.963 4.53462 14.2297 4.03966 14.6438 3.68728Z" fill="#7D7D7D"/>
<path d="M9.06644 16.0001C9.48837 16.0001 9.90083 15.8749 10.2516 15.6405C10.6025 15.4061 10.8759 15.0729 11.0374 14.6831C11.1988 14.2933 11.2411 13.8644 11.1588 13.4505C11.0765 13.0367 10.8733 12.6566 10.5749 12.3582C10.2766 12.0599 9.89645 11.8567 9.48263 11.7744C9.0688 11.6921 8.63986 11.7343 8.25005 11.8958C7.86023 12.0573 7.52705 12.3307 7.29264 12.6815C7.05822 13.0323 6.93311 13.4448 6.93311 13.8667C6.93311 14.4325 7.15787 14.9751 7.55794 15.3752C7.95802 15.7753 8.50064 16.0001 9.06644 16.0001ZM9.06644 12.8001C9.2774 12.8001 9.48363 12.8626 9.65904 12.9798C9.83446 13.097 9.97117 13.2636 10.0519 13.4585C10.1326 13.6534 10.1538 13.8679 10.1126 14.0748C10.0714 14.2817 9.96986 14.4718 9.82068 14.621C9.67151 14.7702 9.48144 14.8717 9.27453 14.9129C9.06762 14.9541 8.85315 14.9329 8.65824 14.8522C8.46333 14.7715 8.29674 14.6347 8.17954 14.4593C8.06233 14.2839 7.99977 14.0777 7.99977 13.8667C7.99977 13.5838 8.11215 13.3125 8.31219 13.1125C8.51223 12.9124 8.78354 12.8001 9.06644 12.8001Z" fill="#7D7D7D"/>
<path d="M9.06644 21.3331C9.48837 21.3331 9.90083 21.2079 10.2516 20.9735C10.6025 20.7391 10.8759 20.4059 11.0374 20.0161C11.1988 19.6263 11.2411 19.1974 11.1588 18.7835C11.0765 18.3697 10.8733 17.9896 10.5749 17.6912C10.2766 17.3929 9.89645 17.1897 9.48263 17.1074C9.0688 17.0251 8.63986 17.0673 8.25005 17.2288C7.86023 17.3903 7.52705 17.6637 7.29264 18.0145C7.05822 18.3653 6.93311 18.7778 6.93311 19.1997C6.93311 19.7655 7.15787 20.3082 7.55794 20.7082C7.95802 21.1083 8.50064 21.3331 9.06644 21.3331ZM9.06644 18.1331C9.2774 18.1331 9.48363 18.1956 9.65904 18.3128C9.83446 18.43 9.97117 18.5966 10.0519 18.7915C10.1326 18.9865 10.1538 19.2009 10.1126 19.4078C10.0714 19.6147 9.96986 19.8048 9.82068 19.954C9.67151 20.1032 9.48144 20.2047 9.27453 20.2459C9.06762 20.2871 8.85315 20.2659 8.65824 20.1852C8.46333 20.1045 8.29674 19.9678 8.17954 19.7923C8.06233 19.6169 7.99977 19.4107 7.99977 19.1997C7.99977 18.9168 8.11215 18.6455 8.31219 18.4455C8.51223 18.2455 8.78354 18.1331 9.06644 18.1331Z" fill="#7D7D7D"/>
<path d="M9.06644 26.6661C9.48837 26.6661 9.90083 26.541 10.2516 26.3065C10.6025 26.0721 10.8759 25.739 11.0374 25.3491C11.1988 24.9593 11.2411 24.5304 11.1588 24.1166C11.0765 23.7027 10.8733 23.3226 10.5749 23.0243C10.2766 22.7259 9.89645 22.5227 9.48263 22.4404C9.0688 22.3581 8.63986 22.4003 8.25005 22.5618C7.86023 22.7233 7.52705 22.9967 7.29264 23.3475C7.05822 23.6984 6.93311 24.1108 6.93311 24.5327C6.93311 25.0985 7.15787 25.6412 7.55794 26.0412C7.95802 26.4413 8.50064 26.6661 9.06644 26.6661ZM9.06644 23.4661C9.2774 23.4661 9.48363 23.5286 9.65904 23.6458C9.83446 23.7631 9.97117 23.9296 10.0519 24.1246C10.1326 24.3195 10.1538 24.5339 10.1126 24.7408C10.0714 24.9478 9.96986 25.1378 9.82068 25.287C9.67151 25.4362 9.48144 25.5378 9.27453 25.5789C9.06762 25.6201 8.85315 25.5989 8.65824 25.5182C8.46333 25.4375 8.29674 25.3008 8.17954 25.1254C8.06233 24.9499 7.99977 24.7437 7.99977 24.5327C7.99977 24.2498 8.11215 23.9785 8.31219 23.7785C8.51223 23.5785 8.78354 23.4661 9.06644 23.4661Z" fill="#7D7D7D"/>
<path d="M12.7999 14.4007H24.5333C24.6747 14.4007 24.8104 14.3445 24.9104 14.2444C25.0104 14.1444 25.0666 14.0088 25.0666 13.8673C25.0666 13.7259 25.0104 13.5902 24.9104 13.4902C24.8104 13.3902 24.6747 13.334 24.5333 13.334H12.7999C12.6585 13.334 12.5228 13.3902 12.4228 13.4902C12.3228 13.5902 12.2666 13.7259 12.2666 13.8673C12.2666 14.0088 12.3228 14.1444 12.4228 14.2444C12.5228 14.3445 12.6585 14.4007 12.7999 14.4007Z" fill="#7D7D7D"/>
<path d="M12.7999 19.7327H24.5333C24.6747 19.7327 24.8104 19.6765 24.9104 19.5765C25.0104 19.4764 25.0666 19.3408 25.0666 19.1993C25.0666 19.0579 25.0104 18.9222 24.9104 18.8222C24.8104 18.7222 24.6747 18.666 24.5333 18.666H12.7999C12.6585 18.666 12.5228 18.7222 12.4228 18.8222C12.3228 18.9222 12.2666 19.0579 12.2666 19.1993C12.2666 19.3408 12.3228 19.4764 12.4228 19.5765C12.5228 19.6765 12.6585 19.7327 12.7999 19.7327Z" fill="#7D7D7D"/>
<path d="M12.7999 25.0667H24.5333C24.6747 25.0667 24.8104 25.0105 24.9104 24.9104C25.0104 24.8104 25.0666 24.6748 25.0666 24.5333C25.0666 24.3919 25.0104 24.2562 24.9104 24.1562C24.8104 24.0562 24.6747 24 24.5333 24H12.7999C12.6585 24 12.5228 24.0562 12.4228 24.1562C12.3228 24.2562 12.2666 24.3919 12.2666 24.5333C12.2666 24.6748 12.3228 24.8104 12.4228 24.9104C12.5228 25.0105 12.6585 25.0667 12.7999 25.0667Z" fill="#7D7D7D"/>
</g>
<defs>
<clipPath id="clip0">
<rect width="32" height="32" fill="white"/>
</clipPath>
</defs>
</svg>
