<svg width="32" height="32" viewBox="0 0 32 32" fill="none" xmlns="http://www.w3.org/2000/svg">
<path d="M29.3333 0H2.66667C1.95968 0.000846857 1.2819 0.28207 0.781984 0.781984C0.28207 1.2819 0.000846857 1.95968 0 2.66667L0 29.3333C0.000846857 30.0403 0.28207 30.7181 0.781984 31.218C1.2819 31.7179 1.95968 31.9992 2.66667 32H29.3333C30.0403 31.9992 30.7181 31.7179 31.218 31.218C31.7179 30.7181 31.9992 30.0403 32 29.3333V2.66667C31.9992 1.95968 31.7179 1.2819 31.218 0.781984C30.7181 0.28207 30.0403 0.000846857 29.3333 0V0ZM20.8 1.06667V30.9333H11.2V1.06667H20.8ZM1.06667 29.3333V2.66667C1.06667 2.24232 1.23524 1.83535 1.5353 1.5353C1.83535 1.23524 2.24232 1.06667 2.66667 1.06667H10.1333V30.9333H2.66667C2.24232 30.9333 1.83535 30.7648 1.5353 30.4647C1.23524 30.1646 1.06667 29.7577 1.06667 29.3333ZM30.9333 29.3333C30.9333 29.7577 30.7648 30.1646 30.4647 30.4647C30.1646 30.7648 29.7577 30.9333 29.3333 30.9333H21.8667V1.06667H29.3333C29.7577 1.06667 30.1646 1.23524 30.4647 1.5353C30.7648 1.83535 30.9333 2.24232 30.9333 2.66667V29.3333Z" fill="#7D7D7D"/>
<path d="M3.7333 5.33281H6.9333C7.35765 5.33281 7.76461 5.16424 8.06467 4.86418C8.36473 4.56413 8.5333 4.15716 8.5333 3.73281C8.5333 3.30847 8.36473 2.9015 8.06467 2.60144C7.76461 2.30138 7.35765 2.13281 6.9333 2.13281H3.7333C3.30895 2.13281 2.90199 2.30138 2.60193 2.60144C2.30187 2.9015 2.1333 3.30847 2.1333 3.73281C2.1333 4.15716 2.30187 4.56413 2.60193 4.86418C2.90199 5.16424 3.30895 5.33281 3.7333 5.33281ZM3.7333 3.19948H6.9333C7.07475 3.19948 7.21041 3.25567 7.31042 3.35569C7.41044 3.45571 7.46663 3.59136 7.46663 3.73281C7.46663 3.87426 7.41044 4.00992 7.31042 4.10994C7.21041 4.20996 7.07475 4.26615 6.9333 4.26615H3.7333C3.59185 4.26615 3.4562 4.20996 3.35618 4.10994C3.25616 4.00992 3.19997 3.87426 3.19997 3.73281C3.19997 3.59136 3.25616 3.45571 3.35618 3.35569C3.4562 3.25567 3.59185 3.19948 3.7333 3.19948Z" fill="#7D7D7D"/>
<path d="M14.3998 5.33281H17.5998C18.0241 5.33281 18.4311 5.16424 18.7312 4.86418C19.0312 4.56413 19.1998 4.15716 19.1998 3.73281C19.1998 3.30847 19.0312 2.9015 18.7312 2.60144C18.4311 2.30138 18.0241 2.13281 17.5998 2.13281H14.3998C13.9755 2.13281 13.5685 2.30138 13.2684 2.60144C12.9684 2.9015 12.7998 3.30847 12.7998 3.73281C12.7998 4.15716 12.9684 4.56413 13.2684 4.86418C13.5685 5.16424 13.9755 5.33281 14.3998 5.33281ZM14.3998 3.19948H17.5998C17.7412 3.19948 17.8769 3.25567 17.9769 3.35569C18.0769 3.45571 18.1331 3.59136 18.1331 3.73281C18.1331 3.87426 18.0769 4.00992 17.9769 4.10994C17.8769 4.20996 17.7412 4.26615 17.5998 4.26615H14.3998C14.2584 4.26615 14.1227 4.20996 14.0227 4.10994C13.9227 4.00992 13.8665 3.87426 13.8665 3.73281C13.8665 3.59136 13.9227 3.45571 14.0227 3.35569C14.1227 3.25567 14.2584 3.19948 14.3998 3.19948Z" fill="#7D7D7D"/>
<path d="M28.2668 2.13281H25.0668C24.6424 2.13281 24.2355 2.30138 23.9354 2.60144C23.6354 2.9015 23.4668 3.30847 23.4668 3.73281C23.4668 4.15716 23.6354 4.56413 23.9354 4.86418C24.2355 5.16424 24.6424 5.33281 25.0668 5.33281H28.2668C28.6911 5.33281 29.0981 5.16424 29.3982 4.86418C29.6982 4.56413 29.8668 4.15716 29.8668 3.73281C29.8668 3.30847 29.6982 2.9015 29.3982 2.60144C29.0981 2.30138 28.6911 2.13281 28.2668 2.13281ZM28.2668 4.26615H25.0668C24.9253 4.26615 24.7897 4.20996 24.6897 4.10994C24.5897 4.00992 24.5335 3.87426 24.5335 3.73281C24.5335 3.59136 24.5897 3.45571 24.6897 3.35569C24.7897 3.25567 24.9253 3.19948 25.0668 3.19948H28.2668C28.4082 3.19948 28.5439 3.25567 28.6439 3.35569C28.7439 3.45571 28.8001 3.59136 28.8001 3.73281C28.8001 3.87426 28.7439 4.00992 28.6439 4.10994C28.5439 4.20996 28.4082 4.26615 28.2668 4.26615Z" fill="#7D7D7D"/>
<path d="M7.46663 6.93262H3.19997C2.91707 6.93262 2.64576 7.045 2.44572 7.24504C2.24568 7.44508 2.1333 7.71639 2.1333 7.99928V10.666C2.1333 10.9488 2.24568 11.2202 2.44572 11.4202C2.64576 11.6202 2.91707 11.7326 3.19997 11.7326H7.46663C7.74953 11.7326 8.02084 11.6202 8.22088 11.4202C8.42092 11.2202 8.5333 10.9488 8.5333 10.666V7.99928C8.5333 7.71639 8.42092 7.44508 8.22088 7.24504C8.02084 7.045 7.74953 6.93262 7.46663 6.93262ZM3.19997 10.666V7.99928H7.46663V10.666H3.19997Z" fill="#7D7D7D"/>
<path d="M7.46663 12.7998H3.19997C2.91707 12.7998 2.64576 12.9122 2.44572 13.1122C2.24568 13.3123 2.1333 13.5836 2.1333 13.8665V16.5331C2.1333 16.816 2.24568 17.0874 2.44572 17.2874C2.64576 17.4874 2.91707 17.5998 3.19997 17.5998H7.46663C7.74953 17.5998 8.02084 17.4874 8.22088 17.2874C8.42092 17.0874 8.5333 16.816 8.5333 16.5331V13.8665C8.5333 13.5836 8.42092 13.3123 8.22088 13.1122C8.02084 12.9122 7.74953 12.7998 7.46663 12.7998ZM3.19997 16.5331V13.8665H7.46663V16.5331H3.19997Z" fill="#7D7D7D"/>
<path d="M7.46663 18.666H3.19997C2.91707 18.666 2.64576 18.7784 2.44572 18.9784C2.24568 19.1785 2.1333 19.4498 2.1333 19.7327V22.3994C2.1333 22.6823 2.24568 22.9536 2.44572 23.1536C2.64576 23.3537 2.91707 23.466 3.19997 23.466H7.46663C7.74953 23.466 8.02084 23.3537 8.22088 23.1536C8.42092 22.9536 8.5333 22.6823 8.5333 22.3994V19.7327C8.5333 19.4498 8.42092 19.1785 8.22088 18.9784C8.02084 18.7784 7.74953 18.666 7.46663 18.666ZM3.19997 22.3994V19.7327H7.46663V22.3994H3.19997Z" fill="#7D7D7D"/>
<path d="M7.46663 24.5332H3.19997C2.91707 24.5332 2.64576 24.6456 2.44572 24.8456C2.24568 25.0457 2.1333 25.317 2.1333 25.5999V28.2665C2.1333 28.5494 2.24568 28.8208 2.44572 29.0208C2.64576 29.2208 2.91707 29.3332 3.19997 29.3332H7.46663C7.74953 29.3332 8.02084 29.2208 8.22088 29.0208C8.42092 28.8208 8.5333 28.5494 8.5333 28.2665V25.5999C8.5333 25.317 8.42092 25.0457 8.22088 24.8456C8.02084 24.6456 7.74953 24.5332 7.46663 24.5332ZM3.19997 28.2665V25.5999H7.46663V28.2665H3.19997Z" fill="#7D7D7D"/>
<path d="M13.8665 11.7326H18.1331C18.416 11.7326 18.6873 11.6202 18.8874 11.4202C19.0874 11.2202 19.1998 10.9488 19.1998 10.666V7.99928C19.1998 7.71639 19.0874 7.44508 18.8874 7.24504C18.6873 7.045 18.416 6.93262 18.1331 6.93262H13.8665C13.5836 6.93262 13.3123 7.045 13.1122 7.24504C12.9122 7.44508 12.7998 7.71639 12.7998 7.99928V10.666C12.7998 10.9488 12.9122 11.2202 13.1122 11.4202C13.3123 11.6202 13.5836 11.7326 13.8665 11.7326ZM13.8665 7.99928H18.1331V10.666H13.8665V7.99928Z" fill="#7D7D7D"/>
<path d="M13.8665 17.5998H18.1331C18.416 17.5998 18.6873 17.4874 18.8874 17.2874C19.0874 17.0874 19.1998 16.816 19.1998 16.5331V13.8665C19.1998 13.5836 19.0874 13.3123 18.8874 13.1122C18.6873 12.9122 18.416 12.7998 18.1331 12.7998H13.8665C13.5836 12.7998 13.3123 12.9122 13.1122 13.1122C12.9122 13.3123 12.7998 13.5836 12.7998 13.8665V16.5331C12.7998 16.816 12.9122 17.0874 13.1122 17.2874C13.3123 17.4874 13.5836 17.5998 13.8665 17.5998ZM13.8665 13.8665H18.1331V16.5331H13.8665V13.8665Z" fill="#7D7D7D"/>
<path d="M28.8001 6.93262H24.5335C24.2506 6.93262 23.9793 7.045 23.7792 7.24504C23.5792 7.44508 23.4668 7.71639 23.4668 7.99928V10.666C23.4668 10.9488 23.5792 11.2202 23.7792 11.4202C23.9793 11.6202 24.2506 11.7326 24.5335 11.7326H28.8001C29.083 11.7326 29.3543 11.6202 29.5544 11.4202C29.7544 11.2202 29.8668 10.9488 29.8668 10.666V7.99928C29.8668 7.71639 29.7544 7.44508 29.5544 7.24504C29.3543 7.045 29.083 6.93262 28.8001 6.93262ZM24.5335 10.666V7.99928H28.8001V10.666H24.5335Z" fill="#7D7D7D"/>
<path d="M28.8001 12.7998H24.5335C24.2506 12.7998 23.9793 12.9122 23.7792 13.1122C23.5792 13.3123 23.4668 13.5836 23.4668 13.8665V16.5331C23.4668 16.816 23.5792 17.0874 23.7792 17.2874C23.9793 17.4874 24.2506 17.5998 24.5335 17.5998H28.8001C29.083 17.5998 29.3543 17.4874 29.5544 17.2874C29.7544 17.0874 29.8668 16.816 29.8668 16.5331V13.8665C29.8668 13.5836 29.7544 13.3123 29.5544 13.1122C29.3543 12.9122 29.083 12.7998 28.8001 12.7998ZM24.5335 16.5331V13.8665H28.8001V16.5331H24.5335Z" fill="#7D7D7D"/>
<path d="M28.8001 18.666H24.5335C24.2506 18.666 23.9793 18.7784 23.7792 18.9784C23.5792 19.1785 23.4668 19.4498 23.4668 19.7327V22.3994C23.4668 22.6823 23.5792 22.9536 23.7792 23.1536C23.9793 23.3537 24.2506 23.466 24.5335 23.466H28.8001C29.083 23.466 29.3543 23.3537 29.5544 23.1536C29.7544 22.9536 29.8668 22.6823 29.8668 22.3994V19.7327C29.8668 19.4498 29.7544 19.1785 29.5544 18.9784C29.3543 18.7784 29.083 18.666 28.8001 18.666ZM24.5335 22.3994V19.7327H28.8001V22.3994H24.5335Z" fill="#7D7D7D"/>
</svg>
