<svg width="27" height="27" viewBox="0 0 27 27" fill="none" xmlns="http://www.w3.org/2000/svg">
<path d="M26.7059 26.2075C26.5184 26.3951 26.264 26.5004 25.9987 26.5004C25.7335 26.5004 25.4791 26.3951 25.2916 26.2075L19.8887 20.8047C17.6163 22.7125 14.695 23.6695 11.7342 23.476C8.77333 23.2824 6.00148 21.9534 3.99666 19.766C1.99183 17.5786 0.908809 14.7017 0.973438 11.7353C1.03807 8.76882 2.24536 5.94182 4.34355 3.84382C6.44173 1.74581 9.26884 0.538765 12.2353 0.474393C15.2018 0.410021 18.0786 1.49329 20.2658 3.49831C22.453 5.50332 23.7818 8.27528 23.975 11.2361C24.1683 14.197 23.2111 17.1182 21.303 19.3905L26.7059 24.7933C26.8934 24.9809 26.9988 25.2352 26.9988 25.5004C26.9988 25.7656 26.8934 26.02 26.7059 26.2075ZM12.4995 21.5003C14.3784 21.5003 16.2151 20.9431 17.7774 19.8993C19.3397 18.8554 20.5573 17.3717 21.2763 15.6358C21.9954 13.8999 22.1835 11.9898 21.8169 10.1469C21.4504 8.30413 20.5456 6.61139 19.217 5.28279C17.8884 3.95419 16.1957 3.0494 14.3528 2.68285C12.51 2.31629 10.5999 2.50442 8.86399 3.22345C7.12809 3.94248 5.64439 5.16012 4.60052 6.72239C3.55664 8.28466 2.99948 10.1214 2.99948 12.0003C3.00233 14.519 4.00413 16.9337 5.78511 18.7147C7.56609 20.4957 9.9808 21.4975 12.4995 21.5003Z" fill="#E0E0E0"/>
</svg>
