<svg width="32" height="33" viewBox="0 0 32 33" fill="none" xmlns="http://www.w3.org/2000/svg">
<path d="M7.02535 13.1874C7.02369 12.0014 7.25679 10.8268 7.7112 9.73136C8.16561 8.63588 8.83235 7.64117 9.67299 6.80457C10.5136 5.96797 11.5115 5.30602 12.6092 4.85688C13.7069 4.40775 14.8825 4.18031 16.0685 4.18767C21.0172 4.22446 24.9756 8.33784 24.9756 13.3004V14.1874C24.9756 18.6644 25.9122 21.2623 26.7372 22.6822C26.8261 22.8339 26.8734 23.0064 26.8743 23.1822C26.8752 23.358 26.8298 23.531 26.7426 23.6837C26.6553 23.8363 26.5294 23.9633 26.3774 24.0517C26.2254 24.1402 26.0528 24.187 25.877 24.1874H6.12292C5.94707 24.187 5.77445 24.1401 5.62248 24.0517C5.4705 23.9632 5.34454 23.8362 5.25731 23.6835C5.17008 23.5309 5.12465 23.3579 5.12563 23.182C5.1266 23.0062 5.17393 22.8337 5.26284 22.682C6.08825 21.262 7.02534 18.6641 7.02534 14.1874L7.02535 13.1874Z" stroke="#C7E5FF" stroke-width="2" stroke-linecap="round" stroke-linejoin="round"/>
<path d="M12 24.1875V25.1875C12 26.2484 12.4214 27.2658 13.1716 28.0159C13.9217 28.7661 14.9391 29.1875 16 29.1875C17.0609 29.1875 18.0783 28.7661 18.8284 28.0159C19.5786 27.2658 20 26.2484 20 25.1875V24.1875" stroke="#C7E5FF" stroke-width="2" stroke-linecap="round" stroke-linejoin="round"/>
</svg>
