<svg width="32" height="32" viewBox="0 0 32 32" fill="none" xmlns="http://www.w3.org/2000/svg">
<path d="M2.66667 32H29.3333C30.0403 31.9992 30.7181 31.7179 31.218 31.218C31.7179 30.7181 31.9992 30.0403 32 29.3333V2.66667C31.9992 1.95968 31.7179 1.2819 31.218 0.781984C30.7181 0.28207 30.0403 0.000846857 29.3333 0L2.66667 0C1.95968 0.000846857 1.2819 0.28207 0.781984 0.781984C0.28207 1.2819 0.000846857 1.95968 0 2.66667L0 29.3333C0.000846857 30.0403 0.28207 30.7181 0.781984 31.218C1.2819 31.7179 1.95968 31.9992 2.66667 32ZM1.06667 29.3333V16.5333H5.78613C5.96981 16.5352 6.15065 16.4881 6.31003 16.3968C6.46941 16.3054 6.60154 16.1733 6.6928 16.0139C6.7857 15.8487 6.83383 15.6621 6.83242 15.4725C6.83102 15.283 6.78013 15.0971 6.6848 14.9333C6.49808 14.6089 6.39987 14.241 6.4 13.8667C6.40451 13.5514 6.47795 13.241 6.61517 12.9572C6.75239 12.6734 6.95006 12.423 7.19431 12.2237C7.43856 12.0243 7.72347 11.8809 8.02905 11.8034C8.33463 11.7259 8.65347 11.7161 8.9632 11.7749C9.29559 11.8433 9.60687 11.99 9.87119 12.2029C10.1355 12.4157 10.3452 12.6885 10.483 12.9986C10.6207 13.3088 10.6825 13.6473 10.6631 13.9861C10.6438 14.3249 10.5439 14.6542 10.3717 14.9467C10.279 15.1047 10.2301 15.2845 10.2301 15.4677C10.2301 15.6509 10.279 15.8308 10.3717 15.9888C10.4661 16.1536 10.6022 16.2907 10.7663 16.3862C10.9304 16.4818 11.1168 16.5325 11.3067 16.5333H15.48L15.4891 20.7072C15.065 20.4582 14.5893 20.3103 14.0988 20.2749C13.6084 20.2396 13.1163 20.3178 12.661 20.5034C12.2056 20.689 11.7991 20.977 11.4731 21.3452C11.1471 21.7133 10.9103 22.1516 10.7812 22.6261C10.652 23.1006 10.6339 23.5984 10.7283 24.081C10.8227 24.5636 11.0271 25.018 11.3255 25.4088C11.624 25.7996 12.0085 26.1164 12.4492 26.3345C12.8899 26.5527 13.3749 26.6663 13.8667 26.6667C14.432 26.6693 14.9865 26.5123 15.4667 26.2139V30.9333H2.66667C2.24232 30.9333 1.83535 30.7648 1.5353 30.4647C1.23524 30.1646 1.06667 29.7577 1.06667 29.3333ZM29.3333 30.9333H16.5333V26.2139C16.5352 26.0302 16.4881 25.8493 16.3968 25.69C16.3054 25.5306 16.1733 25.3985 16.0139 25.3072C15.8485 25.2135 15.6616 25.1647 15.4716 25.1656C15.2815 25.1666 15.0951 25.2172 14.9307 25.3125C14.6072 25.4997 14.2404 25.5989 13.8667 25.6C13.5519 25.5941 13.2422 25.5198 12.959 25.3821C12.6759 25.2445 12.4261 25.0468 12.2271 24.8029C12.028 24.559 11.8845 24.2747 11.8064 23.9697C11.7283 23.6647 11.7176 23.3464 11.7749 23.0368C11.8433 22.7044 11.99 22.3931 12.2029 22.1288C12.4157 21.8645 12.6885 21.6548 12.9986 21.517C13.3088 21.3793 13.6473 21.3175 13.9861 21.3369C14.3249 21.3562 14.6542 21.4561 14.9467 21.6283C15.1046 21.7211 15.2845 21.7701 15.4677 21.7701C15.651 21.7701 15.8308 21.7211 15.9888 21.6283C16.1536 21.5339 16.2907 21.3978 16.3862 21.2337C16.4818 21.0696 16.5325 20.8832 16.5333 20.6933V16.5333H20.6933C20.4122 17.0203 20.2643 17.5728 20.2646 18.135C20.2649 18.6973 20.4134 19.2496 20.695 19.7363C20.9767 20.223 21.3816 20.6268 21.8691 20.9072C22.3565 21.1876 22.9092 21.3345 23.4715 21.3333C23.682 21.3333 23.892 21.3131 24.0987 21.2731C24.5971 21.1732 25.0646 20.956 25.4624 20.6395C25.8602 20.3229 26.1768 19.9162 26.3861 19.4529C26.5954 18.9897 26.6914 18.4832 26.6659 17.9755C26.6405 17.4678 26.4945 16.9734 26.24 16.5333H30.9333V29.3333C30.9333 29.7577 30.7648 30.1646 30.4647 30.4647C30.1646 30.7648 29.7577 30.9333 29.3333 30.9333ZM30.9333 2.66667V15.4667H26.24C26.05 15.4674 25.8635 15.5181 25.6993 15.6136C25.5351 15.7092 25.399 15.8463 25.3045 16.0112C25.2121 16.1694 25.1636 16.3494 25.1641 16.5326C25.1645 16.7159 25.214 16.8956 25.3072 17.0533C25.4793 17.3458 25.5792 17.6752 25.5985 18.014C25.6179 18.3528 25.5561 18.6914 25.4183 19.0015C25.2805 19.3117 25.0707 19.5845 24.8063 19.7973C24.5419 20.0101 24.2306 20.1567 23.8981 20.2251C23.5883 20.284 23.2693 20.2744 22.9636 20.197C22.6578 20.1196 22.3728 19.9762 22.1283 19.7768C21.8839 19.5775 21.6861 19.3271 21.5488 19.0431C21.4114 18.7592 21.3379 18.4487 21.3333 18.1333C21.3336 17.76 21.4318 17.3933 21.6181 17.0699C21.7135 16.9054 21.7642 16.7188 21.7652 16.5287C21.7661 16.3386 21.7173 16.1515 21.6235 15.9861C21.5322 15.8267 21.4001 15.6946 21.2407 15.6032C21.0813 15.5119 20.9005 15.4648 20.7168 15.4667L16.5333 15.4757V11.3056C17.0198 11.5859 17.5715 11.7332 18.133 11.7328C18.6944 11.7324 19.2459 11.5843 19.732 11.3033C20.2181 11.0224 20.6217 10.6184 20.9024 10.1321C21.183 9.64584 21.3307 9.09426 21.3307 8.5328C21.3307 7.97134 21.183 7.41976 20.9024 6.93346C20.6217 6.44715 20.2181 6.04324 19.732 5.76228C19.2459 5.48132 18.6944 5.3332 18.133 5.3328C17.5715 5.3324 17.0198 5.47973 16.5333 5.76V1.06667H29.3333C29.7577 1.06667 30.1646 1.23524 30.4647 1.5353C30.7648 1.83535 30.9333 2.24232 30.9333 2.66667ZM2.66667 1.06667H15.4667V5.76C15.4674 5.95 15.5181 6.13646 15.6136 6.30067C15.7092 6.46487 15.8463 6.60103 16.0112 6.69547C16.1694 6.78791 16.3494 6.8364 16.5326 6.83593C16.7159 6.83547 16.8956 6.78605 17.0533 6.6928C17.5104 6.4221 18.0525 6.33284 18.5723 6.44267C18.9264 6.52604 19.2537 6.69725 19.5242 6.94051C19.7947 7.18377 19.9995 7.49124 20.1199 7.83454C20.2402 8.17785 20.2721 8.54592 20.2126 8.90481C20.1532 9.26369 20.0043 9.60183 19.7797 9.888C19.459 10.277 19.0109 10.5399 18.5149 10.63C18.0188 10.7201 17.5069 10.6317 17.0699 10.3803C16.9054 10.285 16.7188 10.2343 16.5287 10.2334C16.3386 10.2325 16.1516 10.2812 15.9861 10.3749C15.8267 10.4662 15.6946 10.5983 15.6032 10.7577C15.5119 10.9171 15.4648 11.0979 15.4667 11.2816L15.4757 15.4795L11.2912 15.4885C11.5407 15.0645 11.6892 14.5886 11.7249 14.0979C11.7606 13.6072 11.6827 13.1149 11.4972 12.6592C11.3117 12.2034 11.0237 11.7966 10.6554 11.4704C10.2871 11.1441 9.8486 10.9071 9.37386 10.7779C8.89912 10.6486 8.40098 10.6306 7.91814 10.7252C7.43531 10.8198 6.98078 11.0245 6.5899 11.3233C6.19902 11.6221 5.8823 12.007 5.66437 12.4481C5.44644 12.8892 5.33316 13.3747 5.33333 13.8667C5.33075 14.432 5.4877 14.9865 5.78613 15.4667H1.06667V2.66667C1.06667 2.24232 1.23524 1.83535 1.5353 1.5353C1.83535 1.23524 2.24232 1.06667 2.66667 1.06667Z" fill="#7D7D7D"/>
</svg>
