<svg width="32" height="32" viewBox="0 0 32 32" fill="none" xmlns="http://www.w3.org/2000/svg">
<g clip-path="url(#clip0)">
<path d="M0.89668 12.0502C0.668332 12.1416 0.469344 12.2937 0.321276 12.4901C0.173207 12.6865 0.081704 12.9196 0.0566795 13.1643C-0.0188932 13.9862 -0.0188932 14.8133 0.0566795 15.6352C0.0817167 15.8803 0.173395 16.1138 0.321763 16.3104C0.47013 16.507 0.669518 16.6592 0.89828 16.7504L2.25295 17.2918C2.55837 18.5821 3.06963 19.8147 3.76708 20.9424L3.19428 22.2843C3.09324 22.5111 3.05816 22.7618 3.09306 23.0076C3.12796 23.2534 3.23144 23.4845 3.39162 23.6742C3.91952 24.3008 4.49993 24.8812 5.12655 25.4091C5.31607 25.5684 5.5465 25.6714 5.79163 25.7063C6.03677 25.7412 6.28677 25.7066 6.51322 25.6064L7.85615 25.0331C8.98422 25.7302 10.217 26.2414 11.5074 26.5472L12.0487 27.9035C12.1403 28.1318 12.2926 28.3308 12.489 28.4789C12.6855 28.627 12.9186 28.7187 13.1634 28.744C13.5863 28.7814 14.0167 28.7974 14.4354 28.7974C14.854 28.7974 15.2615 28.7792 15.6343 28.744C15.8793 28.7185 16.1126 28.6265 16.309 28.478C16.5055 28.3295 16.6576 28.1301 16.749 27.9014L17.2903 26.5472C18.5805 26.2415 19.8131 25.7303 20.941 25.0331L22.2834 25.6059C22.4123 25.6597 22.5486 25.6937 22.6876 25.7067L28.357 31.376C28.5532 31.5814 28.7886 31.7455 29.0491 31.8587C29.3096 31.9719 29.5902 32.032 29.8742 32.0353C30.1583 32.0386 30.4402 31.9852 30.7033 31.8781C30.9664 31.7711 31.2055 31.6125 31.4066 31.4118C31.6076 31.2111 31.7665 30.9723 31.874 30.7093C31.9815 30.4463 32.0354 30.1646 32.0325 29.8805C32.0296 29.5964 31.97 29.3158 31.8572 29.0551C31.7444 28.7943 31.5807 28.5588 31.3756 28.3622L25.7068 22.6907C25.6938 22.5513 25.6598 22.4147 25.606 22.2854L25.0327 20.9424C25.7299 19.8146 26.2411 18.582 26.5468 17.2918L27.9036 16.7494C28.1323 16.6582 28.3317 16.5063 28.4803 16.31C28.6289 16.1137 28.7211 15.8806 28.7468 15.6358C28.8218 14.8128 28.8218 13.9846 28.7468 13.1616C28.7211 12.9172 28.6292 12.6845 28.4808 12.4885C28.3325 12.2925 28.1335 12.1408 27.9052 12.0496L26.5506 11.5083C26.2449 10.2181 25.7336 8.98546 25.0364 7.85764L25.6092 6.51524C25.7097 6.28885 25.7445 6.03878 25.7096 5.79359C25.6747 5.54839 25.5715 5.31794 25.4119 5.12857C24.8839 4.50209 24.3034 3.92169 23.677 3.39364C23.4875 3.23413 23.2571 3.13106 23.0119 3.09617C22.7668 3.06128 22.5167 3.09597 22.2903 3.1963L20.9426 3.76697C19.8147 3.06977 18.5821 2.55853 17.2919 2.25284L16.7495 0.89657C16.658 0.668362 16.5059 0.46947 16.3097 0.321346C16.1134 0.173222 15.8804 0.081487 15.6359 0.0560368C14.8138 -0.0186789 13.9866 -0.0186789 13.1644 0.0560368C12.9195 0.0816617 12.6862 0.173695 12.4898 0.322201C12.2933 0.470708 12.1412 0.670048 12.0498 0.898703L11.509 2.25284C10.2186 2.55863 8.98582 3.06987 7.85775 3.76697L6.51535 3.19417C6.28897 3.09372 6.0389 3.05895 5.7937 3.09385C5.5485 3.12874 5.31806 3.23188 5.12868 3.3915C4.50118 3.91915 3.92003 4.49958 3.39162 5.12644C3.23185 5.31573 3.12857 5.54615 3.09358 5.79136C3.05859 6.03657 3.0933 6.28669 3.19375 6.5131L3.76708 7.85604C3.06963 8.98373 2.55837 10.2164 2.25295 11.5067L0.89668 12.0502ZM25.3031 23.7952L25.9772 24.4694L24.469 25.9776L23.7932 25.3024C24.3332 24.8381 24.8378 24.3344 25.3031 23.7952ZM30.6183 30.6283C30.413 30.8167 30.1443 30.9209 29.8657 30.9203C29.587 30.9197 29.3188 30.8143 29.1143 30.6251L25.221 26.7318L26.7308 25.2267L30.6242 29.12C30.8234 29.3208 30.9346 29.5925 30.9335 29.8754C30.9324 30.1582 30.8191 30.4291 30.6183 30.6283ZM3.23322 12.0107C3.52206 10.653 4.05828 9.35997 4.81508 8.1963C4.86262 8.123 4.89142 8.03914 4.89896 7.95209C4.90649 7.86505 4.89252 7.77749 4.85828 7.6971L4.17455 6.0971C4.15266 6.05149 4.14419 6.0006 4.15014 5.95036C4.15609 5.90012 4.17621 5.85261 4.20815 5.81337C4.69875 5.23141 5.23813 4.69238 5.82042 4.20217C5.85937 4.17256 5.9058 4.15438 5.9545 4.14967C6.0032 4.14496 6.05225 4.15391 6.09615 4.1755L7.69615 4.8587C7.77661 4.89304 7.86427 4.90705 7.95142 4.89952C8.03856 4.89199 8.12252 4.86313 8.19589 4.8155C9.35944 4.05859 10.6525 3.52253 12.0103 3.23417C12.096 3.21584 12.1759 3.17667 12.2429 3.12011C12.3099 3.06355 12.3619 2.99135 12.3943 2.9099L13.0386 1.2971C13.0563 1.24974 13.0866 1.20812 13.1263 1.17673C13.166 1.14533 13.2134 1.12537 13.2636 1.11897C14.021 1.05013 14.7831 1.05013 15.5404 1.11897C15.5892 1.12605 15.6352 1.14605 15.6737 1.1769C15.7121 1.20776 15.7416 1.24834 15.7591 1.29444L16.4044 2.90937C16.4369 2.99082 16.4889 3.06301 16.5558 3.11957C16.6228 3.17613 16.7027 3.21531 16.7884 3.23364C18.1462 3.522 19.4393 4.05806 20.6028 4.81497C20.6761 4.86251 20.76 4.89131 20.847 4.89884C20.9341 4.90638 21.0217 4.89241 21.102 4.85817L22.702 4.17444C22.7476 4.15307 22.7981 4.14484 22.8481 4.15068C22.898 4.15652 22.9453 4.1762 22.9847 4.2075C23.5668 4.69816 24.1058 5.23773 24.5959 5.8203C24.6252 5.85941 24.6431 5.90581 24.6478 5.95444C24.6525 6.00306 24.6438 6.05204 24.6226 6.09604L23.9394 7.69604C23.9051 7.77642 23.8912 7.86398 23.8987 7.95103C23.9062 8.03807 23.935 8.12193 23.9826 8.19524C24.7394 9.35888 25.2756 10.6519 25.5644 12.0096C25.5827 12.0953 25.6218 12.1752 25.6783 12.2421C25.7347 12.3091 25.8068 12.3611 25.8882 12.3936L27.5015 13.0379C27.548 13.0553 27.589 13.0849 27.6201 13.1235C27.6513 13.1622 27.6715 13.2085 27.6786 13.2576V13.2635C27.7477 14.0209 27.7477 14.7829 27.6786 15.5403C27.6716 15.5891 27.6518 15.6351 27.621 15.6736C27.5902 15.712 27.5497 15.7415 27.5036 15.759L25.8882 16.4043C25.8068 16.4368 25.7347 16.4888 25.6783 16.5558C25.6218 16.6228 25.5827 16.7026 25.5644 16.7883C25.2756 18.1461 24.7394 19.4391 23.9826 20.6027C23.935 20.676 23.9062 20.7599 23.8987 20.8469C23.8912 20.934 23.9051 21.0215 23.9394 21.1019L24.6231 22.7019C24.6448 22.7473 24.6533 22.798 24.6474 22.848C24.6416 22.898 24.6217 22.9454 24.59 22.9846C24.0996 23.5669 23.5601 24.106 22.9772 24.5958C22.9381 24.625 22.8917 24.643 22.8431 24.6477C22.7945 24.6524 22.7455 24.6437 22.7015 24.6224L21.1015 23.9392C21.0211 23.905 20.9336 23.891 20.8465 23.8986C20.7595 23.9061 20.6756 23.9349 20.6023 23.9824C19.4387 24.7393 18.1456 25.2755 16.7879 25.5643C16.7022 25.5826 16.6224 25.6217 16.5554 25.6781C16.4884 25.7346 16.4364 25.8067 16.4039 25.888L15.7591 27.5008C15.7413 27.5482 15.711 27.5898 15.6713 27.6212C15.6317 27.6526 15.5842 27.6726 15.534 27.679C14.7768 27.7478 14.015 27.7478 13.2578 27.679C13.2089 27.672 13.1628 27.652 13.1242 27.6212C13.0857 27.5903 13.0561 27.5497 13.0386 27.5035L12.3938 25.8886C12.3613 25.8072 12.3092 25.7351 12.2423 25.6787C12.1753 25.6222 12.0954 25.5831 12.0098 25.5648C10.6519 25.276 9.3587 24.7397 8.19482 23.983C8.12145 23.9353 8.03749 23.9065 7.95035 23.899C7.8632 23.8914 7.77554 23.9054 7.69509 23.9398L6.09508 24.6235C6.04972 24.6451 5.99917 24.6535 5.94925 24.6477C5.89933 24.6418 5.85208 24.622 5.81295 24.5904C5.23068 24.0998 4.69147 23.5602 4.20122 22.9776C4.17194 22.9385 4.15397 22.8921 4.14927 22.8435C4.14457 22.7949 4.15331 22.7459 4.17455 22.7019L4.85775 21.1019C4.89199 21.0215 4.90596 20.934 4.89842 20.8469C4.89089 20.7599 4.86209 20.676 4.81455 20.6027C4.05805 19.4393 3.52202 18.1467 3.23322 16.7894C3.21494 16.7037 3.17584 16.6239 3.11938 16.5569C3.06292 16.4899 2.99083 16.4379 2.90948 16.4054L1.29615 15.7606C1.24882 15.7428 1.20725 15.7125 1.17594 15.6728C1.14463 15.6331 1.12478 15.5857 1.11855 15.5355C1.04944 14.778 1.04944 14.0157 1.11855 13.2582C1.12566 13.2095 1.14563 13.1637 1.17638 13.1253C1.20713 13.087 1.24755 13.0575 1.29348 13.04L2.90895 12.3947C2.99039 12.3623 3.06259 12.3103 3.11915 12.2433C3.17571 12.1763 3.21489 12.0964 3.23322 12.0107Z" fill="#7D7D7D"/>
<path d="M14.3999 24.5333C16.843 24.5357 19.2048 23.6555 21.0503 22.0546C22.8957 20.4537 24.1007 18.2399 24.4433 15.821C24.7859 13.402 24.2431 10.9407 22.9148 8.89032C21.5864 6.8399 19.562 5.33841 17.2143 4.66233C17.147 4.64293 17.0766 4.63698 17.007 4.64481C16.9373 4.65265 16.87 4.67411 16.8086 4.70799C16.7473 4.74186 16.6933 4.78748 16.6496 4.84224C16.6059 4.897 16.5735 4.95983 16.5541 5.02713C16.5347 5.09444 16.5287 5.16491 16.5365 5.23452C16.5444 5.30413 16.5658 5.37151 16.5997 5.43282C16.6336 5.49413 16.6792 5.54817 16.734 5.59185C16.7887 5.63553 16.8516 5.668 16.9189 5.6874C18.4438 6.12726 19.8265 6.96009 20.9283 8.10247C22.0301 9.24485 22.8124 10.6567 23.1969 12.1966C23.5813 13.7364 23.5544 15.3503 23.1189 16.8765C22.6833 18.4027 21.8544 19.7877 20.7151 20.8927C20.3789 20.3725 19.9175 19.945 19.3733 19.6493C18.8291 19.3535 18.2193 19.199 17.5999 19.1999H16.5333V18.6074C17.0439 18.2954 17.4863 17.8833 17.8336 17.396C18.181 16.9087 18.4262 16.3562 18.5546 15.7717C18.8934 15.6044 19.181 15.3492 19.3874 15.0327C19.5938 14.7163 19.7114 14.3502 19.7279 13.9727C20.061 12.9013 20.2423 11.7884 20.2666 10.6666V10.1333C20.2658 9.47368 20.021 8.83771 19.5792 8.3479C19.1375 7.85809 18.5301 7.5491 17.8741 7.48047C17.5066 7.07727 16.5669 6.39994 14.3999 6.39994C12.233 6.39994 11.2933 7.07727 10.9258 7.48047C10.2697 7.54899 9.66228 7.85794 9.2205 8.34778C8.77873 8.83761 8.53392 9.47364 8.53327 10.1333V10.6666C8.55826 11.7887 8.7403 12.9017 9.07407 13.9733C9.09098 14.3448 9.20554 14.7053 9.4062 15.0184C9.60686 15.3315 9.88652 15.5862 10.217 15.7567C10.33 16.3564 10.5718 16.9244 10.9257 17.4215C11.2795 17.9186 11.737 18.3331 12.2666 18.6362V19.1999H11.1999C10.5806 19.199 9.97092 19.3535 9.42676 19.6492C8.8826 19.945 8.42135 20.3725 8.08527 20.8927C6.79005 19.6369 5.8994 18.0229 5.52746 16.2576C5.15553 14.4922 5.31927 12.6561 5.9977 10.9844C6.67612 9.31275 7.83832 7.88179 9.33531 6.87495C10.8323 5.86811 12.5959 5.33128 14.3999 5.33327C14.5414 5.33327 14.677 5.27708 14.7771 5.17706C14.8771 5.07704 14.9333 4.94138 14.9333 4.79993C14.9333 4.65849 14.8771 4.52283 14.7771 4.42281C14.677 4.32279 14.5414 4.2666 14.3999 4.2666C11.7124 4.2666 9.13495 5.33422 7.23459 7.23459C5.33422 9.13495 4.2666 11.7124 4.2666 14.3999C4.2666 17.0875 5.33422 19.6649 7.23459 21.5653C9.13495 23.4657 11.7124 24.5333 14.3999 24.5333ZM9.59994 10.1333C9.59994 9.70892 9.76851 9.30196 10.0686 9.0019C10.3686 8.70184 10.7756 8.53327 11.1999 8.53327C11.2944 8.52932 11.3865 8.50208 11.4679 8.45397C11.5493 8.40587 11.6176 8.33839 11.6666 8.25753C11.6714 8.25007 12.1781 7.4666 14.3999 7.4666C16.6053 7.4666 17.1199 8.23833 17.1199 8.23833C17.1644 8.3274 17.233 8.40223 17.3178 8.45435C17.4026 8.50647 17.5004 8.53381 17.5999 8.53327C18.0243 8.53327 18.4312 8.70184 18.7313 9.0019C19.0314 9.30196 19.1999 9.70892 19.1999 10.1333V10.6666C19.195 11.2127 19.1415 11.7572 19.0399 12.2938C18.9031 12.1688 18.7505 12.0623 18.5861 11.977C18.4554 11.2973 18.159 10.6603 17.7231 10.1226C17.5918 9.96178 17.4265 9.83193 17.2392 9.74232C17.0519 9.65271 16.8471 9.60555 16.6394 9.6042C16.4484 9.60317 16.2597 9.64487 16.0869 9.72627C15.9141 9.80766 15.7618 9.92668 15.641 10.0746C15.4916 10.2598 15.3027 10.4093 15.088 10.5119C14.8734 10.6146 14.6384 10.6679 14.4005 10.6679C14.1625 10.6679 13.9276 10.6146 13.7129 10.5119C13.4983 10.4093 13.3093 10.2598 13.1599 10.0746C13.0396 9.92603 12.8878 9.80594 12.7156 9.72295C12.5433 9.63997 12.3549 9.59613 12.1637 9.5946C11.9687 9.59262 11.7757 9.63299 11.5979 9.71292C11.4201 9.79285 11.2617 9.91043 11.1338 10.0575C10.6709 10.6107 10.3561 11.2725 10.2191 11.9807C10.0542 12.0661 9.90124 12.1728 9.7642 12.2981C9.66097 11.7602 9.606 11.2142 9.59994 10.6666V10.1333ZM11.2282 15.3199C11.2165 15.2185 11.1758 15.1225 11.1112 15.0435C11.0465 14.9645 10.9605 14.9057 10.8634 14.8741C10.6511 14.8044 10.4663 14.6695 10.3352 14.4886C10.2041 14.3077 10.1336 14.09 10.1336 13.8666C10.1336 13.6432 10.2041 13.4255 10.3352 13.2446C10.4663 13.0637 10.6511 12.9288 10.8634 12.8591C10.9607 12.8276 11.0469 12.7687 11.1116 12.6896C11.1764 12.6104 11.2171 12.5143 11.2287 12.4127C11.2999 11.7972 11.5494 11.2158 11.9466 10.7402C11.9706 10.714 11.9998 10.6931 12.0323 10.6788C12.0648 10.6645 12.0999 10.6571 12.1354 10.6571C12.1709 10.6571 12.206 10.6645 12.2385 10.6788C12.271 10.6931 12.3002 10.714 12.3242 10.7402C12.573 11.0499 12.888 11.2999 13.246 11.472C13.6041 11.644 13.9961 11.7337 14.3933 11.7344C14.7906 11.7351 15.1829 11.6469 15.5416 11.4761C15.9003 11.3054 16.2162 11.0565 16.4661 10.7477C16.5781 10.609 16.7946 10.6762 16.8927 10.7951C17.2687 11.2586 17.5043 11.8198 17.5717 12.4127C17.5832 12.5146 17.6238 12.611 17.6887 12.6903C17.7536 12.7697 17.84 12.8287 17.9375 12.8602C18.1507 12.9301 18.3361 13.0658 18.4672 13.2478C18.5984 13.4298 18.6684 13.6487 18.6673 13.873C18.6661 14.0973 18.5939 14.3154 18.461 14.4961C18.328 14.6767 18.1412 14.8106 17.9274 14.8783C17.8322 14.9079 17.7473 14.9636 17.6821 15.039C17.617 15.1144 17.5743 15.2066 17.5589 15.305C17.4587 16.0595 17.0979 16.7553 16.5388 17.2718C15.9797 17.7884 15.2576 18.0931 14.4975 18.1333C13.6981 18.1637 12.9167 17.8906 12.3103 17.3687C11.7039 16.8469 11.3173 16.115 11.2282 15.3199ZM14.4063 19.1999C14.4463 19.1999 14.4874 19.1999 14.5274 19.1999C14.8449 19.1897 15.1601 19.1422 15.4666 19.0586V19.7333C15.4666 20.0162 15.3542 20.2875 15.1542 20.4875C14.9541 20.6876 14.6828 20.7999 14.3999 20.7999C14.1193 20.7928 13.8521 20.6781 13.6536 20.4796C13.4551 20.2811 13.3404 20.0139 13.3333 19.7333V19.0661C13.684 19.1552 14.0445 19.2002 14.4063 19.1999ZM11.1999 20.2666H12.3455C12.4677 20.7202 12.7343 21.1218 13.1049 21.4104C13.4756 21.6991 13.9302 21.8592 14.3999 21.8666C14.8715 21.8648 15.3292 21.7069 15.7015 21.4174C16.0738 21.1279 16.3396 20.7232 16.4575 20.2666H17.5999C18.066 20.2652 18.5243 20.3867 18.9283 20.6191C19.3324 20.8514 19.668 21.1862 19.9013 21.5898C18.3254 22.8064 16.3908 23.4664 14.3999 23.4664C12.4091 23.4664 10.4744 22.8064 8.8986 21.5898C9.1318 21.1862 9.4674 20.8513 9.87148 20.619C10.2756 20.3867 10.7338 20.2651 11.1999 20.2666Z" fill="#7D7D7D"/>
</g>
<defs>
<clipPath id="clip0">
<rect width="32" height="32" fill="white"/>
</clipPath>
</defs>
</svg>
