<svg width="24" height="24" viewBox="0 0 24 24" fill="none" xmlns="http://www.w3.org/2000/svg">
<path d="M22 0H2C1.46973 0.000523531 0.961324 0.211405 0.586365 0.586365C0.211405 0.961324 0.000523531 1.46973 0 2V22C0.000523861 22.5303 0.211405 23.0387 0.586365 23.4136C0.961324 23.7886 1.46973 23.9995 2 24H22C22.5303 23.9995 23.0387 23.7886 23.4136 23.4136C23.7886 23.0387 23.9995 22.5303 24 22V2C23.9995 1.46973 23.7886 0.961324 23.4136 0.586364C23.0387 0.211405 22.5303 0.0005232 22 0ZM16.707 15.293C16.8 15.3858 16.8738 15.496 16.9242 15.6174C16.9746 15.7387 17.0006 15.8688 17.0006 16.0002C17.0007 16.1316 16.9749 16.2617 16.9246 16.3832C16.8744 16.5046 16.8007 16.6149 16.7078 16.7078C16.6149 16.8007 16.5046 16.8744 16.3832 16.9246C16.2617 16.9749 16.1316 17.0007 16.0002 17.0006C15.8688 17.0006 15.7387 16.9746 15.6174 16.9242C15.496 16.8738 15.3858 16.8 15.293 16.707L12 13.4141L8.70703 16.707C8.51945 16.8942 8.26523 16.9993 8.00022 16.9991C7.73522 16.999 7.48111 16.8937 7.29372 16.7063C7.10634 16.5189 7.001 16.2648 7.00086 15.9998C7.00072 15.7348 7.10578 15.4806 7.29297 15.293L10.5859 12L7.29297 8.70703C7.10578 8.51945 7.00072 8.26522 7.00086 8.00022C7.001 7.73522 7.10634 7.48111 7.29372 7.29372C7.48111 7.10634 7.73522 7.001 8.00022 7.00086C8.26523 7.00072 8.51945 7.10578 8.70703 7.29297L12 10.5859L15.293 7.29297C15.4806 7.10578 15.7348 7.00072 15.9998 7.00086C16.2648 7.001 16.5189 7.10634 16.7063 7.29372C16.8937 7.48111 16.999 7.73522 16.9991 8.00022C16.9993 8.26522 16.8942 8.51945 16.707 8.70703L13.4141 12L16.707 15.293Z" fill="#FF5959"/>
</svg>
