<svg width="32" height="32" viewBox="0 0 32 32" fill="none" xmlns="http://www.w3.org/2000/svg">
<g clip-path="url(#clip0)">
<path d="M5.3334 29.8667H7.77927L9.4438 31.5312C9.59195 31.6803 9.76823 31.7985 9.9624 31.879C10.1566 31.9595 10.3648 32.0006 10.575 32H27.7334C28.1577 32 28.5647 31.8314 28.8648 31.5314C29.1648 31.2313 29.3334 30.8243 29.3334 30.4V3.73333C29.3334 3.30899 29.1648 2.90202 28.8648 2.60196C28.5647 2.3019 28.1577 2.13333 27.7334 2.13333H27.2001V1.6C27.2001 1.17565 27.0315 0.768687 26.7314 0.468629C26.4314 0.168571 26.0244 0 25.6001 0L5.3334 0C4.90905 0 4.50209 0.168571 4.20203 0.468629C3.90197 0.768687 3.7334 1.17565 3.7334 1.6V28.2667C3.7334 28.691 3.90197 29.098 4.20203 29.398C4.50209 29.6981 4.90905 29.8667 5.3334 29.8667ZM7.68753 28.2667H9.06673C9.20818 28.2667 9.34384 28.3229 9.44386 28.4229C9.54388 28.5229 9.60007 28.6586 9.60007 28.8V30.1792L7.68753 28.2667ZM28.2667 3.73333V30.4C28.2667 30.5415 28.2105 30.6771 28.1105 30.7771C28.0105 30.8771 27.8748 30.9333 27.7334 30.9333H10.6667V28.8C10.6667 28.3757 10.4982 27.9687 10.1981 27.6686C9.89805 27.3686 9.49108 27.2 9.06673 27.2H6.9334V3.73333C6.9334 3.59188 6.98959 3.45623 7.08961 3.35621C7.18963 3.25619 7.32528 3.2 7.46673 3.2H27.7334C27.8748 3.2 28.0105 3.25619 28.1105 3.35621C28.2105 3.45623 28.2667 3.59188 28.2667 3.73333ZM4.80007 1.6C4.80007 1.45855 4.85626 1.3229 4.95627 1.22288C5.05629 1.12286 5.19195 1.06667 5.3334 1.06667H25.6001C25.7415 1.06667 25.8772 1.12286 25.9772 1.22288C26.0772 1.3229 26.1334 1.45855 26.1334 1.6V2.13333H7.46673C7.04239 2.13333 6.63542 2.3019 6.33536 2.60196C6.0353 2.90202 5.86673 3.30899 5.86673 3.73333V27.2917C5.86613 27.5019 5.90726 27.7101 5.98774 27.9043C6.06821 28.0985 6.18643 28.2748 6.33553 28.4229L6.7126 28.8H5.3334C5.19195 28.8 5.05629 28.7438 4.95627 28.6438C4.85626 28.5438 4.80007 28.4081 4.80007 28.2667V1.6Z" fill="#7D7D7D"/>
<path d="M22.4001 26.6664C23.3494 26.6664 24.2775 26.3849 25.0668 25.8575C25.8562 25.33 26.4714 24.5804 26.8347 23.7033C27.198 22.8262 27.2931 21.8611 27.1079 20.93C26.9227 19.9989 26.4655 19.1436 25.7942 18.4723C25.1229 17.801 24.2676 17.3438 23.3365 17.1586C22.4054 16.9734 21.4403 17.0685 20.5632 17.4318C19.6861 17.7951 18.9365 18.4103 18.409 19.1997C17.8816 19.989 17.6001 20.9171 17.6001 21.8664C17.6015 23.139 18.1077 24.3591 19.0075 25.259C19.9074 26.1588 21.1275 26.665 22.4001 26.6664ZM18.7094 22.3997H21.5793L20.4134 25.0216C19.9569 24.7336 19.5681 24.3501 19.274 23.8975C18.9798 23.4449 18.7872 22.9339 18.7094 22.3997ZM26.1334 21.8664C26.1352 22.4437 26.0027 23.0134 25.7464 23.5307C25.4901 24.0479 25.117 24.4984 24.6565 24.8466C24.1961 25.1949 23.661 25.4312 23.0935 25.537C22.526 25.6428 21.9417 25.6152 21.3868 25.4563L22.8865 22.0829C22.9171 22.0148 22.9331 21.9411 22.9334 21.8664V18.1757C23.8209 18.3045 24.6325 18.7482 25.22 19.4258C25.8075 20.1033 26.1317 20.9696 26.1334 21.8664ZM21.8668 18.1757V21.3331H18.7094C18.8252 20.5368 19.1951 19.7993 19.7641 19.2304C20.333 18.6614 21.0705 18.2915 21.8668 18.1757Z" fill="#7D7D7D"/>
<path d="M9.06654 19.1995H15.4665C15.608 19.1995 15.7436 19.1433 15.8437 19.0433C15.9437 18.9432 15.9999 18.8076 15.9999 18.6661C15.9999 18.5247 15.9437 18.389 15.8437 18.289C15.7436 18.189 15.608 18.1328 15.4665 18.1328H9.06654C8.92509 18.1328 8.78943 18.189 8.68941 18.289C8.58939 18.389 8.5332 18.5247 8.5332 18.6661C8.5332 18.8076 8.58939 18.9432 8.68941 19.0433C8.78943 19.1433 8.92509 19.1995 9.06654 19.1995Z" fill="#7D7D7D"/>
<path d="M9.06654 22.4006H15.4665C15.608 22.4006 15.7436 22.3444 15.8437 22.2444C15.9437 22.1444 15.9999 22.0088 15.9999 21.8673C15.9999 21.7259 15.9437 21.5902 15.8437 21.4902C15.7436 21.3902 15.608 21.334 15.4665 21.334H9.06654C8.92509 21.334 8.78943 21.3902 8.68941 21.4902C8.58939 21.5902 8.5332 21.7259 8.5332 21.8673C8.5332 22.0088 8.58939 22.1444 8.68941 22.2444C8.78943 22.3444 8.92509 22.4006 9.06654 22.4006Z" fill="#7D7D7D"/>
<path d="M9.06654 25.5999H15.4665C15.608 25.5999 15.7436 25.5437 15.8437 25.4436C15.9437 25.3436 15.9999 25.208 15.9999 25.0665C15.9999 24.9251 15.9437 24.7894 15.8437 24.6894C15.7436 24.5894 15.608 24.5332 15.4665 24.5332H9.06654C8.92509 24.5332 8.78943 24.5894 8.68941 24.6894C8.58939 24.7894 8.5332 24.9251 8.5332 25.0665C8.5332 25.208 8.58939 25.3436 8.68941 25.4436C8.78943 25.5437 8.92509 25.5999 9.06654 25.5999Z" fill="#7D7D7D"/>
<path d="M19.7335 7.99929H26.1335C26.275 7.99929 26.4106 7.9431 26.5107 7.84308C26.6107 7.74306 26.6669 7.6074 26.6669 7.46595C26.6669 7.3245 26.6107 7.18885 26.5107 7.08883C26.4106 6.98881 26.275 6.93262 26.1335 6.93262H19.7335C19.5921 6.93262 19.4564 6.98881 19.3564 7.08883C19.2564 7.18885 19.2002 7.3245 19.2002 7.46595C19.2002 7.6074 19.2564 7.74306 19.3564 7.84308C19.4564 7.9431 19.5921 7.99929 19.7335 7.99929Z" fill="#7D7D7D"/>
<path d="M19.7335 11.1995H26.1335C26.275 11.1995 26.4106 11.1433 26.5107 11.0433C26.6107 10.9433 26.6669 10.8076 26.6669 10.6661C26.6669 10.5247 26.6107 10.389 26.5107 10.289C26.4106 10.189 26.275 10.1328 26.1335 10.1328H19.7335C19.5921 10.1328 19.4564 10.189 19.3564 10.289C19.2564 10.389 19.2002 10.5247 19.2002 10.6661C19.2002 10.8076 19.2564 10.9433 19.3564 11.0433C19.4564 11.1433 19.5921 11.1995 19.7335 11.1995Z" fill="#7D7D7D"/>
<path d="M19.7335 14.4007H26.1335C26.275 14.4007 26.4106 14.3445 26.5107 14.2444C26.6107 14.1444 26.6669 14.0088 26.6669 13.8673C26.6669 13.7259 26.6107 13.5902 26.5107 13.4902C26.4106 13.3902 26.275 13.334 26.1335 13.334H19.7335C19.5921 13.334 19.4564 13.3902 19.3564 13.4902C19.2564 13.5902 19.2002 13.7259 19.2002 13.8673C19.2002 14.0088 19.2564 14.1444 19.3564 14.2444C19.4564 14.3445 19.5921 14.4007 19.7335 14.4007Z" fill="#7D7D7D"/>
<path d="M9.06654 15.4672H16.5332C16.6747 15.4672 16.8103 15.411 16.9103 15.311C17.0104 15.211 17.0666 15.0753 17.0666 14.9339C17.0666 14.7924 17.0104 14.6567 16.9103 14.5567C16.8103 14.4567 16.6747 14.4005 16.5332 14.4005V11.2005C16.5332 11.0591 16.477 10.9234 16.377 10.8234C16.277 10.7234 16.1413 10.6672 15.9999 10.6672C15.8584 10.6672 15.7228 10.7234 15.6228 10.8234C15.5227 10.9234 15.4665 11.0591 15.4665 11.2005V14.4005H14.3999V12.8005C14.3999 12.6591 14.3437 12.5234 14.2437 12.4234C14.1437 12.3234 14.008 12.2672 13.8665 12.2672C13.7251 12.2672 13.5894 12.3234 13.4894 12.4234C13.3894 12.5234 13.3332 12.6591 13.3332 12.8005V14.4005H12.2665V13.3339C12.2665 13.1924 12.2104 13.0567 12.1103 12.9567C12.0103 12.8567 11.8747 12.8005 11.7332 12.8005C11.5918 12.8005 11.4561 12.8567 11.3561 12.9567C11.2561 13.0567 11.1999 13.1924 11.1999 13.3339V14.4005H9.59987V13.9931L10.9369 11.3195L11.6585 11.56C11.9021 11.6401 12.1662 11.6304 12.4032 11.5326C12.6402 11.4347 12.8342 11.2553 12.9503 11.0267L13.6036 9.72105L14.3588 9.97225C14.5891 10.0479 14.8382 10.0434 15.0656 9.95948C15.293 9.87552 15.4853 9.71704 15.6111 9.50985L16.9903 7.21012C17.0601 7.08903 17.0796 6.94536 17.0446 6.81004C17.0095 6.67472 16.9228 6.55857 16.803 6.48657C16.6832 6.41457 16.5399 6.39248 16.4039 6.42507C16.268 6.45765 16.1503 6.5423 16.0761 6.66079L14.6964 8.96052L13.9412 8.70932C13.6977 8.62882 13.4334 8.63838 13.1964 8.73625C12.9593 8.83413 12.7653 9.01382 12.6495 9.24265L11.9961 10.5483L11.2745 10.3077C11.031 10.2275 10.7668 10.2371 10.5298 10.335C10.2928 10.4328 10.0988 10.6124 9.98281 10.8411L9.59987 11.608V6.40052C9.59987 6.25907 9.54368 6.12342 9.44366 6.0234C9.34364 5.92338 9.20799 5.86719 9.06654 5.86719C8.92509 5.86719 8.78943 5.92338 8.68941 6.0234C8.58939 6.12342 8.5332 6.25907 8.5332 6.40052V14.9339C8.5332 15.0753 8.58939 15.211 8.68941 15.311C8.78943 15.411 8.92509 15.4672 9.06654 15.4672Z" fill="#7D7D7D"/>
</g>
<defs>
<clipPath id="clip0">
<rect width="32" height="32" fill="white"/>
</clipPath>
</defs>
</svg>
