<svg width="56" height="56" viewBox="0 0 56 56" fill="none" xmlns="http://www.w3.org/2000/svg">
<path d="M28.0007 2.33325C42.176 2.33325 53.6673 13.8246 53.6673 27.9999C53.6673 42.1752 42.176 53.6666 28.0007 53.6666C13.8253 53.6666 2.33398 42.1752 2.33398 27.9999C2.33398 13.8246 13.8253 2.33325 28.0007 2.33325ZM28.0007 6.99992C16.4027 6.99992 7.00065 16.4019 7.00065 27.9999C7.00065 39.5979 16.4027 48.9999 28.0007 48.9999C39.5986 48.9999 49.0006 39.5979 49.0006 27.9999C49.0006 16.4019 39.5986 6.99992 28.0007 6.99992ZM28.0007 29.1665C31.1559 29.1665 33.7735 30.2686 35.8217 32.0892C37.0538 33.1844 37.84 34.2943 38.2543 35.123C38.8306 36.2756 38.3634 37.6772 37.2108 38.2535C36.1405 38.7886 34.8556 38.424 34.2161 37.4463L34.0803 37.21C33.9113 36.872 33.4579 36.2318 32.7213 35.5771C31.4882 34.481 29.9495 33.8331 28.0007 33.8331C26.0518 33.8331 24.5131 34.481 23.28 35.5771C22.6486 36.1383 22.2253 36.6888 22.0108 37.0474L21.921 37.21C21.3447 38.3626 19.9431 38.8298 18.7905 38.2535C17.6379 37.6772 17.1707 36.2756 17.747 35.123C18.1613 34.2943 18.9475 33.1844 20.1796 32.0892C22.2278 30.2686 24.8454 29.1665 28.0007 29.1665ZM36.1673 18.6666C37.3639 18.6666 38.3502 19.5673 38.485 20.7278L38.5006 20.9999V22.1666C38.5006 23.4552 37.456 24.4999 36.1673 24.4999C34.9707 24.4999 33.9845 23.5992 33.8497 22.4387L33.834 22.1666V20.9999C33.834 19.7113 34.8787 18.6666 36.1673 18.6666ZM19.834 18.6666C21.0306 18.6666 22.0168 19.5673 22.1516 20.7278L22.1673 20.9999V22.1666C22.1673 23.4552 21.1226 24.4999 19.834 24.4999C18.6374 24.4999 17.6511 23.5992 17.5163 22.4387L17.5007 22.1666V20.9999C17.5007 19.7113 18.5453 18.6666 19.834 18.6666Z" fill="#FF5959"/>
</svg>
