<svg width="32" height="32" viewBox="0 0 32 32" fill="none" xmlns="http://www.w3.org/2000/svg">
<g clip-path="url(#clip0)">
<path d="M29.8667 0H2.13333C1.56754 0 1.02492 0.224761 0.624839 0.624839C0.224761 1.02492 0 1.56754 0 2.13333L0 25.6C0 26.1658 0.224761 26.7084 0.624839 27.1085C1.02492 27.5086 1.56754 27.7333 2.13333 27.7333H6.71147C7.13561 28.2293 7.59936 28.6901 8.09813 29.1109C8.27008 29.2563 8.47948 29.3503 8.70236 29.3822C8.92525 29.414 9.1526 29.3825 9.3584 29.2912L10.4555 28.8224C11.396 29.398 12.4211 29.8224 13.4933 30.08L13.936 31.1888C14.0192 31.3962 14.1577 31.5768 14.3363 31.7111C14.515 31.8453 14.727 31.9281 14.9493 31.9504C15.2384 31.976 15.6144 31.9989 16.0357 31.9989C16.3762 31.9998 16.7166 31.9836 17.0555 31.9504C17.2779 31.9276 17.4899 31.8445 17.6685 31.71C17.8471 31.5755 17.9855 31.3947 18.0688 31.1872L18.5067 30.08C19.5784 29.8217 20.603 29.3968 21.5429 28.8208L22.6389 29.2891C22.8449 29.3807 23.0724 29.4123 23.2955 29.3805C23.5187 29.3486 23.7282 29.2544 23.9003 29.1088C24.399 28.6874 24.8639 28.2275 25.2907 27.7333H29.8667C30.4325 27.7333 30.9751 27.5086 31.3752 27.1085C31.7752 26.7084 32 26.1658 32 25.6V2.13333C32 1.56754 31.7752 1.02492 31.3752 0.624839C30.9751 0.224761 30.4325 0 29.8667 0V0ZM2.13333 1.06667H29.8667C30.1496 1.06667 30.4209 1.17905 30.6209 1.37909C30.821 1.57912 30.9333 1.85044 30.9333 2.13333V4.26667H1.06667V2.13333C1.06667 1.85044 1.17905 1.57912 1.37909 1.37909C1.57912 1.17905 1.85044 1.06667 2.13333 1.06667ZM23.2064 28.3003C23.185 28.3153 23.16 28.3242 23.1339 28.3259C23.1078 28.3276 23.0818 28.322 23.0587 28.3099L21.7067 27.7333C21.6263 27.6991 21.5387 27.6851 21.4517 27.6927C21.3646 27.7002 21.2808 27.729 21.2075 27.7765C20.2313 28.4115 19.1465 28.8613 18.0075 29.1035C17.9218 29.122 17.8419 29.1612 17.7748 29.2177C17.7078 29.2743 17.6557 29.3464 17.6229 29.4277L17.0784 30.792C17.0683 30.8179 17.0516 30.8407 17.03 30.8582C17.0084 30.8757 16.9826 30.8872 16.9552 30.8917C16.3195 30.9494 15.6799 30.9494 15.0443 30.8917C15.0182 30.8868 14.9938 30.8753 14.9735 30.8583C14.9531 30.8414 14.9375 30.8194 14.928 30.7947L14.3824 29.4283C14.3497 29.3469 14.2975 29.2748 14.2305 29.2183C14.1635 29.1617 14.0836 29.1225 13.9979 29.104C12.8588 28.8618 11.7741 28.412 10.7979 27.7771C10.7243 27.729 10.64 27.6998 10.5524 27.6922C10.4649 27.6846 10.3768 27.6987 10.296 27.7333L8.94027 28.312C8.91582 28.3242 8.88842 28.3292 8.86123 28.3265C8.83404 28.3238 8.80819 28.3134 8.78667 28.2965C8.29752 27.8844 7.84466 27.431 7.43307 26.9413C7.41802 26.92 7.40916 26.8949 7.40747 26.8688C7.40577 26.8428 7.41131 26.8167 7.42347 26.7936L8 25.44C8.03424 25.3596 8.04821 25.2721 8.04067 25.185C8.03314 25.098 8.00434 25.0141 7.9568 24.9408C7.32185 23.9646 6.87204 22.8799 6.62987 21.7408C6.61136 21.6551 6.57212 21.5752 6.51559 21.5082C6.45906 21.4411 6.38696 21.389 6.3056 21.3563L4.94293 20.8091C4.91711 20.799 4.89434 20.7824 4.87686 20.7609C4.85938 20.7394 4.84778 20.7137 4.8432 20.6864C4.78583 20.0505 4.78583 19.4108 4.8432 18.7749C4.8481 18.7489 4.8596 18.7245 4.87659 18.7042C4.89358 18.6838 4.9155 18.6681 4.94027 18.6587L6.30667 18.1131C6.38803 18.0804 6.46012 18.0282 6.51665 17.9612C6.57318 17.8941 6.61242 17.8142 6.63093 17.7285C6.87311 16.5895 7.32292 15.5047 7.95787 14.5285C8.00523 14.4551 8.03385 14.3712 8.04119 14.2842C8.04854 14.1971 8.0344 14.1096 8 14.0293L7.42133 12.6736C7.40907 12.6492 7.40401 12.6218 7.40674 12.5946C7.40948 12.5674 7.41991 12.5415 7.4368 12.52C7.84924 12.0311 8.30262 11.5783 8.792 11.1664C8.8134 11.1515 8.83848 11.1427 8.86453 11.141C8.89057 11.1393 8.91658 11.1448 8.93973 11.1568L10.296 11.7333C10.3763 11.7679 10.4639 11.7821 10.551 11.7746C10.6382 11.767 10.722 11.738 10.7952 11.6901C11.7714 11.0552 12.8561 10.6054 13.9952 10.3632C14.0809 10.3447 14.1608 10.3055 14.2278 10.2489C14.2949 10.1924 14.347 10.1203 14.3797 10.0389L14.9243 8.67467C14.9343 8.64884 14.9509 8.62607 14.9724 8.60859C14.9939 8.59111 15.0196 8.57951 15.0469 8.57493C15.6828 8.51703 16.3226 8.51703 16.9584 8.57493C16.9845 8.57983 17.0088 8.59133 17.0292 8.60832C17.0495 8.62531 17.0652 8.64724 17.0747 8.672L17.6203 10.0384C17.653 10.1198 17.7051 10.1919 17.7722 10.2484C17.8392 10.3049 17.9191 10.3442 18.0048 10.3627C19.1439 10.6048 20.2286 11.0546 21.2048 11.6896C21.2784 11.7377 21.3627 11.7668 21.4502 11.7745C21.5378 11.7821 21.6259 11.768 21.7067 11.7333L23.0624 11.1547C23.0869 11.1427 23.1143 11.1378 23.1414 11.1406C23.1685 11.1433 23.1944 11.1535 23.216 11.1701C23.705 11.5824 24.1579 12.0358 24.5696 12.5253C24.5846 12.5467 24.5935 12.5718 24.5952 12.5978C24.5969 12.6239 24.5914 12.6499 24.5792 12.6731L24 14.0293C23.9658 14.1097 23.9518 14.1973 23.9593 14.2843C23.9669 14.3714 23.9957 14.4552 24.0432 14.5285C24.6782 15.5047 25.128 16.5895 25.3701 17.7285C25.3886 17.8142 25.4279 17.8941 25.4844 17.9612C25.5409 18.0282 25.613 18.0804 25.6944 18.1131L27.0587 18.6576C27.0837 18.6673 27.1059 18.6831 27.1233 18.7036C27.1406 18.7241 27.1525 18.7486 27.1579 18.7749V18.7808C27.2158 19.4165 27.2158 20.0561 27.1579 20.6917C27.153 20.7178 27.1415 20.7422 27.1245 20.7625C27.1075 20.7829 27.0856 20.7985 27.0608 20.808L25.6944 21.3536C25.613 21.3863 25.5409 21.4385 25.4844 21.5055C25.4279 21.5725 25.3886 21.6524 25.3701 21.7381C25.128 22.8772 24.6782 23.9619 24.0432 24.9381C23.9952 25.0118 23.9662 25.0961 23.9586 25.1836C23.9511 25.2712 23.9653 25.3593 24 25.44L24.5787 26.7957C24.5909 26.8202 24.596 26.8476 24.5933 26.8748C24.5905 26.902 24.5801 26.9278 24.5632 26.9493C24.1504 27.4376 23.6965 27.8896 23.2064 28.3003ZM29.8667 26.6667H25.6389C25.624 26.5659 25.5968 26.4674 25.5579 26.3733L25.0891 25.2763C25.6645 24.3362 26.0889 23.3117 26.3467 22.24L27.4555 21.7973C27.6629 21.7141 27.8435 21.5756 27.9777 21.397C28.112 21.2184 28.1948 21.0064 28.2171 20.784C28.2809 20.0825 28.2809 19.3767 28.2171 18.6752C28.1936 18.4536 28.1102 18.2426 27.9758 18.0648C27.8415 17.887 27.6612 17.7492 27.4544 17.6661L26.3467 17.2267C26.0884 16.1549 25.6635 15.1304 25.0875 14.1904L25.5557 13.0944C25.6475 12.8885 25.6792 12.6609 25.6473 12.4378C25.6154 12.2146 25.5212 12.005 25.3755 11.8331C24.9263 11.2991 24.4321 10.8049 23.8981 10.3557C23.7264 10.2102 23.5171 10.1161 23.2942 10.0842C23.0714 10.0523 22.8441 10.0839 22.6384 10.1755L21.5413 10.6443C20.6018 10.069 19.5778 9.64459 18.5067 9.38667L18.064 8.27787C17.9808 8.07048 17.8423 7.88986 17.6637 7.7556C17.485 7.62134 17.273 7.53856 17.0507 7.51627C16.3501 7.45275 15.6451 7.45275 14.9445 7.51627C14.7221 7.53905 14.5101 7.62219 14.3315 7.7567C14.153 7.89122 14.0145 8.07198 13.9312 8.27947L13.4933 9.38667C12.4216 9.64493 11.397 10.0698 10.4571 10.6459L9.36107 10.1776C9.15517 10.0861 8.92764 10.0544 8.70456 10.0862C8.48148 10.1179 8.27187 10.2119 8.09973 10.3573C7.5658 10.8067 7.07153 11.3011 6.6224 11.8352C6.47693 12.007 6.38284 12.2163 6.35096 12.4391C6.31907 12.662 6.35067 12.8893 6.44213 13.0949L6.91093 14.192C6.33562 15.1316 5.91126 16.1556 5.65333 17.2267L4.54453 17.6693C4.33715 17.7526 4.15653 17.891 4.02226 18.0697C3.888 18.2483 3.80523 18.4603 3.78293 18.6827C3.71895 19.3833 3.71895 20.0882 3.78293 20.7888C3.80572 21.0112 3.88886 21.2232 4.02337 21.4018C4.15788 21.5804 4.33865 21.7188 4.54613 21.8021L5.65333 22.24C5.9116 23.3117 6.33651 24.3363 6.91253 25.2763L6.44427 26.3723C6.40536 26.4668 6.37797 26.5656 6.36267 26.6667H2.13333C1.85044 26.6667 1.57912 26.5543 1.37909 26.3542C1.17905 26.1542 1.06667 25.8829 1.06667 25.6V5.33333H30.9333V25.6C30.9333 25.8829 30.821 26.1542 30.6209 26.3542C30.4209 26.5543 30.1496 26.6667 29.8667 26.6667Z" fill="#7D7D7D"/>
<path d="M16 11.7334C14.4178 11.7334 12.871 12.2026 11.5554 13.0816C10.2398 13.9607 9.21447 15.2101 8.60897 16.6719C8.00347 18.1337 7.84504 19.7423 8.15372 21.2941C8.4624 22.846 9.22433 24.2714 10.3431 25.3903C11.462 26.5091 12.8874 27.271 14.4393 27.5797C15.9911 27.8884 17.5997 27.7299 19.0615 27.1244C20.5233 26.5189 21.7727 25.4936 22.6518 24.178C23.5308 22.8624 24 21.3156 24 19.7334C23.9976 17.6124 23.154 15.579 21.6542 14.0792C20.1544 12.5794 18.121 11.7358 16 11.7334ZM16 26.6667C14.6287 26.6667 13.2882 26.2601 12.1481 25.4983C11.0079 24.7364 10.1192 23.6536 9.59444 22.3867C9.06967 21.1198 8.93237 19.7257 9.19989 18.3808C9.46742 17.0358 10.1278 15.8004 11.0974 14.8308C12.067 13.8611 13.3024 13.2008 14.6474 12.9333C15.9923 12.6658 17.3864 12.8031 18.6533 13.3278C19.9202 13.8526 21.003 14.7413 21.7649 15.8814C22.5267 17.0216 22.9333 18.3621 22.9333 19.7334C22.9312 21.5716 22.2001 23.3339 20.9003 24.6337C19.6005 25.9335 17.8382 26.6646 16 26.6667Z" fill="#7D7D7D"/>
<path d="M2.66663 3.19948H3.19997C3.34142 3.19948 3.47707 3.14329 3.57709 3.04327C3.67711 2.94325 3.7333 2.8076 3.7333 2.66615C3.7333 2.5247 3.67711 2.38904 3.57709 2.28902C3.47707 2.189 3.34142 2.13281 3.19997 2.13281H2.66663C2.52519 2.13281 2.38953 2.189 2.28951 2.28902C2.18949 2.38904 2.1333 2.5247 2.1333 2.66615C2.1333 2.8076 2.18949 2.94325 2.28951 3.04327C2.38953 3.14329 2.52519 3.19948 2.66663 3.19948Z" fill="#7D7D7D"/>
<path d="M5.33314 3.19948H5.86647C6.00792 3.19948 6.14357 3.14329 6.24359 3.04327C6.34361 2.94325 6.3998 2.8076 6.3998 2.66615C6.3998 2.5247 6.34361 2.38904 6.24359 2.28902C6.14357 2.189 6.00792 2.13281 5.86647 2.13281H5.33314C5.19169 2.13281 5.05603 2.189 4.95601 2.28902C4.85599 2.38904 4.7998 2.5247 4.7998 2.66615C4.7998 2.8076 4.85599 2.94325 4.95601 3.04327C5.05603 3.14329 5.19169 3.19948 5.33314 3.19948Z" fill="#7D7D7D"/>
<path d="M8.00013 3.19948H8.53346C8.67491 3.19948 8.81057 3.14329 8.91058 3.04327C9.0106 2.94325 9.06679 2.8076 9.06679 2.66615C9.06679 2.5247 9.0106 2.38904 8.91058 2.28902C8.81057 2.189 8.67491 2.13281 8.53346 2.13281H8.00013C7.85868 2.13281 7.72303 2.189 7.62301 2.28902C7.52299 2.38904 7.4668 2.5247 7.4668 2.66615C7.4668 2.8076 7.52299 2.94325 7.62301 3.04327C7.72303 3.14329 7.85868 3.19948 8.00013 3.19948Z" fill="#7D7D7D"/>
<path d="M26.1334 3.19948H29.3334C29.4749 3.19948 29.6105 3.14329 29.7106 3.04327C29.8106 2.94325 29.8668 2.8076 29.8668 2.66615C29.8668 2.5247 29.8106 2.38904 29.7106 2.28902C29.6105 2.189 29.4749 2.13281 29.3334 2.13281H26.1334C25.992 2.13281 25.8563 2.189 25.7563 2.28902C25.6563 2.38904 25.6001 2.5247 25.6001 2.66615C25.6001 2.8076 25.6563 2.94325 25.7563 3.04327C25.8563 3.14329 25.992 3.19948 26.1334 3.19948Z" fill="#7D7D7D"/>
</g>
<defs>
<clipPath id="clip0">
<rect width="32" height="32" fill="white"/>
</clipPath>
</defs>
</svg>
